<?xml version="1.0" standalone="no"?>
<!DOCTYPE svg PUBLIC "-//W3C//DTD SVG 1.1//EN" "http://www.w3.org/Graphics/SVG/1.1/DTD/svg11.dtd" >
<svg>
<metadata>
Created by FontForge 20090914 at Fri Apr 22 13:55:44 2016
 By www-data
Digitized data copyright The Monotype Corporation 1991-1995. All rights reserved. Book Antiqua&#226;&#132;&#162; is a trademark of The Monotype Corporation which may be registered in certain jurisdictions.
</metadata>
<defs>
<font id="BookAntiqua-BoldItalic" horiz-adv-x="1139" >
  <font-face 
    font-family="Book Antiqua"
    font-weight="700"
    font-style="italic"
    font-stretch="normal"
    units-per-em="2048"
    panose-1="2 4 7 2 6 3 5 10 2 4"
    ascent="1638"
    descent="-410"
    x-height="971.997"
    cap-height="1396"
    bbox="-364 -696 2441 2114"
    underline-thickness="119"
    underline-position="-209"
    slope="-9.5"
    unicode-range="U+0020-U+F108"
  />
<missing-glyph horiz-adv-x="1536" 
d="M256 0v1280h1024v-1280h-1024zM288 32h960v1216h-960v-1216z" />
    <glyph glyph-name=".notdef" horiz-adv-x="1536" 
d="M256 0v1280h1024v-1280h-1024zM288 32h960v1216h-960v-1216z" />
    <glyph glyph-name="space" unicode=" " horiz-adv-x="512" 
 />
    <glyph glyph-name="exclam" unicode="!" horiz-adv-x="682" 
d="M257 387l-27.001 17.001c8.66699 69.333 28 277.666 58 624.999c15.333 179.333 23.333 288.333 24 327c44.667 1.33301 139.334 21 284.001 59l24 -19l-47 -153l-189 -627c-23.333 -77.333 -39 -137 -47 -179zM106.999 92.001c0 46 12.332 87.667 36.999 125
s61 56 109 56c38.667 0 69.167 -11.5 91.5 -34.5s33.5 -52.5 33.5 -88.5c0 -52 -14.167 -94.5 -42.5 -127.5s-65.166 -49.5 -110.499 -49.5c-36.667 0 -65.5 10.667 -86.5 32s-31.5 50.333 -31.5 87z" />
    <glyph glyph-name="quotedbl" unicode="&#x22;" horiz-adv-x="1024" 
d="M678 857l12.0029 339c2.66699 78 16 134 40 168s52.667 51 86 51c31.333 0 56.666 -11 75.999 -33s29 -53 29 -93c0 -34.667 -8.33301 -78 -25 -130l-106 -322c-8.66699 -28 -26.334 -42 -53.001 -42c-18.667 0 -33.334 5.66699 -44.001 17s-15.667 26.333 -15 45z
M274.003 857l12.001 338.999c3.33301 78.667 16.833 134.834 40.5 168.501s52.167 50.5 85.5 50.5c31.333 0 56.833 -11 76.5 -33s29.5 -53 29.5 -93c0 -34 -8.66699 -77.333 -26 -130l-105 -322c-9.33301 -28 -27.333 -42 -54 -42c-18.667 0 -33.334 5.66699 -44.001 17
s-15.667 26.333 -15 45z" />
    <glyph glyph-name="numbersign" unicode="#" horiz-adv-x="1241" 
d="M1093 598v-154h-217l-65 -444h-158l65 444h-220l-65 -444h-156l66 444h-213v154h237l34 219h-214v154h236l62 416h152l-60 -416h219l61 416h157l-61 -416h191v-154h-214l-30 -219h193zM774 817h-220l-31 -219h217z" />
    <glyph glyph-name="dollar" unicode="$" horiz-adv-x="1024" 
d="M315 -223l34.999 206c-56 2.66699 -106.333 10.5 -151 23.5s-100 37.167 -166 72.5c9.33301 24.667 18.333 63 27 115c13.333 83.333 20.666 143.666 21.999 180.999l70 -1c0 -18 -2.66699 -70 -8 -156c42.667 -66 117 -110.667 223 -134l84 502
c-114.667 22 -195 54.333 -241 97c-58 54 -87 129.667 -87 227c0 118 41.833 220.5 125.5 307.5s195.834 139.167 336.501 156.5l18 139l83 -3l-22 -134c54.667 -0.666992 104.334 -7.16699 149.001 -19.5s92.667 -33.5 144 -63.5
c-28.667 -90.667 -45.334 -182.667 -50.001 -276l-65 2c4 34 6 71 6 111l-2 32c-33.333 58.667 -99 95.667 -197 111l-79 -475c133.333 -24.667 226.5 -63.667 279.5 -117s79.5 -125 79.5 -215c0 -82 -22.5 -159.167 -67.5 -231.5s-109.5 -132.666 -193.5 -180.999
s-162.667 -71.833 -236 -70.5c-17.333 -97.333 -28.666 -166 -33.999 -206h-83zM567.999 1276c-62 -3.33301 -112.668 -16.3311 -152.001 -38.998s-70.166 -54.834 -92.499 -96.501s-33.5 -87.834 -33.5 -138.501c0 -42.667 14 -78.5 42 -107.5s81 -53.833 159 -74.5z
M447.998 81.002c87.333 0.666992 156.834 26.833 208.501 78.5s77.5 118.167 77.5 199.5c0 33.333 -6.83301 63.5 -20.5 90.5s-33.5 49.5 -59.5 67.5c-18.667 13.333 -60.334 29.333 -125.001 48z" />
    <glyph glyph-name="percent" unicode="%" horiz-adv-x="1821" 
d="M132 856c0 179.333 38.332 323 114.999 431c60.667 85.333 138 128 232 128c76 0 135.833 -26.333 179.5 -79s65.5 -134.334 65.5 -245.001c0 -151.333 -33.5 -279.166 -100.5 -383.499s-150.833 -156.5 -251.5 -156.5c-71.333 0 -129.166 26 -173.499 78
s-66.5 127.667 -66.5 227zM299.999 729c0 -39.333 6.66797 -67.501 20.001 -84.501s32 -25.5 56 -25.5s43.667 8.66699 59 26c24.667 28.667 51 108.834 79 240.501s42 247.167 42 346.5c0 40 -7.33301 69.333 -22 88s-34 28 -58 28c-22 0 -40.667 -9 -56 -27
c-26.667 -30 -53.334 -107.167 -80.001 -231.5s-40 -244.5 -40 -360.5zM423 -2.00098c44 60.667 102.332 150.001 174.999 268.001l553 901c64.667 111.333 106.334 187.666 125.001 228.999c40 -5.33301 70.333 -8 91 -8l50 1c-50 -68.667 -108 -157 -174 -265l-554 -905
c-64.667 -108.667 -106 -183 -124 -223l-78 4zM1113 289c0 179.333 38.332 323 114.999 431c60.667 85.333 138 128 232 128c76 0 135.833 -26.333 179.5 -79s65.5 -134.334 65.5 -245.001c0 -151.333 -33.5 -279.166 -100.5 -383.499s-150.833 -156.5 -251.5 -156.5
c-71.333 0 -129.166 26 -173.499 78s-66.5 127.667 -66.5 227zM1281 162c0 -39.333 6.66797 -67.501 20.001 -84.501s32 -25.5 56 -25.5s43.667 8.66699 59 26c24.667 28.667 51 108.834 79 240.501s42 247.167 42 346.5c0 40 -7.33301 69.333 -22 88s-34 28 -58 28
c-22 0 -40.667 -9 -56 -27c-26.667 -30 -53.334 -107.167 -80.001 -231.5s-40 -244.5 -40 -360.5z" />
    <glyph glyph-name="ampersand" unicode="&#x26;" horiz-adv-x="1706" 
d="M1529 1086c82.667 -39.333 124.003 -99.3311 124.003 -179.998c0 -48 -11.333 -91.833 -34 -131.5s-52 -68.834 -88 -87.501c-49.333 -26.667 -111 -43.667 -185 -51c-20.667 -2 -49.334 -7 -86.001 -15c40.667 -16.667 71 -40 91 -70s30 -66.333 30 -109
c0 -129.333 -75.833 -239.833 -227.5 -331.5s-320.5 -137.5 -506.5 -137.5c-162 0 -286.667 36.833 -374 110.5s-131 169.5 -131 287.5c0 91.333 29.667 169.666 89 234.999c72.667 79.333 180.334 141 323.001 185c-58.667 9.33301 -105.167 33.333 -139.5 72
s-51.5 88 -51.5 148c0 67.333 22.5 126.5 67.5 177.5s108.333 101.5 190 151.5s168.167 75 259.5 75c41.333 0 81.666 -4.33301 120.999 -13s77.333 -21.667 114 -39c-22.667 -78.667 -36.334 -165 -41.001 -259h-62l-5 122c-28.667 27.333 -60 47.666 -94 60.999
s-70.333 20 -109 20c-74 0 -133.5 -20.833 -178.5 -62.5s-67.5 -93.5 -67.5 -155.5c0 -64.667 21.833 -117.667 65.5 -159s101.5 -62 173.5 -62c13.333 0 30.333 1.33301 51 4c-14.667 -50.667 -23.334 -90 -26.001 -118l-76 2c-48 2 -101.5 -7.16699 -160.5 -27.5
s-107.667 -57.5 -146 -111.5s-57.5 -117.667 -57.5 -191c0 -100.667 35.167 -182.834 105.5 -246.501s167.5 -95.5 291.5 -95.5c123.333 0 222.166 30.833 296.499 92.5s111.5 134.834 111.5 219.501c0 56.667 -15.5 101.5 -46.5 134.5s-70.833 49.5 -119.5 49.5
c-41.333 0 -74.166 -12.167 -98.499 -36.5s-42.5 -68.166 -54.5 -131.499h-50l20 220c37.333 35.333 76.5 61.5 117.5 78.5s103.167 31.5 186.5 43.5l192 26c93.333 12.667 157 32.667 191 60s51 59 51 95c0 48.667 -25.333 81.667 -76 99v14z" />
    <glyph glyph-name="quotesingle" unicode="'" horiz-adv-x="512" 
d="M220 857l12.001 338.999c3.33301 78.667 16.833 134.834 40.5 168.501s52.167 50.5 85.5 50.5c31.333 0 56.833 -11 76.5 -33s29.5 -53 29.5 -93c0 -34 -8.66699 -77.333 -26 -130l-105 -322c-9.33301 -28 -27.333 -42 -54 -42c-18.667 0 -33.334 5.66699 -44.001 17
s-15.667 26.333 -15 45z" />
    <glyph glyph-name="parenleft" unicode="(" horiz-adv-x="682" 
d="M468 -259c-122 140 -214.334 283.001 -277.001 429.001c-50 116.667 -75 240 -75 370c0 111.333 21.333 223.333 64 336s108.667 221 198 325c62.667 73.333 167.334 170.666 314.001 291.999l51 -50c-74 -69.333 -142.333 -158.333 -205 -267s-111 -228.667 -145 -360
s-51 -269 -51 -413c0 -256 60.333 -462.333 181 -619z" />
    <glyph glyph-name="parenright" unicode=")" horiz-adv-x="682" 
d="M-65 -210c54.667 43.333 116.502 120.835 185.502 232.502s122.5 237.167 160.5 376.5s57 280.333 57 423c0 146 -17.333 271 -52 375s-77.667 188.667 -129 254l57 42c109.333 -142.667 181.333 -246.667 216 -312c46.667 -86.667 80.5 -169.334 101.5 -248.001
s31.5 -156.667 31.5 -234c0 -106.667 -18.833 -213.334 -56.5 -320.001s-93.834 -207.5 -168.501 -302.5s-192.334 -206.833 -353.001 -335.5z" />
    <glyph glyph-name="asterisk" unicode="*" horiz-adv-x="909" 
d="M270 778c-23.333 46 -52.3301 97.001 -86.9971 153.001l4 9c102.667 34 201.667 71.333 297 112c-80.667 41.333 -179.667 85.666 -297 132.999l-3 14c37.333 46.667 67.666 97 90.999 151h18c82 -98 156.667 -179 224 -243c9.33301 66 20.666 165.333 33.999 298l10 10
c32 -11.333 58 -19 78 -23l105 -18l6 -14c-80.667 -130.667 -136 -225 -166 -283c136.667 22.667 236 42.667 298 60l18 -16c-2 -24.667 -3 -48.667 -3 -72c0 -20.667 1 -52 3 -94l-14 -9c-147.333 40.667 -253 65 -317 73l152 -266l-5 -18
c-58.667 -16 -112.334 -34.667 -161.001 -56l-16 10c-5.33301 108.667 -14 211.667 -26 309l-223 -222z" />
    <glyph glyph-name="plus" unicode="+" horiz-adv-x="1241" 
d="M111 601v187h416v416h187v-416h416v-187h-416v-417h-187v417h-416z" />
    <glyph glyph-name="comma" unicode="," horiz-adv-x="512" 
d="M-68 -343l-37.999 30.002c49.333 71.333 93.666 161.166 132.999 269.499s61.333 198.166 66 269.499l178 46c36 8.66699 63 16.667 81 24l34 -30l-90 -175c-34.667 -62 -73.667 -123.833 -117 -185.5s-90 -121.167 -140 -178.5z" />
    <glyph glyph-name="hyphen" unicode="-" horiz-adv-x="797" 
d="M39 386l-9.99902 19c37.333 59.333 71 129 101 209c123.333 -4 223 -6 299 -6c81.333 0 175.666 2 282.999 6l11 -20c-35.333 -62 -70.333 -131.333 -105 -208c-102.667 3.33301 -199.667 5 -291 5c-95.333 0 -191.333 -1.66699 -288 -5z" />
    <glyph glyph-name="hyphen" unicode="&#xad;" horiz-adv-x="797" 
d="M39 386l-9.99902 19c37.333 59.333 71 129 101 209c123.333 -4 223 -6 299 -6c81.333 0 175.666 2 282.999 6l11 -20c-35.333 -62 -70.333 -131.333 -105 -208c-102.667 3.33301 -199.667 5 -291 5c-95.333 0 -191.333 -1.66699 -288 -5z" />
    <glyph glyph-name="period" unicode="." horiz-adv-x="512" 
d="M30 104c0 56.667 14.168 101.668 42.501 135.001s64.833 50 109.5 50c41.333 0 74.166 -12.333 98.499 -37s36.5 -58.334 36.5 -101.001c0 -52.667 -14.667 -95.5 -44 -128.5s-66 -49.5 -110 -49.5c-40.667 0 -73 12 -97 36s-36 55.667 -36 95z" />
    <glyph glyph-name="slash" unicode="/" horiz-adv-x="645" 
d="M-364 -257c43.333 60 101.332 149.333 173.999 268l766 1250c64.667 110.667 106.334 187 125.001 229c85.333 -5.33301 136 -8 152 -8l85 2c-50.667 -70 -108.667 -158.333 -174 -265l-767 -1255c-64.667 -110 -105.667 -184.333 -123 -223l-132 4z" />
    <glyph glyph-name="zero" unicode="0" horiz-adv-x="1024" 
d="M69 481c0 256.667 49.668 476.501 149.001 659.501s230 274.5 392 274.5c114 0 203.833 -42 269.5 -126s98.5 -215.667 98.5 -395s-29.667 -346 -89 -500s-133 -267 -221 -339c-66.667 -54.667 -146.334 -82 -239.001 -82c-117.333 0 -209.333 50 -276 150
c-56 83.333 -84 202.666 -84 357.999zM309.001 265.001c0 -80.667 11 -136.501 33 -167.501s52.333 -46.5 91 -46.5s71.667 15.667 99 47c41.333 48 83 174.333 125 379c54.667 268.667 82 489.667 82 663c0 67.333 -12.167 117 -36.5 149s-55.5 48 -93.5 48
c-36 0 -67 -15 -93 -45c-46.667 -53.333 -89 -176.666 -127 -369.999c-53.333 -272.667 -80 -491.667 -80 -657z" />
    <glyph glyph-name="one" unicode="1" horiz-adv-x="1024" 
d="M29 -10l5.00195 71.001h113c70 0 114.333 11.667 133 35c13.333 17.333 29.666 82 48.999 194l108 636c25.333 147.333 39.333 236.666 42 267.999c-12 -6.66699 -55.333 -26.667 -130 -60l-243 -109l-19 15l33 136l105 28c126 34 232 68.833 318 104.5
s147 65.5 183 89.5l37 -28l-175 -1006c-20.667 -122 -31 -197.667 -31 -227c0 -28 10.667 -47.667 32 -59s76.666 -17 165.999 -17h83l-11 -71c-222 6.66699 -353.333 10 -394 10c-152 0 -286.667 -3.33301 -404 -10z" />
    <glyph glyph-name="two" unicode="2" horiz-adv-x="1024" 
d="M-32 -6l7.00195 57.001c66 58 159.667 152 281 282c136.667 144.667 234.167 273.667 292.5 387s87.5 209.666 87.5 288.999s-18.833 138.833 -56.5 178.5s-89.167 59.5 -154.5 59.5c-40 0 -74.333 -6.83301 -103 -20.5s-54 -34.334 -76 -62.001
s-52.333 -83.167 -91 -166.5l-61 21l112 276c42 40 87.167 70 135.5 90s100.166 30 155.499 30c122 0 217.667 -32.667 287 -98s104 -153 104 -263c0 -77.333 -20.667 -154.666 -62 -231.999s-122 -173.333 -242 -288l-219 -211l-112 -105v-12l377 2
c109.333 0.666992 194.666 6.66699 255.999 18l16 -15c-8.66699 -19.333 -18.334 -48 -29.001 -86c-18 -61.333 -30 -106.333 -36 -135c-139.333 6.66699 -290.666 10 -453.999 10z" />
    <glyph glyph-name="three" unicode="3" horiz-adv-x="1024" 
d="M20 60l58.001 330l68 -6c-3.33301 -41.333 -5 -70.666 -5 -87.999c0 -84 19.167 -145.833 57.5 -185.5s93.5 -59.5 165.5 -59.5c92 0 163.333 38.667 214 116s76 169.666 76 276.999c0 90 -19.667 156.333 -59 199s-96 64 -170 64c-45.333 0 -94 -9.66699 -146 -29
l-11 11l32 105c22 -5.33301 45.333 -8 70 -8c98.667 0 174.5 25.667 227.5 77s79.5 118.333 79.5 201c0 62 -17 109.667 -51 143s-81.667 50 -143 50c-60.667 0 -111.334 -14 -152.001 -42s-78.334 -77 -113.001 -147l-58 24c38 72 75 147.667 111 227c36 32 79 56 129 72
s107 24 171 24c112.667 0 198.5 -25.5 257.5 -76.5s88.5 -118.833 88.5 -203.5c0 -88 -33.167 -162.833 -99.5 -224.5s-138.166 -104.834 -215.499 -129.501l-2 -9c106 -11.333 185.333 -44 238 -98s79 -125.333 79 -214c0 -84 -23.833 -163.667 -71.5 -239
s-114.834 -135.5 -201.501 -180.5s-185.667 -67.5 -297 -67.5c-59.333 0 -113.166 6.33301 -161.499 19s-103.5 35.334 -165.5 68.001z" />
    <glyph glyph-name="four" unicode="4" horiz-adv-x="1024" 
d="M189 -12l9.00098 73h63c13.333 0 46.666 1.66699 99.999 5c40.667 2.66699 65 10 73 22c16 24 32 87.333 48 190l14 86l-356 -4h-148l8 76l143 228l174 257c70.667 101.333 125.334 176.333 164.001 225c85.333 105.333 134.333 168 147 188
c71.333 8.66699 154.666 31 249.999 67l25 -22c-13.333 -60 -31 -157.333 -53 -292l-95 -569l219 7l9 -7l-36 -160l-57 3c-43.333 2 -97 3.66699 -161 5l-7 -48c-16 -111.333 -24 -178.333 -24 -201c0 -19.333 6 -33.5 18 -42.5s34 -13.5 66 -13.5h149l-12 -71
c-128 6.66699 -239 10 -333 10c-186.667 0 -319 -4 -397 -12zM524.001 518l67 421l50 275l-293 -396c-26 -41.333 -60.333 -92.333 -103 -153c-42.667 -60 -71.667 -109 -87 -147h366z" />
    <glyph glyph-name="five" unicode="5" horiz-adv-x="1024" 
d="M17 68c21.333 76 39.001 177.338 53.001 304.005l61 -8c-1.33301 -24 -2 -45.333 -2 -64c0 -76.667 21.5 -137.334 64.5 -182.001s100.167 -67 171.5 -67c79.333 0 145.333 35 198 105c66 89.333 99 200.666 99 333.999c0 89.333 -20 156.333 -60 201s-96 67 -168 67
c-91.333 0 -164.333 -43.667 -219 -131l-64 27l70 375c13.333 74 25 145.667 35 215l19 131l10 8c47.333 -14.667 99.166 -25.667 155.499 -33s116.833 -11 181.5 -11c52.667 0 120.667 5 204 15c52 6 94.333 14 127 24l12 -19l-91 -184
c-114.667 -9.33301 -210.667 -14 -288 -14c-63.333 0 -115.666 0.666992 -156.999 2s-72 3.33301 -92 6l-82 -406c80.667 68.667 176 103 286 103c78.667 0 146.167 -14.333 202.5 -43s100.666 -70.834 132.999 -126.501s48.5 -116.167 48.5 -181.5
c0 -96.667 -24.667 -187.334 -74 -272.001s-116 -150.834 -200 -198.501s-179.667 -71.5 -287 -71.5c-64.667 0 -123.5 7 -176.5 21s-109.833 38.667 -170.5 74z" />
    <glyph glyph-name="six" unicode="6" horiz-adv-x="1024" 
d="M910 1243l-16.999 -5.99707c-46.667 46.667 -104.334 70 -173.001 70c-56.667 0 -110 -18.333 -160 -55s-95 -99 -135 -187c-54 -120 -89 -240 -105 -360c64.667 64 118.834 106.167 162.501 126.5s92.5 30.5 146.5 30.5c90.667 0 164.334 -28.833 221.001 -86.5
s85 -138.834 85 -243.501c0 -98.667 -22.167 -188.334 -66.5 -269.001s-117.166 -153.334 -218.499 -218.001c-74.667 -48 -155.334 -72 -242.001 -72c-113.333 0 -203 38.5 -269 115.5s-99 194.5 -99 352.5c0 147.333 27.333 290.333 82 429
c65.333 165.333 164.166 297.5 296.499 396.5s257.833 148.5 376.5 148.5c51.333 0 103.666 -9.66699 156.999 -29zM292.001 310.003c0 -85.333 15.666 -148.167 46.999 -188.5s73.333 -60.5 126 -60.5c40.667 0 75.667 12.5 105 37.5s55.5 73 78.5 144
s34.5 152.833 34.5 245.5c0 88 -15 150.833 -45 188.5s-71.667 56.5 -125 56.5c-63.333 0 -112.666 -28.333 -147.999 -85c-48.667 -77.333 -73 -190 -73 -338z" />
    <glyph glyph-name="seven" unicode="7" horiz-adv-x="1024" 
d="M170 -6l-13.002 23.999l221 342l526 781c-223.333 2.66699 -358.666 4 -405.999 4c-129.333 0 -240.333 -4.33301 -333 -13l-11 13c20.667 100.667 34.334 175.667 41.001 225l10 12c47.333 -3.33301 105.666 -6 174.999 -8l189 -4c56.667 0 240 0.666992 550 2l-5 -75
c-28 -33.333 -82.667 -117.666 -164 -252.999l-244 -428c-54.667 -99.333 -123.334 -234.333 -206.001 -405c-35.333 -72.667 -66.666 -145 -93.999 -217l-22 1l-147 5c-21.333 0 -43.666 -2 -66.999 -6z" />
    <glyph glyph-name="eight" unicode="8" horiz-adv-x="1024" 
d="M362 683l-31 19.002c-108 63.333 -162 156.333 -162 279c0 108 46.333 203.667 139 287c109.333 98 224.333 147 345 147c92.667 0 166.834 -25.5 222.501 -76.5s83.5 -116.5 83.5 -196.5c0 -41.333 -7.83301 -80.166 -23.5 -116.499s-40.5 -71.333 -74.5 -105
s-99.667 -81.834 -197 -144.501c86 -44.667 147.5 -93.334 184.5 -146.001s55.5 -112.667 55.5 -180c0 -124.667 -50 -229.334 -150 -314.001c-127.333 -108.667 -252.333 -163 -375 -163c-106.667 0 -191.334 28.833 -254.001 86.5s-94 133.5 -94 227.5
c0 54 12.333 104 37 150s65 91.333 121 136c30 24 87.667 60.667 173 110zM603 811.002c69.333 50.667 120.001 101.999 152.001 153.999c24 38.667 36 84.334 36 137.001c0 68.667 -18.333 121.667 -55 159s-86.667 56 -150 56c-64.667 0 -118 -21.333 -160 -64
s-63 -97 -63 -163c0 -50.667 13.667 -95.5 41 -134.5s76.666 -77.833 147.999 -116.5zM423.001 645.001c-70 -37.333 -124.831 -85.834 -164.498 -145.501s-59.5 -122.5 -59.5 -188.5c0 -74 21.5 -132.333 64.5 -175s99.833 -64 170.5 -64
c79.333 0 141.666 25.833 186.999 77.5s68 114.834 68 189.501c0 53.333 -14.333 99.833 -43 139.5s-84.334 84.167 -167.001 133.5z" />
    <glyph glyph-name="nine" unicode="9" horiz-adv-x="1024" 
d="M110 7c-4.66699 57.333 -22.6631 127.668 -53.9961 211.001l47 23c52 -112.667 131 -169 237 -169c81.333 0 149.666 36.333 204.999 109c70 92.667 127.667 259.667 173 501c-96.667 -110.667 -196.334 -166 -299.001 -166c-92.667 0 -167.334 30.5 -224.001 91.5
s-85 148.833 -85 263.5c0 78 12.167 147.333 36.5 208s59.166 112.667 104.499 156c62.667 58.667 132 105.667 208 141c55.333 26 114.333 39 177 39c110.667 0 199.5 -39 266.5 -117s100.5 -193.333 100.5 -346c0 -176.667 -36.5 -342.334 -109.5 -497.001
s-166.667 -273.667 -281 -357s-225.5 -125 -333.5 -125c-25.333 0 -47.333 2 -66 6zM362.004 917.002c0 -89.333 15.833 -153.834 47.5 -193.501s73.834 -59.5 126.501 -59.5c62.667 0 114.167 30.5 154.5 91.5s60.5 160.167 60.5 297.5
c0 92.667 -15.833 159.834 -47.5 201.501s-74.834 62.5 -129.501 62.5c-72 0 -125.333 -36 -160 -108s-52 -169.333 -52 -292z" />
    <glyph glyph-name="colon" unicode=":" horiz-adv-x="512" 
d="M151 796c0 52.667 14.5 95.333 43.5 128s65.833 49 110.5 49c38 0 68 -11.167 90 -33.5s33 -52.5 33 -90.5c0 -53.333 -14.333 -95.833 -43 -127.5s-65 -47.5 -109 -47.5c-38.667 0 -69.167 10.667 -91.5 32s-33.5 51.333 -33.5 90zM32 86.999
c0 58 14.667 104.166 44 138.499s65.666 51.5 108.999 51.5c38.667 0 69 -11.167 91 -33.5s33 -53.5 33 -93.5c0 -53.333 -14 -96.166 -42 -128.499s-64.333 -48.5 -109 -48.5c-39.333 0 -70.166 11 -92.499 33s-33.5 49 -33.5 81z" />
    <glyph glyph-name="semicolon" unicode=";" horiz-adv-x="512" 
d="M160 787c0 58 14.166 103.501 42.499 136.501s64.833 49.5 109.5 49.5c40 0 71.167 -10.833 93.5 -32.5s33.5 -52.834 33.5 -93.501c0 -53.333 -14.667 -95.833 -44 -127.5s-66.666 -47.5 -111.999 -47.5c-36 0 -65.5 11.167 -88.5 33.5s-34.5 49.5 -34.5 81.5z
M-88.001 -343.999l-38 32.999c59.333 93.333 106.833 193 142.5 299s53.5 186 53.5 240c28.667 3.33301 116 26 262 68l31 -30c-19.333 -43.333 -58.333 -116 -117 -218c-34 -59.333 -74 -120.666 -120 -183.999s-83.333 -110 -112 -140z" />
    <glyph glyph-name="semicolon" unicode="&#x37e;" horiz-adv-x="512" 
d="M160 787c0 58 14.166 103.501 42.499 136.501s64.833 49.5 109.5 49.5c40 0 71.167 -10.833 93.5 -32.5s33.5 -52.834 33.5 -93.501c0 -53.333 -14.667 -95.833 -44 -127.5s-66.666 -47.5 -111.999 -47.5c-36 0 -65.5 11.167 -88.5 33.5s-34.5 49.5 -34.5 81.5z
M-88.001 -343.999l-38 32.999c59.333 93.333 106.833 193 142.5 299s53.5 186 53.5 240c28.667 3.33301 116 26 262 68l31 -30c-19.333 -43.333 -58.333 -116 -117 -218c-34 -59.333 -74 -120.666 -120 -183.999s-83.333 -110 -112 -140z" />
    <glyph glyph-name="less" unicode="&#x3c;" horiz-adv-x="1241" 
d="M1130 350v-206l-1019 464v173l1019 464v-207l-761 -344z" />
    <glyph glyph-name="equal" unicode="=" horiz-adv-x="1241" 
d="M111 788v187h1019v-187h-1019zM111 414v187h1019v-187h-1019z" />
    <glyph glyph-name="greater" unicode="&#x3e;" horiz-adv-x="1241" 
d="M111 1038v207l1019 -464v-173l-1019 -464v206l761 344z" />
    <glyph glyph-name="question" unicode="?" horiz-adv-x="909" 
d="M413 377c-38.667 37.333 -62.333 64.999 -71 82.999c-12.667 25.333 -19 51.666 -19 78.999c0 30.667 9.66699 63.834 29 99.501s57.666 82.5 114.999 140.5l45 46c58 58.667 97.667 108.167 119 148.5s32 78.833 32 115.5c0 50 -17.167 90.5 -51.5 121.5
s-80.166 46.5 -137.499 46.5c-50.667 0 -92.167 -10.667 -124.5 -32s-59.5 -58.333 -81.5 -111l-22 -54l-67 9c35.333 80.667 64.333 167 87 259c54 33.333 101.667 56.166 143 68.499s86.333 18.5 135 18.5c117.333 0 208.5 -28.667 273.5 -86s97.5 -131.666 97.5 -222.999
c0 -46.667 -8.33301 -89.5 -25 -128.5s-39 -72.5 -67 -100.5c-42.667 -42.667 -75 -71.334 -97 -86.001l-139 -98c-73.333 -51.333 -121 -90.666 -143 -117.999s-33 -53 -33 -77c0 -31.333 15.667 -59.666 47 -84.999zM207.001 95.999c0 53.333 14 96.002 42 128.002
s63.333 48 106 48c38 0 68.167 -11.333 90.5 -34s33.5 -52 33.5 -88c0 -52.667 -14.333 -95.334 -43 -128.001s-65.667 -49 -111 -49c-36.667 0 -65.5 10.667 -86.5 32s-31.5 51.666 -31.5 90.999z" />
    <glyph glyph-name="at" unicode="@" horiz-adv-x="1706" 
d="M1419 363l132.003 -0.00292969c-40 -72.667 -78.667 -128 -116 -166c-67.333 -68 -143.5 -121.333 -228.5 -160s-176.833 -58 -275.5 -58c-134 0 -258 31.667 -372 95s-202 148 -264 254s-93 224 -93 354c0 133.333 31.667 256 95 368s149.666 199.833 258.999 263.5
s228.666 95.5 357.999 95.5c183.333 0 341.666 -59.667 474.999 -179c115.333 -103.333 173 -233.666 173 -390.999c0 -102 -20.333 -192 -61 -270s-101.667 -144.167 -183 -198.5s-151.666 -81.5 -210.999 -81.5c-39.333 0 -71.666 12.667 -96.999 38
s-42.333 68.666 -51 129.999c-44 -58.667 -79 -97 -105 -115c-40 -28.667 -84 -43 -132 -43c-70.667 0 -132 27.167 -184 81.5s-78 122.5 -78 204.5c0 78 19.833 151.833 59.5 221.5s93.667 125.667 162 168s135.833 63.5 202.5 63.5c44.667 0 81 -11.667 109 -35
s47.667 -58.666 59 -105.999l32 123h195l-149 -556c-7.33301 -25.333 -11 -42.666 -11 -51.999c0 -18.667 4 -32.667 12 -42s18.333 -14 31 -14c27.333 0 61.666 18 102.999 54c55.333 46.667 100.833 109.834 136.5 189.501s53.5 155.834 53.5 228.501
c0 122 -51.167 229.833 -153.5 323.5s-227.833 140.5 -376.5 140.5c-117.333 0 -222.5 -25.667 -315.5 -77s-166 -123.5 -219 -216.5s-79.5 -195.833 -79.5 -308.5c0 -110.667 26.167 -210.834 78.5 -300.501s127.666 -161.167 225.999 -214.5s206.833 -80 325.5 -80
c64.667 0 124.167 9.5 178.5 28.5s106.333 47.5 156 85.5s97.5 89.333 143.5 154zM1013 820.997c0 54 -9.5 93.5 -28.5 118.5s-42.5 37.5 -70.5 37.5c-31.333 0 -65 -16 -101 -48s-71.333 -92.5 -106 -181.5s-52 -168.5 -52 -238.5c0 -48.667 10 -85.667 30 -111
s43.667 -38 71 -38c37.333 0 76.833 22.667 118.5 68s75.167 110.5 100.5 195.5s38 150.833 38 197.5z" />
    <glyph glyph-name="A" unicode="A" horiz-adv-x="1479" 
d="M-97 -10l2.99805 69h39c26.667 0 49 3.33301 67 10s32.667 17.667 44 33l80 136l529 904c74.667 127.333 124.334 215 149.001 263h197c8.66699 -66 18.334 -134.667 29.001 -206l138 -880c14.667 -95.333 25.5 -156.833 32.5 -184.5s15.167 -45.5 24.5 -53.5
s28 -13.333 56 -16l45 -5c15.333 -0.666992 31.333 -1 48 -1l1 -69c-81.333 6.66699 -175.333 10 -282 10c-136.667 0 -249 -3.33301 -337 -10l1 69h39c46 0 79 4 99 12s30 24.333 30 49c0 41.333 -5.33301 98 -16 170l-34 252l-159 1l-297 -1l-84 -150
c-87.333 -158 -131 -252.667 -131 -284c0 -15.333 8 -26.333 24 -33c25.333 -10.667 78 -16 158 -16l-12 -69c-82 6.66699 -162.667 10 -242 10c-80 0 -159.667 -3.33301 -239 -10zM787.998 1172l-310 -531l197 -2l195 2z" />
    <glyph glyph-name="B" unicode="B" horiz-adv-x="1366" 
d="M22 -10l11 69.0029h24c31.333 0 61.333 6.66699 90 20c12.667 5.33301 22 18.666 28 39.999c10.667 35.333 27 118.666 49 249.999l88 525c32.667 198 49 324 49 378c0 19.333 -5.33301 32 -16 38c-20.667 11.333 -54 17 -100 17h-72l11 68c72.667 -4 185 -6 337 -6
l346 6c111.333 0 195.333 -11.333 252 -34s99.5 -55.167 128.5 -97.5s43.5 -93.833 43.5 -154.5c0 -84.667 -31.333 -159.5 -94 -224.5s-164.334 -114.167 -305.001 -147.5c133.333 -18 225.333 -51.833 276 -101.5s76 -118.834 76 -207.501
c0 -76 -22.333 -146.833 -67 -212.5s-111.667 -120 -201 -163s-186.666 -64.5 -291.999 -64.5l-402 12c-41.333 0 -128 -3.33301 -260 -10zM551 766.003l94 -2.00098c95.333 0 168.666 12.5 219.999 37.5s91.666 63.833 120.999 116.5s44 114 44 184
c0 46 -9.66699 84.333 -29 115s-46.166 53.334 -80.499 68.001s-90.166 22 -167.499 22c-39.333 0 -77.333 -2.66699 -114 -8l-40 -244zM440 103.002c114 -18.667 189.668 -28 227.001 -28c67.333 0 121.166 12.167 161.499 36.5s74.333 65.5 102 123.5s41.5 122 41.5 192
c0 84 -23.167 147 -69.5 189s-121.833 63 -226.5 63l-140 -2l-46 -273z" />
    <glyph glyph-name="C" unicode="C" horiz-adv-x="1403" 
d="M1279 244l-24.0029 -78.998c-110 -64.667 -189.167 -107.334 -237.5 -128.001s-100 -36.5 -155 -47.5s-112.5 -16.5 -172.5 -16.5c-181.333 0 -320.666 47.167 -417.999 141.5s-146 228.833 -146 403.5s36.333 326.167 109 454.5s181.334 234.166 326.001 317.499
s295.667 125 453 125c76.667 0 149.334 -8.83301 218.001 -26.5s124.667 -39.834 168 -66.501c-40.667 -132 -65.334 -243.667 -74.001 -335h-71c3.33301 26 5 50.333 5 73c0 26.667 -2.66699 68.667 -8 126c-44.667 34.667 -92.834 60 -144.501 76s-113.167 24 -184.5 24
c-114 0 -204.833 -23.167 -272.5 -69.5s-122.167 -123.166 -163.5 -230.499c-52.667 -134.667 -79 -283.334 -79 -446.001c0 -147.333 34.333 -257.166 103 -329.499s167.334 -108.5 296.001 -108.5c70.667 0 139.834 11.333 207.501 34s148.5 64.667 242.5 126z" />
    <glyph glyph-name="D" unicode="D" horiz-adv-x="1593" 
d="M-3 -10l10.9971 68.999c20.667 0 51.334 5.66699 92.001 17c17.333 4.66699 29.833 12.334 37.5 23.001s16.834 43 27.501 97c18 100.667 62 361.667 132 783c24 143.333 36 237.333 36 282c0 24.667 -7.33301 40.334 -22 47.001c-25.333 12.667 -84.333 19 -177 19
l11 68c68 -4 165.667 -6 293 -6l464 6c154 0 273 -20.5 357 -61.5s149.5 -102.167 196.5 -183.5s70.5 -180.333 70.5 -297c0 -157.333 -36.667 -302.833 -110 -436.5s-172.833 -237.834 -298.5 -312.501s-265.167 -112 -418.5 -112l-386 8
c-103.333 0 -208.666 -3.33301 -315.999 -10zM413.997 119.999l91.002 -14.999c95.333 -16.667 171 -25 227 -25c112 0 200 27.667 264 83c80 69.333 141.5 171.166 184.5 305.499s64.5 265.833 64.5 394.5c0 106 -17.333 192.333 -52 259s-79.834 114.167 -135.501 142.5
s-143.834 42.5 -264.501 42.5c-64.667 0 -126 -5.66699 -184 -17l-65 -387l-67 -402z" />
    <glyph glyph-name="E" unicode="E" horiz-adv-x="1251" 
d="M-7 -10l10.998 69.002c70 9.33301 111 19.666 123 30.999s26.333 57.666 43 138.999c6.66699 33.333 33.334 189.666 80.001 468.999l69 414c13.333 79.333 20 132.333 20 159c0 18 -6.66699 30.667 -20 38c-21.333 12 -55.666 18 -102.999 18h-74l11 68l118 -3l111 -4
l368 4l330 1c52 0 94 -2.66699 126 -8l10 -8c-21.333 -104.667 -38.666 -209.334 -51.999 -314.001h-70l3 66l1 80c0 30.667 -9.66699 49.334 -29 56.001c-56 20.667 -153.667 31 -293 31c-58.667 0 -114.667 -4 -168 -12l-85 -510l293 -8
c25.333 0 84.666 2.66699 177.999 8l6 -13l-24 -97c-132 6.66699 -261.667 10 -389 10c-28.667 0 -55.667 -0.666992 -81 -2l-94 -564c71.333 -9.33301 143 -14 215 -14c108 0 198.333 6.33301 271 19c38.667 6.66699 62.334 14 71.001 22
c12 12.667 28.667 55.334 50 128.001l26 83h72l-32 -182c-11.333 -60 -19.333 -111.333 -24 -154l-15 -17c-30.667 -2 -62.334 -3 -95.001 -3l-783 14c-56 0 -114.333 -4.66699 -175 -14z" />
    <glyph glyph-name="F" unicode="F" 
d="M-39 -10l10.9971 69.001h76c48 0 78.167 10.667 90.5 32s35.5 133.333 69.5 336l75 452c35.333 212 53 343.333 53 394c0 20 -8.16699 34 -24.5 42s-58.833 12 -127.5 12h-47l11 68l167 -3l182 -4l544 7c44.667 0 87 -2.66699 127 -8l7 -15
c-23.333 -130 -38 -235 -44 -315h-72l1 131c0 27.333 -3.33301 49 -10 65c-37.333 27.333 -122.666 41 -255.999 41c-50 0 -111 -3.33301 -183 -10c-49.333 -285.333 -81.666 -479.333 -96.999 -582l188 -1c102 0 199 4.66699 291 14l7 -13l-26 -102l-349 5
c-50 0 -92.667 -1.66699 -128 -5l-45 -271c-17.333 -104 -26 -167.667 -26 -191c0 -28.667 9.33301 -48.334 28 -59.001s63 -16 133 -16h46l-12 -70l-392 8c-75.333 0 -164.666 -3.66699 -267.999 -11z" />
    <glyph glyph-name="G" unicode="G" horiz-adv-x="1593" 
d="M1316 94l-1 -6.99902c-25.333 -4.66699 -92 -22.667 -200 -54c-78 -22.667 -145.667 -38.334 -203 -47.001s-115 -13 -173 -13c-196.667 0 -346.667 48.667 -450 146s-155 234.333 -155 411c0 166 35.833 310.667 107.5 434s184.334 229.333 338.001 318
s306.167 133 457.5 133c86.667 0 168.334 -7.5 245.001 -22.5s136.667 -33.5 180 -55.5l8 -14l-24 -90c-26 -95.333 -43.333 -176 -52 -242h-71c1.33301 38 3 80.333 5 127l-1 71c-46.667 32.667 -99.334 57 -158.001 73s-123.334 24 -194.001 24
c-122 0 -222 -24.667 -300 -74s-139 -126.333 -183 -231c-56.667 -135.333 -85 -282.333 -85 -441c0 -157.333 35.5 -274.666 106.5 -351.999s171.833 -116 302.5 -116c86 0 164.667 15 236 45l39 165c19.333 84.667 29 144 29 178c0 18 -7.83301 31.5 -23.5 40.5
s-49.5 13.5 -101.5 13.5h-90l11 70c48 -2 166 -4 354 -6l257 6l-12 -70h-32c-31.333 0 -56.5 -6.83301 -75.5 -20.5s-31.833 -40.834 -38.5 -81.501l-17 -102l-33 -167z" />
    <glyph glyph-name="H" unicode="H" horiz-adv-x="1593" 
d="M-42 -10l11.001 69.002h61c55.333 0 90 9.83301 104 29.5s33 100.5 57 242.5l106 635c26 158.667 39 259 39 301c0 21.333 -6.33301 36.666 -19 45.999s-36 14 -70 14h-97l11 68l385 -7c36.667 0 122 2.33301 256 7l-11 -68h-74c-46.667 0 -76 -9.5 -88 -28.5
s-34.667 -120.5 -68 -304.5l-35 -209l75 1l325 -3l192 2l32 192c22.667 134 34 230.333 34 289c0 24.667 -10.167 41 -30.5 49s-70.166 12 -149.499 12l11 68c210 -6 337.667 -9 383 -9c86 0 171.333 3 256 9l-11 -68h-27c-64.667 0 -104.334 -5 -119.001 -15
c-10.667 -7.33301 -21 -28.333 -31 -63c-16 -55.333 -36.333 -158 -61 -308l-81 -482c-30.667 -184.667 -46 -296.334 -46 -335.001c0 -25.333 8.5 -41 25.5 -47s62.833 -12 137.5 -18h28l-12 -69c-113.333 6.66699 -226 10 -338 10c-110 0 -213.667 -3.33301 -311 -10
l11 69h32c74.667 0 118.667 9.33301 132 28c16.667 24 41 132 73 324l46 276l-44 1h-255l-256 -2l-37 1l-28 -169c-37.333 -227.333 -56 -359 -56 -395c0 -22.667 7.33301 -38 22 -46c22 -12 66 -18 132 -18h26l-11 -69c-144.667 6.66699 -238.334 10 -281.001 10z" />
    <glyph glyph-name="I" unicode="I" horiz-adv-x="797" 
d="M-21 -10l11 68.999h62c38 0 64 2.66699 78 8s24.333 11.833 31 19.5s13 22.167 19 43.5s19.333 92.333 40 213l86 501c38.667 232 58 372.667 58 422c0 21.333 -8.66699 36.833 -26 46.5s-56 14.5 -116 14.5h-53l11 68c184 -4.66699 293 -7 327 -7l331 7l-12 -68h-25
c-67.333 0 -108.333 -4.16699 -123 -12.5s-25.667 -23.166 -33 -44.499c-10.667 -30 -26 -105 -46 -225l-113 -680c-20.667 -122.667 -31 -202 -31 -238c0 -24 8.66699 -41.333 26 -52s54.333 -16 111 -16h60l-12 -69c-155.333 6.66699 -271.333 10 -348 10
c-92.667 0 -197 -3.33301 -313 -10z" />
    <glyph glyph-name="J" unicode="J" horiz-adv-x="797" 
d="M-60 -406l-6.00195 67.999c26.667 -8 50.667 -12 72 -12c50.667 0 88 29 112 87c17.333 42.667 43.333 168.667 78 378l135 811c30 180.667 45 295.667 45 345c0 19.333 -6.66699 32.333 -20 39c-25.333 11.333 -73.666 17 -144.999 17h-44l11 68
c144 -4.66699 273.333 -7 388 -7c106.667 0 199.334 2.33301 278.001 7l-12 -68h-35c-59.333 0 -95.833 -4.66699 -109.5 -14s-25 -32.166 -34 -68.499s-29.5 -140.5 -61.5 -312.5l-105 -635c-27.333 -162 -45 -258 -53 -288c-22.667 -90 -55.5 -168 -98.5 -234
s-92 -116.333 -147 -151s-108.167 -52 -159.5 -52c-34 0 -63.667 7.33301 -89 22z" />
    <glyph glyph-name="K" unicode="K" horiz-adv-x="1479" 
d="M-9 -10l11.0029 69h65c57.333 0 91.833 9.66699 103.5 29s32.5 118 62.5 296l90 541c31.333 188.667 47 301 47 337c0 25.333 -6.83301 42.5 -20.5 51.5s-47.167 13.5 -100.5 13.5h-68l11 68c87.333 -4 176 -6 266 -6c48 0 175 2 381 6l-11 -68h-42
c-70.667 0 -112.834 -9.5 -126.501 -28.5s-34.5 -114.833 -62.5 -287.5l-54 -323c57.333 35.333 150 115.333 278 240l101 97c118 114 201 200.333 249 259c18.667 23.333 27.667 48.666 27 75.999l6 35l216 -6c30 0 67.333 2 112 6l-3 -68l-51 -7
c-34.667 -4.66699 -62.5 -12 -83.5 -22s-51.5 -32 -91.5 -66c-101.333 -86.667 -186 -161.667 -254 -225l-254 -238l399 -551c60 -83.333 97.5 -130.666 112.5 -141.999s38.5 -17 70.5 -17h43l-12 -69c-20.667 0 -75.334 2.66699 -164.001 8l-73 2
c-41.333 0 -86.333 -3.33301 -135 -10l-82 126l-168 238c-110.667 151.333 -192.334 258.333 -245.001 321l-26 -160c-38.667 -229.333 -58 -357 -58 -383c0 -24 5.5 -39.833 16.5 -47.5s45.167 -14.167 102.5 -19.5l63 -6l-11 -69l-375 10
c-88.667 0 -176 -3.33301 -262 -10z" />
    <glyph glyph-name="L" unicode="L" horiz-adv-x="1251" 
d="M-7 -10l11 68.999h45c46 0 76.333 14.333 91 43c8.66699 15.333 36 153 82 413l63 383c14 82.667 25 161.334 33 236.001s12 120.667 12 138c0 20 -6.16699 34.167 -18.5 42.5s-36.833 12.5 -73.5 12.5h-96l11 68c180.667 -4 305.667 -6 375 -6c86 0 181.667 2 287 6
l-12 -68h-56c-58.667 0 -95.167 -5.5 -109.5 -16.5s-25.833 -37.5 -34.5 -79.5c-6.66699 -31.333 -26.334 -144.666 -59.001 -339.999l-131 -787c104 -6 184 -9 240 -9c160.667 0 263 10.333 307 31c20 9.33301 41.667 52.666 65 129.999l35 102h73
c-38 -167.333 -61.333 -290 -70 -368c-165.333 0 -300.666 1.33301 -405.999 4l-292 6c-166.667 0 -290.667 -3.33301 -372 -10z" />
    <glyph glyph-name="M" unicode="M" horiz-adv-x="1933" 
d="M-70 -9l10.998 68h37c47.333 0 78.666 13.5 93.999 40.5s54.333 161.833 117 404.5l139 540c29.333 113.333 44 182.333 44 207s-9.5 43.5 -28.5 56.5s-50.167 19.5 -93.5 19.5h-81l11 68c42 -2.66699 133.667 -4 275 -4c86.667 0 145.667 1.33301 177 4
c14.667 -62 45.334 -181 92.001 -357l180 -678l284 465l337 570c133.333 -2.66699 217.333 -4 252 -4c56.667 0 128.667 1.33301 216 4l-12 -68h-46c-52.667 0 -86.834 -10.167 -102.501 -30.5s-33.5 -90.833 -53.5 -211.5l-126 -761
c-17.333 -100.667 -26 -167.334 -26 -200.001c0 -24.667 7.16699 -41.667 21.5 -51s46.833 -14 97.5 -14h61l-11 -68l-334 9c-39.333 0 -137.666 -3 -294.999 -9l11 68h53c58 0 94.333 11.167 109 33.5s35.334 117.5 62.001 285.5l126 812l-326 -527
c-120 -194 -221.667 -367.667 -305 -521l-97 -177h-54l-145 553l-158 600l-199 -826c-18.667 -85.333 -28 -143.666 -28 -174.999c0 -19.333 7.16699 -33.833 21.5 -43.5s40.833 -14.5 79.5 -14.5h75l-11 -68c-137.333 6 -217.666 9 -240.999 9
c-45.333 0 -115.333 -3 -210 -9z" />
    <glyph glyph-name="N" unicode="N" horiz-adv-x="1593" 
d="M-35 -9l10.999 67.999h51c37.333 0 62.666 4 75.999 12s23.666 19.667 30.999 35c10.667 22 29 98.667 55 230l64 336l90 542c-28.667 48 -54 78.833 -76 92.5s-55.667 20.5 -101 20.5h-75l12 68c90 -4.66699 172 -7 246 -7c68 0 133 2.33301 195 7
c10.667 -17.333 37.334 -64 80.001 -140c26 -46 49 -85 69 -117l505 -849l62 370c59.333 356.667 89 560.334 89 611.001c0 19.333 -6.5 33.666 -19.5 42.999s-36.167 14 -69.5 14h-91l11 68c102 -4.66699 192.333 -7 271 -7c74.667 0 145.334 2.33301 212.001 7l-11 -68
h-70c-38.667 0 -64.5 -7.66699 -77.5 -23s-32.833 -86.666 -59.5 -213.999c-43.333 -206.667 -98 -509 -164 -907c-14.667 -86.667 -25 -153 -31 -199h-178l-166 290l-481 818l-64 -382c-55.333 -334.667 -83 -530.667 -83 -588c0 -22 6.16699 -38 18.5 -48
s34.833 -15 67.5 -15h90l-12 -68c-104 6 -188.667 9 -254 9c-69.333 0 -143.666 -3 -222.999 -9z" />
    <glyph glyph-name="O" unicode="O" horiz-adv-x="1706" 
d="M128 536c0 177.333 35.666 332.667 106.999 466s168.5 235.5 291.5 306.5s268.5 106.5 436.5 106.5c201.333 0 357.333 -51.667 468 -155s166 -244.333 166 -423c0 -156 -38.667 -302.5 -116 -439.5s-178.666 -242 -303.999 -315s-270 -109.5 -434 -109.5
c-196 0 -347.5 50.167 -454.5 150.5s-160.5 237.833 -160.5 412.5zM410.999 475.001c0 -93.333 14.666 -169.334 43.999 -228.001s73.833 -104.334 133.5 -137.001s129.167 -49 208.5 -49c98 0 181.5 26.667 250.5 80s130.667 151.833 185 295.5s81.5 299.834 81.5 468.501
c0 141.333 -32.833 247 -98.5 317s-159.167 105 -280.5 105c-105.333 0 -193.166 -26.5 -263.499 -79.5s-131.333 -149.167 -183 -288.5s-77.5 -300.666 -77.5 -483.999z" />
    <glyph glyph-name="P" unicode="P" horiz-adv-x="1366" 
d="M-17 -10l11.001 69h69c58.667 0 93.667 11 105 33c15.333 27.333 43 160.666 83 399.999l88 530c19.333 114.667 29 192 29 232c0 28 -7.66699 47.167 -23 57.5s-50 15.5 -104 15.5h-78l11 68l291 -6l465 10c149.333 0 254.5 -31.167 315.5 -93.5
s91.5 -145.166 91.5 -248.499c0 -133.333 -49.667 -247.333 -149 -342s-222.333 -142 -369 -142c-51.333 0 -115 13 -191 39l-7 71c62 -22 113.667 -33 155 -33c48 0 93.833 15.167 137.5 45.5s79.667 76.666 108 138.999s42.5 131.5 42.5 207.5
c0 88.667 -22.167 155.334 -66.5 200.001s-109.5 67 -195.5 67c-60.667 0 -113 -5 -157 -15l-69 -412l-81 -484c-24 -145.333 -36 -236.333 -36 -273c0 -22.667 7.33301 -38 22 -46c25.333 -13.333 69 -20 131 -20h58l-11 -69c-186.667 7.33301 -299.334 11 -338.001 11z
" />
    <glyph glyph-name="Q" unicode="Q" horiz-adv-x="1706" 
d="M134 526c0 270.667 76.833 486.501 230.5 647.501s354.5 241.5 602.5 241.5c201.333 0 357.5 -51.333 468.5 -154s166.5 -243.334 166.5 -422.001c0 -206.667 -64.333 -392 -193 -556c-162.667 -206.667 -381 -310 -655 -310c-132 0 -244.5 22.833 -337.5 68.5
s-163.333 109.167 -211 190.5s-71.5 179.333 -71.5 294zM417 463.001c0 -128.667 33.8311 -227.833 101.498 -297.5s159.834 -104.5 276.501 -104.5c102.667 0 188.5 26.333 257.5 79s130.833 151 185.5 295s82 302 82 474c0 140.667 -33 245.5 -99 314.5
s-160.333 103.5 -283 103.5c-103.333 0 -190.166 -26.833 -260.499 -80.5s-131.333 -151.167 -183 -292.5s-77.5 -305 -77.5 -491zM289.998 -326.998l-1 27c0 77.333 25.333 141.666 76 192.999s113.667 77 189 77c34.667 0 74.334 -6 119.001 -18s114 -38.333 208 -79
c182 -79.333 293.167 -127.166 333.5 -143.499s76.166 -24.5 107.499 -24.5c44.667 0 81 14.5 109 43.5s50.333 80.833 67 155.5l63 -21c-26.667 -118.667 -66.5 -206 -119.5 -262s-111.833 -84 -176.5 -84c-74 0 -166.667 31.667 -278 95l-223 124
c-114 63.333 -199 95 -255 95c-30.667 0 -57.5 -7.33301 -80.5 -22s-40.5 -34.5 -52.5 -59.5s-20.333 -67.167 -25 -126.5z" />
    <glyph glyph-name="R" unicode="R" horiz-adv-x="1479" 
d="M-35 -10l10.999 68.999h59c48 0 78.833 6.33301 92.5 19s28.834 62.334 45.501 149.001l65 397l85 510c10 58 15 101.667 15 131c0 21.333 -7.33301 37 -22 47s-43 15 -85 15h-82l11 68c71.333 -4 182.666 -6 333.999 -6l397 8c107.333 0 186.5 -11 237.5 -33
s91.667 -56 122 -102s45.5 -99 45.5 -159c0 -92.667 -33 -172.167 -99 -238.5s-172.667 -113.5 -320 -141.5l140 -228l133 -224c61.333 -104 102 -165.333 122 -184s48.333 -28 85 -28h35l-12 -69c-77.333 6.66699 -145.333 10 -204 10
c-54.667 0 -109.667 -3.33301 -165 -10l-32 60c-30 58.667 -59.667 113.334 -89 164.001l-136 235c-42.667 73.333 -99.667 164.666 -171 273.999l5 33l73 -2c107.333 0 194.5 27.5 261.5 82.5s100.5 137.5 100.5 247.5c0 75.333 -20.333 131.333 -61 168s-107 55 -199 55
c-36.667 0 -87.667 -5.33301 -153 -16l-63 -378l-95 -568c-19.333 -116 -29 -189.667 -29 -221c0 -23.333 8.16699 -40 24.5 -50s52.833 -15 109.5 -15h56l-11 -69l-339 11c-45.333 0 -144.666 -3.66699 -297.999 -11z" />
    <glyph glyph-name="S" unicode="S" 
d="M63 75c20 92 37.333 195.336 52 310.003h66l-3 -110l1 -64c30.667 -36.667 74.834 -67.334 132.501 -92.001s118.5 -37 182.5 -37c96.667 0 171 25.5 223 76.5s78 120.167 78 207.5c0 59.333 -15 103.666 -45 132.999c-30.667 28.667 -98.334 54.667 -203.001 78
c-155.333 34.667 -255 79 -299 133c-44 53.333 -66 124.666 -66 213.999c0 132.667 53 247.667 159 345s237 146 393 146c59.333 0 115.166 -7 167.499 -21s100.833 -35 145.5 -63c-25.333 -112.667 -42 -213 -50 -301h-69l3 106l-1 58
c-24.667 33.333 -60.5 60.5 -107.5 81.5s-100.833 31.5 -161.5 31.5c-89.333 0 -159 -23.833 -209 -71.5s-75 -112.834 -75 -195.501c0 -46.667 10.333 -86.667 31 -120s49.667 -56.666 87 -69.999c55.333 -19.333 119.666 -37 192.999 -53
c139.333 -31.333 228 -71 266 -119s57 -111.667 57 -191c0 -132 -57.167 -250.667 -171.5 -356s-252.166 -158 -413.499 -158c-72 0 -138.167 8.5 -198.5 25.5s-115.166 42.5 -164.499 76.5z" />
    <glyph glyph-name="T" unicode="T" horiz-adv-x="1251" 
d="M188 -10l11.001 69.0029h83c43.333 0 71.166 4.33301 83.499 13s21.666 24.667 27.999 48s21.833 104 46.5 242l154 924h-102c-126.667 0 -210 -8 -250 -24c-29.333 -12 -51 -60 -65 -144l-13 -80h-78c21.333 117.333 38 235.666 50 354.999l11 9l421 -9h284
c222 0 381.333 3 478 9l15 -9l-20 -104c-19.333 -102.667 -32.333 -186.334 -39 -251.001h-76c5.33301 69.333 8 123.333 8 162c0 38 -8.83301 61.833 -26.5 71.5s-73.5 14.5 -167.5 14.5h-170l-164 -986c-14.667 -88.667 -22 -148.334 -22 -179.001
c0 -22 7.16699 -37.833 21.5 -47.5s44.833 -14.5 91.5 -14.5h84l-11 -69c-149.333 6.66699 -269.666 10 -360.999 10c-99.333 0 -201 -3.33301 -305 -10z" />
    <glyph glyph-name="U" unicode="U" horiz-adv-x="1593" 
d="M1469 59l-11.001 -69.001c-73.333 6.66699 -170 10 -290 10c-50.667 0 -105.667 -2.33301 -165 -7l-14 12c2 12 7.66699 37 17 75c15.333 64.667 26.333 124.334 33 179.001c-102.667 -108 -199 -186.667 -289 -236c-60.667 -33.333 -130.667 -50 -210 -50
c-110 0 -198.333 31.333 -265 94s-100 141 -100 235c0 44 6 102.333 18 175l53 315c45.333 274.667 68 432.667 68 474c0 22 -6.5 37.667 -19.5 47s-39.5 14 -79.5 14h-83l12 68l312 -4c56.667 0 107 1.33301 151 4l11 -14c-32 -135.333 -59.667 -272.666 -83 -411.999
l-60 -362c-25.333 -152.667 -38 -244.667 -38 -276c0 -56 20 -101.667 60 -137s94.333 -53 163 -53c46 0 94.333 10.667 145 32s101.167 54.666 151.5 99.999s79 76 86 92s21.833 93 44.5 231l72 431c21.333 128.667 32 210.667 32 246c0 18 -7.66699 31.5 -23 40.5
s-46.666 13.5 -93.999 13.5h-76l12 68c114.667 -4.66699 206.667 -7 276 -7l369 7l-11 -68h-55c-58.667 0 -94 -10.667 -106 -32c-17.333 -30 -43.333 -148 -78 -354l-79 -477c-30.667 -181.333 -46 -292 -46 -332c0 -24.667 9.5 -43 28.5 -55s53.833 -18 104.5 -18h56z" />
    <glyph glyph-name="V" unicode="V" horiz-adv-x="1366" 
d="M514 -10c-14 96.667 -40.332 262.001 -78.999 496.001c-20 120 -48.333 280.5 -85 481.5s-57.334 307.5 -62.001 319.5s-13 21.667 -25 29s-33.667 11 -65 11h-70v68c92.667 -4.66699 186 -7 280 -7c106.667 0 215.667 2.33301 327 7v-68h-75
c-32.667 0 -55.167 -4.66699 -67.5 -14s-18.5 -26 -18.5 -50c0 -38 8.33301 -108.333 25 -211l61 -368c30 -182.667 53.333 -317.334 70 -404.001l228 426c104.667 194 189 363.667 253 509c16.667 37.333 25 60 25 68c0 14.667 -5.5 25.667 -16.5 33s-35.5 11 -73.5 11h-84
l11 68c86 -4 161.667 -6 227 -6c63.333 0 138 2 224 6l-11 -68h-36c-28.667 0 -51 -7 -67 -21c-10 -10 -35.333 -51.667 -76 -125l-495 -901l-157 -290h-168z" />
    <glyph glyph-name="W" unicode="W" horiz-adv-x="2048" 
d="M409 -10l-85.0029 843c-12.667 121.333 -29 249.333 -49 384c-7.33301 50 -17.666 80.833 -30.999 92.5s-42 17.5 -86 17.5h-53l11 68c116 -3.33301 219.333 -5 310 -5s186 1.66699 286 5l-1 -68h-52c-50 0 -81.667 -5 -95 -15s-20 -30 -20 -60
c0 -44 16.667 -233.333 50 -568l37 -376l304 633l225 476h65c6.66699 -17.333 23.334 -74.333 50.001 -171l86 -320l177 -646l266 699c26.667 70 51 145.333 73 226c9.33301 34.667 14 58.667 14 72c0 16.667 -7.5 29.167 -22.5 37.5s-45.167 12.5 -90.5 12.5h-65l11 68
c134 -4 219.667 -6 257 -6c56 0 120.667 2 194 6l-12 -68h-25c-42.667 0 -70.667 -10.167 -84 -30.5s-75 -168.5 -185 -444.5l-223 -554c-53.333 -133.333 -92.666 -236 -117.999 -308h-173c-16 68 -37 148.667 -63 242l-216 778l-498 -1020h-169z" />
    <glyph glyph-name="X" unicode="X" horiz-adv-x="1479" 
d="M-59 -10l11.001 69.0029h51c51.333 0 89.333 11.333 114 34l234 258l189 204l99 106l-207 395c-75.333 143.333 -122.833 224.333 -142.5 243s-54.167 28 -103.5 28h-74l12 68c89.333 -4 203.333 -6 342 -6c128.667 0 233 2 313 6v-68h-46
c-47.333 0 -78.5 -3.5 -93.5 -10.5s-22.5 -16.833 -22.5 -29.5s3.33301 -27.334 10 -44.001c12.667 -30.667 37.667 -82 75 -154l123 -236l159 182c126.667 145.333 190 229 190 251c0 11.333 -6.66699 21 -20 29s-38 12 -74 12h-79l4 68
c88.667 -4.66699 177.334 -7 266.001 -7c90 0 180.667 2.33301 272 7l-11 -68h-35c-51.333 0 -90.333 -10.333 -117 -31c-42.667 -32 -145.334 -136 -308.001 -312l-199 -215l193 -374c100 -194 157 -298.5 171 -313.5s49.333 -22.5 106 -22.5h41l-11 -69
c-106.667 6.66699 -208.334 10 -305.001 10s-204.667 -3.33301 -324 -10l3 69h83c33.333 0 55.5 4 66.5 12s16.5 19.667 16.5 35c0 20.667 -17 63.667 -51 129l-175 339l-134 -153c-29.333 -30 -81.333 -90.667 -156 -182c-42.667 -52 -67.334 -84.833 -74.001 -98.5
s-10 -23.834 -10 -30.501c0 -16.667 7 -29.334 21 -38.001s43.333 -13 88 -13h71l-3 -69c-103.333 6.66699 -198 10 -284 10c-87.333 0 -175.666 -3.33301 -264.999 -10z" />
    <glyph glyph-name="Y" unicode="Y" horiz-adv-x="1251" 
d="M226 -10l11.998 70.9961h80c40 0 68 4.5 84 13.5s27 22.833 33 41.5c11.333 56.667 20 103.334 26 140.001c23.333 141.333 35 224 35 248c0 54 -33.667 184.667 -101 392c-48.667 151.333 -95.667 251.333 -141 300c-25.333 27.333 -54.666 41 -87.999 41
c-25.333 0 -63.333 -11.333 -114 -34v67c36 24.667 66.667 47.667 92 69l90 75c18.667 3.33301 37 5 55 5c54 0 102.333 -15.667 145 -47s80.667 -87 114 -167c47.333 -113.333 89.333 -255.666 126 -426.999l36 -162c78 187.333 162.167 346.5 252.5 477.5
s167.5 218.167 231.5 261.5c43.333 30 87.666 45.333 132.999 46l-10 -186c-51.333 -9.33301 -100.666 -32.666 -147.999 -69.999c-70 -56 -139.5 -138.333 -208.5 -247s-122.5 -210.667 -160.5 -306c-25.333 -61.333 -48.666 -157 -69.999 -287l-15 -86
c-6.66699 -41.333 -10 -71.666 -10 -90.999c0 -24 8.33301 -41.167 25 -51.5s51.667 -15.5 105 -15.5h79l-12 -71c-94 7.33301 -180 11 -258 11c-106.667 0 -246 -3.66699 -418 -11z" />
    <glyph glyph-name="Z" unicode="Z" horiz-adv-x="1366" 
d="M8 -5l-4.00098 58.999c47.333 46 161 182.333 341 409l653 823h-258c-220.667 0 -353.334 -8.33301 -398.001 -25c-19.333 -7.33301 -47 -79.333 -83 -216h-77l20 98c18.667 96.667 31.334 178.334 38.001 245.001l11 9l604 -9h516v-56c-55.333 -58 -197 -231 -425 -519
l-558 -706l315 -3c203.333 0 348.333 11.667 435 35c36.667 64 66.334 141.333 89.001 232h75c-30 -123.333 -55.667 -247 -77 -371l-9 -5c-161.333 3.33301 -332 5 -512 5h-490z" />
    <glyph glyph-name="bracketleft" unicode="[" horiz-adv-x="682" 
d="M-15 -252l-12.999 13l55 311c18 104.667 37.667 230 59 376l57 389l37 289l42 344l13 14c54.667 -4 139.667 -6 255 -6c87.333 0 152.333 3 195 9l-9 -74h-99c-44.667 0 -78.334 -3 -101.001 -9c-12 -3.33301 -21.167 -8.83301 -27.5 -16.5s-14.5 -40.834 -24.5 -99.501
c-16 -87.333 -35.333 -201.666 -58 -342.999l-43 -286l-47 -343c-32 -229.333 -48 -374.333 -48 -435c0 -22 7.66699 -37 23 -45c24 -12 70 -18 138 -18h77l-11 -72c-46 6 -107 9 -183 9c-156 0 -251.667 -2.33301 -287 -7z" />
    <glyph glyph-name="backslash" unicode="\" horiz-adv-x="1241" 
d="M973 -257l-125 2.00098c-14.667 0 -52.667 -1.33301 -114 -4c-11.333 71.333 -27.666 145.333 -48.999 222l-339 1252c-27.333 99.333 -56 187.666 -86 264.999l115 -1c17.333 0 58.666 2.66699 123.999 8c6 -58 22.333 -134.333 49 -229l339 -1247
c25.333 -90.667 54 -180 86 -268z" />
    <glyph glyph-name="bracketright" unicode="]" horiz-adv-x="682" 
d="M-7 -253l8.99902 74l87 -3c54.667 -2 96.667 2.33301 126 13c5.33301 2 10.5 6 15.5 12s10.5 22.333 16.5 49c8.66699 38 26.334 146 53.001 324l101 705c30.667 222.667 46 363 46 421c0 29.333 -9.66699 49 -29 59s-66.333 14.333 -141 13l-69 -2l11 74
c60 -3.33301 141.667 -5 245 -5c96.667 0 171.667 1.66699 225 5l15 -14c-12.667 -54.667 -32.667 -164.334 -60 -329.001l-110 -746c-9.33301 -67.333 -26.333 -197.666 -51 -390.999l-28 -247l-11 -11l-223 4z" />
    <glyph glyph-name="asciicircum" unicode="^" horiz-adv-x="1241" 
d="M360 573h-219l405 816h209l406 -816h-219l-291 565z" />
    <glyph glyph-name="underscore" unicode="_" horiz-adv-x="1024" 
d="M-12 -154h1048v-102h-1048v102z" />
    <glyph glyph-name="grave" unicode="`" horiz-adv-x="682" 
d="M681 1061l-81.001 0.000976562l-247 175c-40 28 -64.667 48.667 -74 62s-14 28.666 -14 45.999c0 22.667 7.83301 41.5 23.5 56.5s35.834 22.5 60.501 22.5c22 0 41.333 -5.5 58 -16.5s41.667 -38.5 75 -82.5z" />
    <glyph glyph-name="a" unicode="a" 
d="M1032 239l20.9961 -64.999c-166 -134 -282.333 -201 -349 -201c-22 0 -38.333 7 -49 21c-15.333 19.333 -23 43.333 -23 72c0 40 23.333 152.667 70 338l18 71c-81.333 -128 -137.666 -211 -168.999 -249c-52 -64 -101.167 -114.667 -147.5 -152
s-92.5 -65.333 -138.5 -84c-27.333 -11.333 -50.666 -17 -69.999 -17c-36 0 -64.333 13.667 -85 41s-31 73 -31 137c0 76.667 14.5 168.667 43.5 276s59.833 190.333 92.5 249c17.333 30.667 54 68 110 112c106.667 84 181.834 135.667 225.501 155s91.167 29 142.5 29
c36.667 0 73 -4.16699 109 -12.5s71.333 -20.833 106 -37.5l93 51l33 -21c-5.33301 -12.667 -12.333 -33.334 -21 -62.001l-38 -134l-113 -481c-10 -42 -15 -74.333 -15 -97c0 -23.333 8 -35 24 -35c28.667 0 82.334 32 161.001 96zM769.996 820.001
c-30 14.667 -58.833 25.666 -86.5 32.999s-54.5 11 -80.5 11c-46 0 -85.167 -15.5 -117.5 -46.5s-67.5 -109.167 -105.5 -234.5c-50.667 -166 -76 -290 -76 -372c0 -23.333 4 -40.833 12 -52.5s17.333 -17.5 28 -17.5c10 0 23.667 5.66699 41 17
c44.667 30 96.667 82.833 156 158.5s108.333 154.334 147 236.001s63 154.167 73 217.5z" />
    <glyph glyph-name="b" unicode="b" horiz-adv-x="1100" 
d="M128 1341l13.9961 59.998c192.667 28 328 58.667 406 92l23 -19c-5.33301 -21.333 -18.666 -80.666 -39.999 -177.999l-142 -650c60.667 82 118.334 145.5 173.001 190.5s111.334 78.833 170.001 101.5s112.334 34 161.001 34c42 0 74 -16 96 -48
c29.333 -43.333 44 -106.666 44 -189.999c0 -130.667 -28 -256 -84 -376c-44.667 -95.333 -114.667 -176.333 -210 -243c-134.667 -94.667 -261 -142 -379 -142c-85.333 0 -149 19.333 -191 58c-41.333 36 -62 91.333 -62 166c0 36.667 8.66699 103.667 26 201l82 443
c50.667 271.333 76 423 76 455c0 16 -5.83301 27.5 -17.5 34.5s-35.5 10.5 -71.5 10.5h-74zM331.996 239.998c0 -54.667 13.332 -96.333 39.999 -125s61.334 -43 104.001 -43c40.667 0 80.667 17.667 120 53c52.667 47.333 98.834 126 138.501 236s59.5 214.333 59.5 313
c0 55.333 -7.83301 95.166 -23.5 119.499s-34.5 36.5 -56.5 36.5c-42.667 0 -95.834 -25.833 -159.501 -77.5s-116.667 -125.167 -159 -220.5s-63.5 -192.666 -63.5 -291.999z" />
    <glyph glyph-name="c" unicode="c" horiz-adv-x="909" 
d="M817 255l22.998 -64.999c-135.333 -90.667 -237.166 -149.5 -305.499 -176.5s-130.166 -40.5 -185.499 -40.5c-84 0 -149.667 24.167 -197 72.5s-71 116.5 -71 204.5c0 79.333 12.5 163 37.5 251s53.333 154.667 85 200s80.5 88 146.5 128l176 105
c52.667 25.333 110.334 38 173.001 38c31.333 0 65.166 -4.16699 101.499 -12.5s75.166 -21.166 116.499 -38.499c-28 -69.333 -52.333 -165.333 -73 -288h-69c7.33301 50.667 11 85.667 11 105l-2 32c-28 24.667 -57.667 43.167 -89 55.5s-64.333 18.5 -99 18.5
c-51.333 0 -92 -13 -122 -39c-41.333 -36.667 -73.333 -94.334 -96 -173.001c-38 -132.667 -57 -244.667 -57 -336c0 -61.333 14.167 -109 42.5 -143s65.5 -51 111.5 -51c44.667 0 98.834 13.667 162.501 41s123.5 64.666 179.5 111.999z" />
    <glyph glyph-name="d" unicode="d" 
d="M1061 237l18 -60.0049l-183 -134c-44 -28.667 -81.333 -48.334 -112 -59.001c-20 -7.33301 -38.333 -11 -55 -11c-23.333 0 -42.666 9 -57.999 27s-23 42.333 -23 73c0 18 1.66699 36 5 54c15.333 76.667 30.333 142.334 45 197.001l44 161
c-84.667 -160.667 -188 -292 -310 -394c-93.333 -78.667 -169 -118 -227 -118c-36.667 0 -66.834 16.667 -90.501 50s-35.5 87.333 -35.5 162c0 76.667 12.667 163.334 38 260.001s58 180.334 98 251.001c22.667 40.667 51 73.334 85 98.001
c102 74.667 184 125.334 246 152.001c44 19.333 92 29 144 29c34 0 77.333 -7.33301 130 -22l34 218c11.333 72 17 113 17 123c0 16 -6.33301 28 -19 36s-38 12 -76 12c-22 0 -48.333 -0.333008 -79 -1l12 60c122.667 2.66699 262.667 33.334 420 92.001l27 -19
c-22.667 -84 -47 -187 -73 -309l-172 -820c-16 -76 -24 -132 -24 -168c0 -22.667 7.33301 -34 22 -34c18 0 68.667 31.333 152 94zM794 832.995c-50 29.333 -107.333 44 -172 44c-58 0 -98.667 -11.333 -122 -34c-33.333 -32 -72 -119.5 -116 -262.5s-66 -268.5 -66 -376.5
c0 -22 3.83301 -38 11.5 -48s17.5 -15 29.5 -15c14 0 32.667 7.33301 56 22c40 24 83.333 65.333 130 124c62 77.333 112 155 150 233s64.667 153 80 225z" />
    <glyph glyph-name="e" unicode="e" horiz-adv-x="909" 
d="M795 242l21.9971 -55.001l-170 -108c-70.667 -39.333 -130.5 -66.833 -179.5 -82.5s-93.5 -23.5 -133.5 -23.5c-81.333 0 -144.166 21.333 -188.499 64s-66.5 104 -66.5 184c0 93.333 19.667 202 59 326c28 88 65.833 157.667 113.5 209s128.834 106.666 243.501 165.999
c64.667 33.333 130 50 196 50c60.667 0 108.334 -15.167 143.001 -45.5s52 -70.166 52 -119.499c0 -60 -17.167 -115.5 -51.5 -166.5s-95.5 -97.667 -183.5 -140s-196.667 -73.833 -326 -94.5c-14 -48 -21 -93.333 -21 -136c0 -53.333 13.5 -93.166 40.5 -119.499
s65.5 -39.5 115.5 -39.5c38 0 86.833 11 146.5 33s122.5 54.667 188.5 98zM332.997 460.999c103.333 28 175.333 55 216 81s74.5 62.833 101.5 110.5s40.5 90.167 40.5 127.5c0 28.667 -8.83301 51.667 -26.5 69s-41.5 26 -71.5 26c-32.667 0 -64 -10.667 -94 -32
s-57.667 -58.833 -83 -112.5s-53 -143.5 -83 -269.5z" />
    <glyph glyph-name="f" unicode="f" horiz-adv-x="682" 
d="M51 828l10 51.999c24.667 8.66699 58.667 19 102 31c44 12.667 79.667 25 107 37l13 54c16 70 36.5 123.167 61.5 159.5s82.667 91 173 164s160.833 122.5 211.5 148.5c28 14 63 21 105 21c35.333 0 64.666 -5.33301 87.999 -16c-29.333 -94 -49.333 -179.667 -60 -257
l-30 -7c-51.333 82.667 -102 124 -152 124c-26.667 0 -50.167 -10.667 -70.5 -32s-38.166 -64.666 -53.499 -129.999c-30 -125.333 -48.333 -207 -55 -245h26c25.333 0 74.333 2.33301 147 7c36 2.66699 63.667 5.66699 83 9l10 -16c-16.667 -44 -27.667 -78.667 -33 -104
l-122 2l-134 -2l-70 -299c-80.667 -341.333 -149.834 -575 -207.501 -701s-140.5 -231.667 -248.5 -317c-69.333 -54 -129.333 -81 -180 -81c-23.333 0 -48.666 6 -75.999 18c38.667 101.333 61.667 175 69 221l32 6c24.667 -58 59 -87 103 -87c16 0 31.5 4.5 46.5 13.5
s28.167 24 39.5 45s27.333 74.167 48 159.5l54 250l156 772l-96 2z" />
    <glyph glyph-name="g" unicode="g" horiz-adv-x="1024" 
d="M289 27c-35.333 32 -53.0029 64.6641 -53.0029 97.9971c0 26.667 10.333 46.667 31 60l79 46c35.333 20.667 63.333 39.334 84 56.001l-43 -2c-52.667 0 -104 12.333 -154 37c-37.333 18 -66.333 44.667 -87 80s-31 80 -31 134c0 67.333 15.167 130 45.5 188
s65.333 100.667 105 128s110.167 59.333 211.5 96c46 16 89 24 129 24c56 0 103.333 -8.33301 142 -25c23.333 -10 44.333 -16.5 63 -19.5s43.334 -4.5 74.001 -4.5l198 7l10 -16l-24 -105c-39.333 7.33301 -90 11 -152 11l-26 -2c14 -36 21 -73 21 -111
c0 -54.667 -12.167 -109.667 -36.5 -165s-53.666 -97.666 -87.999 -126.999s-94.166 -60.666 -179.499 -93.999c-60 -22.667 -99.5 -42.5 -118.5 -59.5s-28.5 -32.5 -28.5 -46.5c0 -12.667 5 -24.667 15 -36c14 -16.667 40.667 -39 80 -67l133 -96
c58 -41.333 98 -79.5 120 -114.5s33 -74.167 33 -117.5c0 -93.333 -41.667 -171 -125 -233c-103.333 -76 -237 -114 -401 -114c-144.667 0 -251.834 24.667 -321.501 74s-104.5 110 -104.5 182c0 46 16.833 92.167 50.5 138.5s82.167 85.5 145.5 117.5
c30.667 15.333 98.334 41.333 203.001 78zM319.997 541.997c0 -64 13.5 -110.997 40.5 -140.997s65.5 -45 115.5 -45c39.333 0 74.666 12.167 105.999 36.5s58.333 65.666 81 123.999s34 121.166 34 188.499c0 61.333 -13.667 106.666 -41 135.999s-65.666 44 -114.999 44
c-70 0 -124.333 -35.667 -163 -107s-58 -150 -58 -236zM332.997 -11l-101.002 -45.9961c-39.333 -21.333 -70.666 -42.333 -93.999 -63s-41.166 -44.5 -53.499 -71.5s-18.5 -55.833 -18.5 -86.5c0 -58.667 25.5 -107.834 76.5 -147.501s120.833 -59.5 209.5 -59.5
c86.667 0 154.167 19.167 202.5 57.5s72.5 84.166 72.5 137.499c0 29.333 -10.5 57.166 -31.5 83.499s-78.167 71.166 -171.5 134.499z" />
    <glyph glyph-name="h" unicode="h" 
d="M81 -27l-19.9971 17.002c39.333 126.667 75.666 267.667 108.999 423l30 142c26 120.667 65.667 323.667 119 609c12 65.333 18 105.666 18 120.999c0 21.333 -7 36 -21 44s-45.667 12 -95 12h-53l10 60c60 4 128.333 14.667 205 32s145.334 37.333 206.001 60l21 -18
c-32.667 -124 -66 -261.667 -100 -413l-122 -547c105.333 156 211.666 271.167 318.999 345.5s193 111.5 257 111.5c28.667 0 49.667 -6.83301 63 -20.5s20 -35.834 20 -66.501c0 -25.333 -3.33301 -54.666 -10 -87.999c-3.33301 -15.333 -22 -83.666 -56 -204.999l-39 -140
c-42 -151.333 -63 -237.666 -63 -258.999c0 -12.667 3.83301 -23.334 11.5 -32.001s16.5 -13 26.5 -13c9.33301 0 22.333 5 39 15c50.667 28.667 87 52.667 109 72l23 -55c-186.667 -138 -308.667 -207 -366 -207c-26.667 0 -46.667 8.16699 -60 24.5s-20 41.833 -20 76.5
c0 32 5.33301 70.667 16 116l68 252l26 92c10.667 40.667 24 101.667 40 183c2.66699 15.333 4 25.666 4 30.999c0 11.333 -3.5 20.5 -10.5 27.5s-16.167 10.5 -27.5 10.5c-34 0 -77.667 -22.667 -131 -68c-82.667 -70 -153.834 -165.833 -213.501 -287.5
s-99.834 -261.5 -120.501 -419.5c-63.333 -4.66699 -134 -17.334 -212 -38.001z" />
    <glyph glyph-name="i" unicode="i" horiz-adv-x="682" 
d="M405 1270c0 50.667 13.3311 90.666 39.998 119.999s60.667 44 102 44c32.667 0 59.167 -10.167 79.5 -30.5s30.5 -47.166 30.5 -80.499c0 -46.667 -13.167 -85 -39.5 -115s-60.166 -45 -101.499 -45c-33.333 0 -60.166 10.167 -80.499 30.5s-30.5 45.833 -30.5 76.5z
M85.998 667.999l-23.999 54.001c161.333 117.333 263.666 187 306.999 209c56 28 98 42 126 42c18 0 33 -6.83301 45 -20.5s18 -32.834 18 -57.501c0 -47.333 -21.667 -144.666 -65 -291.999l-32 -108c-50 -166.667 -75 -272 -75 -316c0 -22.667 9.33301 -34 28 -34
c17.333 0 74.333 32 171 96l27 -53l-207 -138c-55.333 -34.667 -97 -56.667 -125 -66c-19.333 -7.33301 -37.333 -11 -54 -11c-25.333 0 -44.833 8.5 -58.5 25.5s-20.5 44.5 -20.5 82.5c0 50 10.667 114 32 192l67 238c33.333 119.333 50 197 50 233
c0 17.333 -7.66699 26 -23 26c-10.667 0 -26.667 -5.33301 -48 -16c-52 -26.667 -98.333 -55.334 -139 -86.001z" />
    <glyph glyph-name="j" unicode="j" horiz-adv-x="682" 
d="M421 1270c0 51.333 13.167 91.5 39.5 120.5s59.833 43.5 100.5 43.5c33.333 0 60 -10.167 80 -30.5s30 -47.5 30 -81.5c0 -47.333 -13.167 -86 -39.5 -116s-59.833 -45 -100.5 -45c-33.333 0 -60 10.333 -80 31s-30 46.667 -30 78zM-155 -562c16 54 27 108 33 162l29 6
l8 -12c28 -40.667 56.667 -61 86 -61c27.333 0 48 15.333 62 46c21.333 47.333 63 220.666 125 519.999l86 414c24 118.667 36 193.334 36 224.001c0 24 -7.66699 36 -23 36c-9.33301 0 -26 -6.33301 -50 -19c-44.667 -23.333 -92.334 -54 -143.001 -92l-26 55
c168.667 121.333 278.334 194.333 329.001 219s91 37 121 37c16.667 0 29.834 -6.33301 39.501 -19s14.5 -31.667 14.5 -57c0 -33.333 -9.33301 -89 -28 -167l-79 -335l-69 -270c-40.667 -157.333 -76.5 -272.333 -107.5 -345s-74.667 -141.667 -131 -207
s-100.333 -106.333 -132 -123s-63.834 -25 -96.501 -25c-20.667 0 -48.667 4.33301 -84 13z" />
    <glyph glyph-name="k" unicode="k" 
d="M92 -27l-15.9971 27.002c50 164 101 373.667 153 629l42 205c50.667 248 76 402 76 462c0 17.333 -7 29.166 -21 35.499s-50 9.5 -108 9.5h-42l18 60c68.667 5.33301 141.5 16.666 218.5 33.999s142.167 36.666 195.5 57.999l23 -21l-136 -599l-93 -413l78 91
c147.333 174 267.333 291.667 360 353c68.667 45.333 138.667 68 210 68c18 0 37.333 -1.33301 58 -4v-11l-27 -96c-6 -22 -10 -40.333 -12 -55l-11 -8c-40 18 -72 27 -96 27c-44 0 -92.833 -14.167 -146.5 -42.5s-104.167 -70.166 -151.5 -125.499
c14 -44 44.833 -130.667 92.5 -260s86.5 -211 116.5 -245c12.667 -14 25.667 -21 39 -21c31.333 0 82.333 25.333 153 76l21 -59l-178 -111c-50 -28 -90.333 -47 -121 -57c-14 -4.66699 -26.667 -7 -38 -7c-22 0 -41.667 10.667 -59 32
c-24.667 29.333 -56.334 95 -95.001 197l-39 103l-61 174l-49 -52c-39.333 -42.667 -65 -89 -77 -139c-26.667 -109.333 -42.334 -201.333 -47.001 -276c-64.667 -2 -141.334 -15 -230.001 -39z" />
    <glyph glyph-name="l" unicode="l" horiz-adv-x="682" 
d="M591 243l30 -53.999l-179 -122c-71.333 -43.333 -120.333 -69.833 -147 -79.5s-48.667 -14.5 -66 -14.5c-20.667 0 -37.667 9.33301 -51 28s-20 47.667 -20 87c0 58.667 11.667 136 35 232l129 536c20.667 83.333 42.667 186.666 66 309.999
c12 75.333 18 119.666 18 132.999s-6 23 -18 29c-16.667 8.66699 -48 13 -94 13h-58l9 60c144 16 282 46.667 414 92l24 -22l-71 -290l-143 -608c-47.333 -203.333 -71 -329.666 -71 -378.999c0 -16.667 2.5 -28.667 7.5 -36s11.5 -11 19.5 -11c10 0 24.667 5.66699 44 17
c50 26.667 90.667 53 122 79z" />
    <glyph glyph-name="m" unicode="m" horiz-adv-x="1706" 
d="M100 -27l-19.998 27l24 77c14.667 44.667 33.334 109.667 56.001 195c32 118 57.667 230.667 77 338c10.667 60 16 99.667 16 119c0 20 -2.66699 35.333 -8 46c-4 6 -9.66699 9 -17 9c-25.333 0 -77.333 -33.667 -156 -101l-30 51c114 87.333 186.333 141.333 217 162
c46 31.333 85 52.666 117 63.999c22.667 8.66699 41 13 55 13c18 0 32.667 -5.66699 44 -17s17 -26.333 17 -45s-4 -47 -12 -85c-20.667 -98.667 -35.667 -162.667 -45 -192l-41 -178c86.667 150 178 267.333 274 352c124 109.333 222.667 164 296 164
c22 0 39.667 -7 53 -21s20 -34 20 -60c0 -26.667 -6.33301 -68.334 -19 -125.001l-85 -310c64 119.333 132.667 216.833 206 292.5s145.166 131.834 215.499 168.501s127.5 55 171.5 55c23.333 0 41.5 -8.16699 54.5 -24.5s19.5 -42.5 19.5 -78.5
c0 -34.667 -15.667 -109.667 -47 -225l-42 -151c-14 -49.333 -30 -123 -48 -221c-10 -55.333 -15 -88.333 -15 -99c0 -24 7.66699 -36 23 -36c8.66699 0 19.667 4.33301 33 13c50 30 90.667 58 122 84l27 -50l-171 -122c-52.667 -34 -96.167 -57.333 -130.5 -70
s-60.5 -19 -78.5 -19c-22 0 -40.167 7.83301 -54.5 23.5s-21.5 38.167 -21.5 67.5c0 25.333 6.33301 65.333 19 120l114 436c12.667 54.667 19 91.334 19 110.001c0 15.333 -3 26.833 -9 34.5s-14 11.5 -24 11.5c-14.667 0 -31.334 -5 -50.001 -15
c-38 -20 -82 -56.833 -132 -110.5s-93.333 -113.167 -130 -178.5s-69.5 -146.666 -98.5 -243.999s-45.5 -173.333 -49.5 -228c-45.333 0 -116.333 -9 -213 -27l-24 27c15.333 38.667 46.666 135 93.999 289c22.667 69.333 46.667 167 72 293c18 90 27 149 27 177
c0 15.333 -3.33301 27 -10 35s-15.667 12 -27 12c-23.333 0 -54.333 -15.333 -93 -46c-60 -48 -125.333 -129.667 -196 -245c-52 -84.667 -91.333 -176.834 -118 -276.501s-42 -176.167 -46 -229.5c-61.333 0 -135.333 -12 -222 -36z" />
    <glyph glyph-name="n" unicode="n" 
d="M91 -27l-25.0068 26.001c14 36 25.667 69 35 99l67 229c22.667 80.667 41.5 164.167 56.5 250.5s22.5 142.5 22.5 168.5c0 20 -7.66699 30 -23 30c-8.66699 0 -23 -5.33301 -43 -16c-40.667 -21.333 -76.667 -44.666 -108 -69.999l-26 54l151 114
c66.667 47.333 121.334 80.333 164.001 99c24 10 46.667 15 68 15c18.667 0 32.834 -4.83301 42.501 -14.5s14.5 -25.167 14.5 -46.5c0 -18.667 -2.66699 -42.334 -8 -71.001c-14.667 -76 -30.667 -146 -48 -210l-41 -150c52.667 86 88 140 106 162
c54.667 67.333 113.834 128.166 177.501 182.499s123.834 94.5 180.501 120.5c39.333 18 74 27 104 27c28 0 49.333 -8 64 -24s22 -39 22 -69c0 -44 -20.333 -138 -61 -282l-51 -183c-27.333 -98.667 -41 -175.667 -41 -231c0 -25.333 7.66699 -38 23 -38
c11.333 0 28 6.33301 50 19c42.667 24.667 75.667 48.334 99 71.001l25 -59c-118 -84.667 -197.667 -137.667 -239 -159c-55.333 -29.333 -100.666 -44 -135.999 -44c-24.667 0 -43 8 -55 24s-18 44 -18 84c0 43.333 13.333 111 40 203l32 111
c28.667 98.667 46.334 164 53.001 196c18 77.333 27 127 27 149c0 12 -3.5 21.333 -10.5 28s-16.5 10 -28.5 10c-33.333 0 -78.666 -28.667 -135.999 -86c-79.333 -79.333 -144.833 -175.333 -196.5 -288s-88.5 -243.334 -110.5 -392.001
c-84.667 -6.66699 -157.667 -19.667 -219 -39z" />
    <glyph glyph-name="o" unicode="o" 
d="M97 279c0 133.333 29.667 262.334 89 387.001c34.667 73.333 104.5 142.666 209.5 207.999s207.5 98 307.5 98c76 0 139.333 -12.167 190 -36.5s88 -58.666 112 -102.999s36 -102.833 36 -175.5c0 -91.333 -16.833 -182.833 -50.5 -274.5s-72.5 -159.834 -116.5 -204.501
c-57.333 -57.333 -136.333 -109.333 -237 -156c-70.667 -32.667 -145 -49 -223 -49c-108 0 -187.833 25.5 -239.5 76.5s-77.5 127.5 -77.5 229.5zM337 301.001c0 -83.333 15.334 -142.668 46.001 -178.001s77 -53 139 -53c43.333 0 81.666 15 114.999 45
c44 40 82.5 113.5 115.5 220.5s49.5 215.5 49.5 325.5c0 76 -16 132.333 -48 169s-75 55 -129 55c-47.333 0 -90 -16.667 -128 -50s-71.333 -96.666 -100 -189.999c-40 -132 -60 -246.667 -60 -344z" />
    <glyph glyph-name="p" unicode="p" 
d="M-18 -559l-20.9971 15.998c35.333 122.667 64.666 230.334 87.999 323.001c21.333 80 57.666 229.333 108.999 448c62.667 268 94 440.333 94 517c0 22 -8.66699 33 -26 33c-21.333 0 -72 -28 -152 -84l-27 51c135.333 100.667 228.833 163.667 280.5 189
s92.834 38 123.501 38c16 0 28.667 -5.5 38 -16.5s14 -26.167 14 -45.5c0 -14 -2 -31.667 -6 -53l-47 -201l-28 -108c92 137.333 182 238.666 270 303.999c108.667 80 199.667 120 273 120c33.333 0 58 -13.667 74 -41c29.333 -48.667 44 -109.667 44 -183
c0 -84 -15.667 -175.667 -47 -275s-65.5 -174 -102.5 -224s-87.333 -95.833 -151 -137.5s-127.167 -77.5 -190.5 -107.5c-42 -20.667 -95.667 -31 -161 -31c-34.667 0 -71 4.66699 -109 14l-27 -94c-12 -41.333 -30 -115 -54 -221
c-7.33301 -33.333 -12.833 -63.666 -16.5 -90.999s-5.83398 -59.666 -6.50098 -96.999c-88.667 -6 -167.334 -20.333 -236.001 -43zM343.003 127.998c78 -37.333 143 -56 195 -56c46 0 84.333 14.333 115 43c41.333 39.333 83.333 121.666 126 246.999s64 241 64 347
c0 41.333 -4.33301 69 -13 83s-21 21 -37 21c-32.667 0 -73 -18 -121 -54c-72 -54 -135 -128.667 -189 -224s-95.667 -207.666 -125 -336.999z" />
    <glyph glyph-name="q" unicode="q" horiz-adv-x="1100" 
d="M461 -559l-19.0029 36.999c29.333 22.667 47.333 44 54 64c14 42 39 140.333 75 295l133 567c-57.333 -87.333 -122.166 -165.666 -194.499 -234.999s-146.166 -123.333 -221.499 -162c-44.667 -22.667 -84.334 -34 -119.001 -34c-30 0 -54.5 14 -73.5 42
s-28.5 72.667 -28.5 134c0 71.333 14.333 159.333 43 264s61.334 188.667 98.001 252c19.333 34 57 73 113 117c110.667 86 193 141.333 247 166c34.667 16 76.334 24 125.001 24c40 0 79.5 -4.5 118.5 -13.5s77.5 -22.5 115.5 -40.5l96 55l37 -18
c-28 -55.333 -76.333 -240.333 -145 -555l-80 -365l-98 -457c-4.66699 -25.333 -7 -46 -7 -62l2 -34c-42 0 -132.333 -13.667 -271 -41zM787.997 819.999c-24.667 14.667 -50.833 25.668 -78.5 33.001s-56.5 11 -86.5 11c-44.667 0 -79.5 -7.5 -104.5 -22.5
s-47.5 -42.5 -67.5 -82.5c-38.667 -76.667 -74.167 -176.334 -106.5 -299.001s-48.5 -207.667 -48.5 -255c0 -21.333 4.66699 -37.833 14 -49.5s20.333 -17.5 33 -17.5c34 0 77.333 24.667 130 74c70 65.333 132.167 141 186.5 227s94.5 199 120.5 339z" />
    <glyph glyph-name="r" unicode="r" horiz-adv-x="797" 
d="M118 -27l-22.0029 23c36.667 118.667 70.334 242 101.001 370c16 66.667 30.667 144 44 232c8.66699 59.333 13 104 13 134c0 18 -2 30.333 -6 37s-9.33301 10 -16 10c-10 0 -25.333 -5.66699 -46 -17c-34 -18.667 -70 -44 -108 -76l-24 55c194 154 319.667 231 377 231
c16.667 0 30.5 -6.5 41.5 -19.5s16.5 -31.167 16.5 -54.5c0 -36.667 -24.333 -150.334 -73 -341.001l-13 -53h13c49.333 114 100.166 210.167 152.499 288.5s97.5 129.5 135.5 153.5c28 17.333 61.333 26 100 26c18.667 0 37 -3 55 -9
c-27.333 -87.333 -42.666 -179.666 -45.999 -276.999l-23 -14c-32.667 28.667 -68 43 -106 43c-60.667 0 -115.667 -40.333 -165 -121c-85.333 -138 -145.666 -331.667 -180.999 -581c-85.333 -10 -158.666 -23.333 -219.999 -40z" />
    <glyph glyph-name="s" unicode="s" horiz-adv-x="909" 
d="M36 29c24 92 39 181.334 45 268.001h62l3 -97c28.667 -34.667 66.667 -63.167 114 -85.5s95.333 -33.5 144 -33.5c61.333 0 107.833 14 139.5 42s47.5 65 47.5 111c0 35.333 -10.667 64.666 -32 87.999s-57.666 40.333 -108.999 51l-86 18
c-80.667 16.667 -135.667 38.667 -165 66c-44.667 41.333 -67 95.333 -67 162c0 79.333 27.333 142 82 188c129.333 110 255.333 165 378 165c38.667 0 77.667 -4.83301 117 -14.5s79 -24.5 119 -44.5c-16.667 -70.667 -30 -151 -40 -241h-60l-11 99
c-40 34.667 -78.333 58.834 -115 72.501s-74.334 20.5 -113.001 20.5c-49.333 0 -88.833 -13.5 -118.5 -40.5s-44.5 -61.167 -44.5 -102.5c0 -40.667 14.333 -73 43 -97c28 -24.667 81.667 -43.667 161 -57l56 -9c70 -12 122.667 -37.333 158 -76
c34.667 -38.667 52 -87.334 52 -146.001c0 -60 -20.667 -113.667 -62 -161s-98.833 -92.833 -172.5 -136.5s-157.167 -65.5 -250.5 -65.5c-44 0 -83.167 3.33301 -117.5 10s-86.833 22 -157.5 46z" />
    <glyph glyph-name="t" unicode="t" horiz-adv-x="797" 
d="M688 270l24.001 -56.0029l-150 -110c-77.333 -52.667 -136.333 -87.667 -177 -105s-74.334 -26 -101.001 -26c-34 0 -61.333 11.333 -82 34s-31 54.667 -31 96c0 22 2.83301 47.667 8.5 77s33.5 153.333 83.5 372c32.667 143.333 52.334 234.333 59.001 273h-222l14 55
c64 14 142.667 37 236 69c24 132 36.333 225.667 37 281c71.333 18.667 155.333 45.334 252 80.001l21 -24c-34 -117.333 -65.333 -235.333 -94 -354h103c74.667 0 133 2.66699 175 8l8 -8l-14 -51c-6.66699 -22.667 -11 -44 -13 -64c-58.667 5.33301 -117 8 -175 8h-107
c-22.667 -77.333 -52.334 -203.666 -89.001 -378.999c-28.667 -136 -43 -220 -43 -252c0 -17.333 4.66699 -30.833 14 -40.5s21 -14.5 35 -14.5c20 0 44.667 8 74 24c56.667 30.667 108 66.334 154 107.001z" />
    <glyph glyph-name="u" unicode="u" 
d="M84 710l-23.999 57.001c90 64.667 168.667 115 236 151s118.666 54 153.999 54c22.667 0 39.667 -6 51 -18s17 -32.333 17 -61c0 -34.667 -12 -95.667 -36 -183l-59 -218c-22 -82 -40.333 -160.333 -55 -235c-6.66699 -32.667 -10 -56.667 -10 -72
c0 -14.667 3.16699 -25.667 9.5 -33s14.833 -11 25.5 -11c14 0 32 7 54 21c34.667 22.667 78.667 67.167 132 133.5s99.5 140.333 138.5 222s67.667 160.334 86 236.001s29.166 135.167 32.499 178.5c68.667 2.66699 142.334 16.334 221.001 41.001l17 -20
c-34 -103.333 -73 -236 -117 -398c-52.667 -196 -79 -319.667 -79 -371c0 -23.333 10 -35 30 -35c8 0 20.667 4.66699 38 14c40.667 22.667 77.667 47.667 111 75l20 -57l-182 -131c-50 -32.667 -87.833 -53.667 -113.5 -63s-47.5 -14 -65.5 -14
c-20 0 -35.833 7.16699 -47.5 21.5s-17.5 35.166 -17.5 62.499c0 33.333 11.667 93.666 35 180.999l58 219c-81.333 -146.667 -184.666 -271.334 -309.999 -374.001c-90 -73.333 -163.667 -110 -221 -110c-29.333 0 -52.333 9.83301 -69 29.5s-25 51.167 -25 94.5
c0 23.333 2.33301 46.333 7 69c5.33301 30 19.666 86.667 42.999 170l29 107c44.667 163.333 67 265 67 305c0 13.333 -2.66699 23.5 -8 30.5s-12.333 10.5 -21 10.5c-20 0 -70.667 -26.333 -152 -79z" />
    <glyph glyph-name="v" unicode="v" 
d="M45 691l87.999 269.004c52.667 9.33301 99.667 14 141 14c28 0 53.667 -1.33301 77 -4l75 -8c22.667 -2.66699 41.667 -4 57 -4c76.667 0 131.667 9.66699 165 29l28 -39c-46.667 -50.667 -92.5 -116.167 -137.5 -196.5s-78.333 -159.333 -100 -237
s-32.5 -149.5 -32.5 -215.5s12.5 -115.333 37.5 -148s57.5 -49 97.5 -49c48.667 0 94.667 18.667 138 56c61.333 52.667 114.5 134.167 159.5 244.5s67.5 210.833 67.5 301.5c0 39.333 -7.66699 68.666 -23 87.999s-36 29 -62 29c-22.667 0 -46 -9.66699 -70 -29l-21 43
c26.667 19.333 53.667 43.166 81 71.499s46 50.166 56 65.499c14.667 4.66699 29.667 7 45 7c47.333 0 83.833 -15.833 109.5 -47.5s38.5 -82.167 38.5 -151.5c0 -115.333 -37 -242.5 -111 -381.5s-159.333 -244.667 -256 -317s-185.667 -108.5 -267 -108.5
c-74 0 -133.333 24.667 -178 74s-67 119.333 -67 210c0 59.333 9 116.333 27 171s46.833 109.667 86.5 165s116.834 140.666 231.501 255.999c-48.667 -12 -93 -18 -133 -18l-113 1c-40.667 0 -75.667 -1.66699 -105 -5c-30.667 -50.667 -54 -96.667 -70 -138z" />
    <glyph glyph-name="w" unicode="w" horiz-adv-x="1706" 
d="M38 690c10.667 36 26.0029 79.0039 46.0029 129.004c23.333 59.333 35.666 106.666 36.999 141.999c47.333 8 80.666 12 99.999 12c38 0 73 -1.33301 105 -4l84 -8c24.667 -2 46.667 -3 66 -3c77.333 0 135 7.33301 173 22l29 -32
c-92.667 -102 -163.5 -210.833 -212.5 -326.5s-73.5 -223.167 -73.5 -322.5c0 -70 10.333 -120.333 31 -151s46 -46 76 -46c47.333 0 100.666 38 159.999 114c84.667 107.333 146.334 245 185.001 413s58 267 58 297c66.667 12.667 140 30.667 220 54l26 -19
c-15.333 -46.667 -43.666 -152.334 -84.999 -317.001c-39.333 -158 -59 -285 -59 -381c0 -52.667 11 -92.667 33 -120s50 -41 84 -41c39.333 0 81.333 20 126 60c67.333 60 123.333 142.167 168 246.5s67 203.5 67 297.5c0 40 -8.83301 70.167 -26.5 90.5
s-40.834 30.5 -69.501 30.5c-22 0 -45 -8.33301 -69 -25l-24 47c43.333 23.333 91.666 62.666 144.999 117.999c21.333 5.33301 39 8 53 8c41.333 0 75.833 -17 103.5 -51s41.5 -83.333 41.5 -148c0 -114 -37.167 -238.167 -111.5 -372.5s-168.166 -243.833 -281.499 -328.5
c-90 -68 -173.333 -102 -250 -102c-56 0 -102.167 19.5 -138.5 58.5s-54.5 90.833 -54.5 155.5c0 47.333 6.33301 105.333 19 174l-23 -39c-40.667 -69.333 -76.334 -122 -107.001 -158c-60.667 -69.333 -116.667 -118.5 -168 -147.5s-98.666 -43.5 -141.999 -43.5
c-62 0 -112.833 24 -152.5 72s-59.5 116.333 -59.5 205c0 59.333 9.5 117.166 28.5 173.499s48.167 111.833 87.5 166.5s118 141 236 259c-44.667 -12.667 -102 -19 -172 -19h-69c-36.667 0 -74.334 -2.33301 -113.001 -7l-65 -136z" />
    <glyph glyph-name="x" unicode="x" horiz-adv-x="1024" 
d="M-18 0c22.667 58.667 34.998 128.998 36.998 210.998l50 4c10.667 -56.667 33.334 -85 68.001 -85c32.667 0 73.167 23.833 121.5 71.5s104.5 119.167 168.5 214.5c-28.667 188 -52.5 297.833 -71.5 329.5s-47.167 47.5 -84.5 47.5
c-24.667 0 -50.334 -8.33301 -77.001 -25s-49 -40 -67 -70l-47 26l59 93c28 43.333 49.333 82 64 116c29.333 13.333 57.333 23.166 84 29.499s51.667 9.5 75 9.5c58.667 0 106.167 -19.833 142.5 -59.5s64.5 -118.167 84.5 -235.5l9 -51
c104.667 152.667 180.5 248.334 227.5 287.001s94.167 58 141.5 58c19.333 0 41.666 -5.33301 66.999 -16c-18 -41.333 -34 -114.666 -48 -219.999l-44 -8c-8 44 -28.333 66 -61 66c-60.667 0 -134.667 -61 -222 -183l-46 -64c22.667 -156 47.334 -271 74.001 -345
c16.667 -46.667 41.334 -70 74.001 -70c33.333 0 87.333 35 162 105l32 -49l-167 -137c-42 -31.333 -77.667 -53 -107 -65c-19.333 -8 -38.333 -12 -57 -12c-78 0 -129 68.667 -153 206l-27 160l-45 -64c-92.667 -131.333 -164.667 -217.666 -216 -258.999
c-35.333 -28.667 -72.666 -43 -111.999 -43c-22 0 -51.667 9 -89 27z" />
    <glyph glyph-name="y" unicode="y" 
d="M33 -364l127.001 80.0078l30 -13c-2 -13.333 -3 -24.333 -3 -33c0 -43.333 12.333 -78.333 37 -105s56.667 -40 96 -40c34 0 67.333 10.667 100 32s62.667 57.166 90 107.499s58 128.833 92 235.5l117 437c-72.667 -100.667 -136.5 -178 -191.5 -232
s-105.5 -92.667 -151.5 -116c-34 -17.333 -60.667 -26 -80 -26c-26.667 0 -49.834 14.833 -69.501 44.5s-29.5 76.167 -29.5 139.5c0 38 3.66699 87.333 11 148l20 158c18.667 152.667 28 241 28 265c0 36.667 -3.16699 60.5 -9.5 71.5s-15.5 16.5 -27.5 16.5
c-11.333 0 -27.666 -7.33301 -48.999 -22c-52.667 -34 -92.334 -65.333 -119.001 -94l-26 57c8 5.33301 46.5 34.666 115.5 87.999s127.167 91 174.5 113c34.667 16 63.334 24 86.001 24c25.333 0 45.166 -9.83301 59.499 -29.5s21.5 -52.167 21.5 -97.5
c0 -22.667 -1.66699 -48.334 -5 -77.001l-43 -357c-8 -64.667 -12 -127.334 -12 -188.001c0 -32 3.33301 -53.5 10 -64.5s15.334 -16.5 26.001 -16.5c28 0 68 31.333 120 94c88 105.333 155.333 230.666 202 375.999s71.334 247.666 74.001 306.999
c39.333 5.33301 116.666 21.666 231.999 48.999l23 -18c-26.667 -68.667 -53 -150.334 -79 -245.001l-96 -340c-60 -214.667 -111.667 -369 -155 -463c-72 -154 -158.333 -270 -259 -348s-194.334 -117 -281.001 -117c-44 0 -82 7.83301 -114 23.5s-55.333 35.5 -70 59.5
s-22 56.667 -22 98v18z" />
    <glyph glyph-name="z" unicode="z" horiz-adv-x="1024" 
d="M73 -14l-23.999 73l701 720c-52.667 -24.667 -111.334 -37 -176.001 -37c-78 0 -151.333 12 -220 36c-24 9.33301 -43.333 14 -58 14c-18.667 0 -34 -9.33301 -46 -28c-18.667 -29.333 -35 -64.333 -49 -105l-57 5l95 289c18.667 6 37.167 10.5 55.5 13.5
s36.5 4.5 54.5 4.5c47.333 0 117.666 -12.667 210.999 -38c89.333 -24 161 -36 215 -36c34.667 0 64 6 88 18c16.667 8.66699 34.667 28 54 58l40 -16l-28 -105l-678 -689c78.667 33.333 142.667 50 192 50c36.667 0 88.667 -5.66699 156 -17c78 -13.333 130 -20 156 -20
c10.667 0 26.334 1.33301 47.001 4l55 117l57 -5c-32 -92 -58.667 -189.333 -80 -292c-34 -18 -74.667 -27 -122 -27c-31.333 0 -61.666 2.33301 -90.999 7c-20 3.33301 -72.333 16 -157 38c-92.667 23.333 -168.334 35 -227.001 35c-68 0 -122.667 -22.333 -164 -67z" />
    <glyph glyph-name="braceleft" unicode="{" horiz-adv-x="682" 
d="M303 611c50.667 -14.667 85.502 -33.999 104.502 -57.999s28.5 -60.333 28.5 -109c0 -20.667 -2.33301 -43 -7 -67l-75 -429c-2 -11.333 -3 -25 -3 -41c0 -44 10 -78.833 30 -104.5s53 -44.167 99 -55.5c-104.667 0 -167.667 2 -189 6c-51.333 10.667 -88 29.5 -110 56.5
s-33 65.5 -33 115.5c0 26 2.33301 53.333 7 82l73 413c4 23.333 6 43 6 59c0 68.667 -42.667 112.667 -128 132c108.667 26.667 171.667 90.334 189 191.001l79 449c11.333 63.333 34.166 113 68.499 149s81.5 60.667 141.5 74c29.333 6.66699 96.666 10 201.999 10l-23 -7
c-50.667 -15.333 -90.167 -39 -118.5 -71s-46.833 -73.667 -55.5 -125l-80 -450c-12 -66.667 -34.333 -115.834 -67 -147.501s-79 -55.834 -139 -72.501z" />
    <glyph glyph-name="bar" unicode="|" horiz-adv-x="1241" 
d="M540 -251v1736h201v-1736h-201z" />
    <glyph glyph-name="braceright" unicode="}" horiz-adv-x="682" 
d="M394 611c-46.667 14 -80.834 32.6641 -102.501 55.9971s-32.5 58 -32.5 104c0 16.667 2 36.667 6 60l79 450c3.33301 17.333 5 33.666 5 48.999c0 26 -4.66699 49.167 -14 69.5s-22.333 36.833 -39 49.5c-10 8.66699 -36 20.334 -78 35.001
c100.667 0 163.667 -2.33301 189 -7c50 -10.667 86.833 -29.667 110.5 -57s35.5 -65.666 35.5 -114.999c0 -16.667 -1.66699 -34.667 -5 -54l-79 -449c-4 -20.667 -6 -36.667 -6 -48c0 -72 42.333 -119.667 127 -143c-54.667 -11.333 -99.667 -34 -135 -68
c-26 -25.333 -44 -66.333 -54 -123l-73 -413c-10.667 -60 -26.5 -107 -47.5 -141s-48.833 -60.667 -83.5 -80s-74.667 -31.666 -120 -36.999c-14 -1.33301 -69 -2 -165 -2c40.667 9.33301 73.834 22.833 99.501 40.5s44.834 37.5 57.501 59.5
c21.333 35.333 34.666 69 39.999 101l76 429c12 70 33.5 122.333 64.5 157s79.167 60.334 144.5 77.001z" />
    <glyph glyph-name="asciitilde" unicode="~" horiz-adv-x="1241" 
d="M1108 855h56.998c-4 -104 -31 -183.833 -81 -239.5s-112.667 -83.5 -188 -83.5c-35.333 0 -72.833 5.66699 -112.5 17s-127.167 45.333 -262.5 102c-97.333 40.667 -167.666 61 -210.999 61c-96 0 -154.667 -59.667 -176 -179h-58c4.66699 107.333 31.334 188 80.001 242
s108.667 81 180 81c36.667 0 73.667 -5.33301 111 -16c69.333 -20 160 -54.333 272 -103c62 -26.667 110.333 -45 145 -55c20.667 -6 43 -9 67 -9c48 0 88 15.833 120 47.5s51 76.5 57 134.5z" />
    <glyph glyph-name="nbspace" unicode="&#xa0;" horiz-adv-x="512" 
 />
    <glyph glyph-name="exclamdown" unicode="&#xa1;" horiz-adv-x="682" 
d="M522 855c0 -46.667 -12.332 -88.5 -36.999 -125.5s-61 -55.5 -109 -55.5c-38.667 0 -69.167 11.333 -91.5 34s-33.5 51.667 -33.5 87c0 52.667 14.167 95.5 42.5 128.5s65.166 49.5 110.499 49.5c36.667 0 65.5 -10.667 86.5 -32s31.5 -50 31.5 -86zM373.001 560
l25.999 -18c-8 -65.333 -26.667 -270.666 -56 -615.999c-16 -184.667 -24.333 -296.667 -25 -336c-44.667 -0.666992 -139.667 -20.334 -285 -59.001l-23 19l47 153l204 680c14.667 49.333 25.334 91.333 32.001 126z" />
    <glyph glyph-name="cent" unicode="&#xa2;" horiz-adv-x="1024" 
d="M737 1356h83l-51 -162c61.333 -1.33301 124 -18.333 188 -51c-25.333 -65.333 -49 -160.333 -71 -285h-61l-1 133c-25.333 28 -58.333 47 -99 57l-218 -714l25 -1c96 0 207.333 48.667 334 146l25 -64c-152 -128.667 -293.667 -200.667 -425 -216l-56 -183h-82l52 183
c-82 4 -143.833 32.167 -185.5 84.5s-62.5 117.833 -62.5 196.5c0 104 19 212 57 324c26 76 61.667 135.667 107 179c24 22 92.667 68.333 206 139c74.667 46.667 136 70.667 184 72zM649 1066c-10.667 1.33301 -19.668 1.99902 -27.001 1.99902
c-38.667 0 -75.667 -16 -111 -48s-64.666 -87.667 -87.999 -167c-34.667 -121.333 -52 -227.666 -52 -318.999c0 -80 21 -136 63 -168z" />
    <glyph glyph-name="sterling" unicode="&#xa3;" horiz-adv-x="1024" 
d="M41 -24l3.00293 158.001c49.333 17.333 87.666 29 114.999 35c38.667 87.333 58 212 58 374v24l-3 72h-49c-34.667 0 -70 -2 -106 -6l-9 9l8 81l71 -4l34 -1l51 2l3 84c2.66699 122.667 14 208 34 256s64.167 97.333 132.5 148s138.166 96.167 209.499 136.5
s141.333 60.5 210 60.5c34.667 0 67.5 -4.5 98.5 -13.5s60.5 -22.5 88.5 -40.5l-65 -271l-54 13l11 118c-20.667 22 -43.834 38.333 -69.501 49s-54.167 16 -85.5 16c-72 0 -128 -26.833 -168 -80.5s-66.667 -160.5 -80 -320.5l-13 -152l95 -3l27 -1
c87.333 0 147 2.33301 179 7l11 -9l-11 -75c-30.667 2 -107 3 -229 3h-84l-11 -53c-14 -64.667 -28.5 -119.334 -43.5 -164.001s-32.5 -86.667 -52.5 -126l-80 -129l66 3c48.667 3.33301 89 5 121 5c42 0 95.333 -2 160 -6c56 -4 94 -6 114 -6c12.667 0 26.167 1 40.5 3
s29.5 4.66699 45.5 8c33.333 64.667 57.333 123 72 175l61 -6c-3.33301 -20.667 -9.66602 -50 -18.999 -88l-60 -254c-31.333 -20.667 -65.333 -31 -102 -31c-22 0 -48 3.16699 -78 9.5s-120.333 30.833 -271 73.5c-70.667 20 -127.334 30 -170.001 30l-28 -1
c-32 -38 -70.333 -75.333 -115 -112h-63z" />
    <glyph glyph-name="currency" unicode="&#xa4;" horiz-adv-x="1241" 
d="M122 354l99.001 99.001c-32 50.667 -54.167 97.167 -66.5 139.5s-18.5 89.166 -18.5 140.499c0 54 6.5 103.167 19.5 147.5s34.833 89.5 65.5 135.5l-99 98l137 141l100 -100c46 30 93 52.5 141 67.5s97 22.5 147 22.5c48.667 0 96.667 -7.33301 144 -22
s93.666 -37 138.999 -67l99 99l136 -141l-99 -96c60 -88 90 -182.667 90 -284c0 -52.667 -6.83301 -101.5 -20.5 -146.5s-36.167 -89.833 -67.5 -134.5l98 -99l-135 -139l-99 99c-46 -30 -92.833 -52.667 -140.5 -68s-96.5 -23 -146.5 -23s-98.833 7.66699 -146.5 23
s-94.167 38 -139.5 68l-100 -99zM646.001 1026c-82 0 -151.667 -28.6689 -209 -86.002s-86 -126.666 -86 -207.999s28.667 -150.666 86 -207.999s127 -86 209 -86c81.333 0 150.833 28.833 208.5 86.5s86.5 126.834 86.5 207.501c0 81.333 -28.833 150.666 -86.5 207.999
s-127.167 86 -208.5 86z" />
    <glyph glyph-name="yen" unicode="&#xa5;" horiz-adv-x="1024" 
d="M717 616l330.996 -0.00195312l-16 -81h-345c-24.667 -90 -39.667 -157 -45 -201h353l-16 -80h-350c-10.667 -61.333 -16 -102.666 -16 -123.999c0 -23.333 6.66699 -39.333 20 -48s50.333 -14.667 111 -18l76 -4l-8 -69c-99.333 6 -186 9 -260 9l-393 -10l-20 1l7 71
l83 2c53.333 2 87.666 11.333 102.999 28c10.667 12.667 23.667 66.667 39 162h-372l16 80h369c7.33301 47.333 14.333 110 21 188l-3 13h-350l16 81h316c-21.333 93.333 -52.666 201.833 -93.999 325.5s-83.333 208.5 -126 254.5c-25.333 27.333 -54.666 41 -87.999 41
c-26.667 0 -64.667 -11.333 -114 -34v67c36 24.667 66.333 47.334 91 68.001l91 76c19.333 2.66699 37.333 4 54 4c50.667 0 95.834 -13.167 135.501 -39.5s76.334 -73.666 110.001 -141.999s68.834 -172.5 105.501 -312.5l70 -308c79.333 190 163.833 350 253.5 480
s166.167 216.333 229.5 259c43.333 30 87.333 45.333 132 46l-9 -186c-68.667 -12.667 -135.667 -52.334 -201 -119.001c-110 -112.667 -212.333 -272.667 -307 -480z" />
    <glyph glyph-name="brokenbar" unicode="&#xa6;" horiz-adv-x="1241" 
d="M540 1485h201v-738l-201 -96v834zM540 487l201 96v-834h-201v738z" />
    <glyph glyph-name="section" unicode="&#xa7;" 
d="M81 -200c10.667 40.667 23.999 106.665 39.999 197.998l15 83l69 -2l-7 -175c32 -46.667 71.833 -83 119.5 -109s94.834 -39 141.501 -39c67.333 0 126.333 22.5 177 67.5s76 94.5 76 148.5c0 25.333 -7.66699 52 -23 80s-36.166 52.167 -62.499 72.5
s-82.833 53.5 -169.5 99.5c-108 58 -178.333 100.833 -211 128.5s-58.167 61.334 -76.5 101.001s-27.5 81.167 -27.5 124.5c0 58.667 18.333 114.667 55 168c26 38 72.333 82 139 132c-28.667 26.667 -50.167 54.167 -64.5 82.5s-21.5 57.166 -21.5 86.499
c0 55.333 19.167 113.5 57.5 174.5s87.833 108.5 148.5 142.5s127.334 51 200.001 51c64 0 123.667 -8.16699 179 -24.5s106.666 -41.166 153.999 -74.499c-25.333 -110.667 -43 -199 -53 -265l-68 4l3 148c-41.333 38 -84.666 66.5 -129.999 85.5s-92.333 28.5 -141 28.5
c-58.667 0 -105.834 -15.333 -141.501 -46s-53.5 -67.667 -53.5 -111c0 -35.333 13 -68.666 39 -99.999c25.333 -31.333 79 -69.333 161 -114l118 -68c81.333 -47.333 133 -81.333 155 -102c31.333 -29.333 55 -61.833 71 -97.5s24 -72.167 24 -109.5
c0 -57.333 -15.5 -111.333 -46.5 -162s-77.833 -98 -140.5 -142c31.333 -27.333 54.666 -57.333 69.999 -90s23 -68 23 -106c0 -94.667 -46.667 -185.167 -140 -271.5s-201 -129.5 -323 -129.5c-66.667 0 -127.167 10.5 -181.5 31.5s-105.5 54.5 -153.5 100.5z
M708.999 312.998c32 15.333 58.333 39.499 79 72.499s31 65.833 31 98.5c0 35.333 -11.5 68 -34.5 98s-72.167 67 -147.5 111l-230 133c-64.667 -56 -97 -115 -97 -177c0 -23.333 6.83301 -48.166 20.5 -74.499s36.167 -52.833 67.5 -79.5c16 -14 67 -45.333 153 -94z" />
    <glyph glyph-name="dieresis" unicode="&#xa8;" horiz-adv-x="682" 
d="M260 1311c33.333 0 62.002 -11.832 86.002 -35.499s36 -52.5 36 -86.5s-11.833 -62.667 -35.5 -86s-51.834 -35 -84.501 -35c-33.333 0 -62 12 -86 36s-36 53 -36 87c0 33.333 11.667 61.666 35 84.999s51.666 35 84.999 35zM682.002 1311
c33.333 0 62.002 -11.832 86.002 -35.499s36 -52.5 36 -86.5s-11.833 -62.667 -35.5 -86s-51.834 -35 -84.501 -35c-33.333 0 -62 12 -86 36s-36 53 -36 87c0 33.333 11.667 61.666 35 84.999s51.666 35 84.999 35z" />
    <glyph glyph-name="copyright" unicode="&#xa9;" horiz-adv-x="1530" 
d="M781 1409c127.333 0 246.333 -32 357 -96s197.834 -151.333 261.501 -262s95.5 -230 95.5 -358s-31.833 -247.333 -95.5 -358s-150.834 -198 -261.501 -262s-229.667 -96 -357 -96c-128 0 -247.333 32 -358 96s-197.834 151.333 -261.501 262s-95.5 230 -95.5 358
s31.833 247.333 95.5 358s150.834 198 261.501 262s230 96 358 96zM781 1301c-107.333 0 -207.5 -27.167 -300.5 -81.5s-166.5 -128.5 -220.5 -222.5s-81 -195.333 -81 -304s27 -210 81 -304s127.5 -168 220.5 -222s193.167 -81 300.5 -81s207.5 27 300.5 81
s166.5 128 220.5 222s81 195.333 81 304c0 109.333 -27 210.833 -81 304.5s-127.5 167.667 -220.5 222s-193.167 81.5 -300.5 81.5zM1084 1032l0.00195312 -209.001h-67c-2.66699 34.667 -13.334 68 -32.001 100s-42 55.833 -70 71.5s-59.667 23.5 -95 23.5
c-70.667 0 -129 -26.833 -175 -80.5s-69 -128.5 -69 -224.5c0 -108 25.5 -192.833 76.5 -254.5s113.5 -92.5 187.5 -92.5c40.667 0 79.167 9.83301 115.5 29.5s69.166 53.167 98.499 100.5l54 -21c-12 -31.333 -33.667 -61.666 -65 -90.999s-70.5 -52.5 -117.5 -69.5
s-96.833 -25.5 -149.5 -25.5c-74.667 0 -140.667 16.333 -198 49s-102.333 79.667 -135 141s-49 130.333 -49 207c0 118 37.5 214 112.5 288s174.167 111 297.5 111c38 0 89.333 -6.5 154 -19.5s106.667 -24.167 126 -33.5z" />
    <glyph glyph-name="ordfeminine" unicode="&#xaa;" horiz-adv-x="682" 
d="M709 940l15.001 -42c-108.667 -86.667 -183 -130 -223 -130c-14.667 0 -26.167 5 -34.5 15s-12.5 24.667 -12.5 44c0 36 13.333 109.333 40 220l11 46c-63.333 -115.333 -124.833 -198.333 -184.5 -249s-108.5 -76 -146.5 -76c-24.667 0 -43.834 9.5 -57.501 28.5
s-20.5 50.833 -20.5 95.5c0 48 9.33301 107.167 28 177.5s37 122.166 55 155.499c11.333 20 35.333 44.333 72 73c68.667 54 116.167 87 142.5 99s55.833 18 88.5 18c24 0 47.5 -2.83301 70.5 -8.5s45.5 -14.5 67.5 -26.5l60 35l21 -15
c-6.66699 -17.333 -13.667 -39.666 -21 -66.999l-64 -282c-19.333 -80.667 -29 -129.667 -29 -147s6 -26 18 -26c19.333 0 54 20.667 104 62zM534.001 1315c-20 11.333 -39.001 19.668 -57.001 25.001s-35.333 8 -52 8c-28.667 0 -53.167 -9.83301 -73.5 -29.5
s-41.833 -68.834 -64.5 -147.501c-31.333 -107.333 -47 -189.333 -47 -246c0 -16.667 2.66699 -29 8 -37s12 -12 20 -12c10.667 0 28.334 11 53.001 33c50 46 94.833 104.667 134.5 176s64.167 137.333 73.5 198z" />
    <glyph glyph-name="guillemotleft" unicode="&#xab;" horiz-adv-x="1024" 
d="M464 478l0.00195312 48c33.333 27.333 101.666 88 204.999 182l221 205l48 -41l-259 -375l184 -384l-52 -30l-198 232c-58.667 68.667 -108.334 123 -149.001 163zM72.002 480l-2 46l265.5 235.5c87 80.333 141.5 129.5 163.5 147.5l47 -39l-262 -373l180 -387l-50 -29
l-185 222z" />
    <glyph glyph-name="logicalnot" unicode="&#xac;" horiz-adv-x="1241" 
d="M943 414v374h-832v187h1019v-561h-187z" />
    <glyph glyph-name="registered" unicode="&#xae;" horiz-adv-x="1530" 
d="M782 1409c128 0 247.333 -32 358 -96s198 -151.167 262 -261.5s96 -229.5 96 -357.5s-32 -247.167 -96 -357.5s-151.333 -197.5 -262 -261.5s-230 -96 -358 -96s-247.5 32 -358.5 96s-198.333 151.167 -262 261.5s-95.5 229.5 -95.5 357.5s31.833 247.167 95.5 357.5
s151 197.5 262 261.5s230.5 96 358.5 96zM782 1301c-108.667 0 -209.332 -26.999 -301.999 -80.999s-166 -128 -220 -222s-81 -195 -81 -303c0 -108.667 27 -210.167 81 -304.5s127.167 -168.333 219.5 -222s192.833 -80.5 301.5 -80.5c108 0 208.667 27 302 81
s167 127.833 221 221.5s81 195.167 81 304.5c0 108.667 -26.833 209.667 -80.5 303s-127.334 167.166 -221.001 221.499s-194.167 81.5 -301.5 81.5zM449.002 1054l0.00195312 44.002h341c106 0 179.5 -17.833 220.5 -53.5s61.5 -81.834 61.5 -138.501
c0 -52 -19.333 -97.333 -58 -136c-28.667 -28.667 -75.667 -50.334 -141 -65.001c30.667 -6.66699 57.167 -22 79.5 -46s50.666 -72.333 84.999 -145s58.166 -114.834 71.499 -126.501s31.666 -17.167 54.999 -16.5v-41h-129c-18.667 0 -36.667 4.66699 -54 14
c-11.333 6 -23.5 18.833 -36.5 38.5s-31.167 57.834 -54.5 114.501c-37.333 88 -64.166 140.167 -80.499 156.5s-41.5 24.5 -75.5 24.5h-49v-229c0 -30 1.83301 -49 5.5 -57s9 -13.5 16 -16.5s28.5 -4.5 64.5 -4.5v-41h-322v41c44 0.666992 70 4.16699 78 10.5
s12 24.5 12 54.5v548c0 33.333 -3.5 53 -10.5 59s-33.5 9.66699 -79.5 11zM685.004 729.003c13.333 -2 26.999 -3 40.999 -3c72 0 123.667 14 155 42s47 69.333 47 124c0 50.667 -13.5 89.667 -40.5 117s-65.833 41 -116.5 41l-53 -1c-13.333 0 -22.166 -3 -26.499 -9
s-6.5 -19.667 -6.5 -41v-270z" />
    <glyph glyph-name="overscore" unicode="&#xaf;" horiz-adv-x="1024" 
d="M135 1637h1048v-102h-1048v102z" />
    <glyph glyph-name="degree" unicode="&#xb0;" horiz-adv-x="819" 
d="M808 1099c0 -88.667 -30.833 -163.667 -92.5 -225s-136.167 -92 -223.5 -92c-88 0 -162.5 30.667 -223.5 92s-91.5 137 -91.5 227c0 86.667 31.167 160.667 93.5 222s136.833 92 223.5 92s160.667 -30.667 222 -92s92 -136 92 -224zM695 1097
c0 56 -19.333 103.168 -58 141.501s-86 57.5 -142 57.5c-57.333 0 -105.833 -19.333 -145.5 -58s-59.5 -85.334 -59.5 -140.001c0 -52.667 20 -98.667 60 -138s87.667 -59 143 -59c56.667 0 104.5 19.333 143.5 58s58.5 84.667 58.5 138z" />
    <glyph glyph-name="plusminus" unicode="&#xb1;" horiz-adv-x="1124" 
d="M52 745v187h416v417h187v-417h416v-187h-416v-416h-187v416h-416zM52 24v187h1019v-187h-1019z" />
    <glyph glyph-name="twosuperior" unicode="&#xb2;" horiz-adv-x="739" 
d="M71 563l5 43.001c65.333 58 125.333 114 180 168c162 160.667 243 289.667 243 387c0 44 -11.667 77.5 -35 100.5s-56.333 34.5 -99 34.5c-37.333 0 -66.833 -7.83301 -88.5 -23.5s-49.167 -55.5 -82.5 -119.5l-52 16l73 172c27.333 24.667 57 43.167 89 55.5
s66.333 18.5 103 18.5c82 0 145.833 -20.333 191.5 -61s68.5 -94.334 68.5 -161.001c0 -46 -13.167 -92 -39.5 -138s-77.833 -103.333 -154.5 -172l-203 -181h232c69.333 0 124.666 4 165.999 12l16 -14c-17.333 -36 -31.666 -82.667 -42.999 -140
c-131.333 6 -221.333 9 -270 9z" />
    <glyph glyph-name="threesuperior" unicode="&#xb3;" horiz-adv-x="739" 
d="M105 604l35.998 207.002l58 -4c-2.66699 -23.333 -4 -40 -4 -50c0 -46.667 12.167 -81.334 36.5 -104.001s60.833 -34 109.5 -34c54 0 97.833 19.333 131.5 58s50.5 90.667 50.5 156c0 50.667 -12.5 88.334 -37.5 113.001s-63.167 37 -114.5 37
c-31.333 0 -64.666 -6 -99.999 -18l-13 12l24 73c16.667 -4 33.334 -6 50.001 -6c60 0 105.5 14.167 136.5 42.5s46.5 64.833 46.5 109.5c0 35.333 -10.333 62.666 -31 81.999s-50 29 -88 29c-37.333 0 -68.333 -8.33301 -93 -25s-47.667 -46 -69 -88l-50 19
c25.333 43.333 50 90.666 74 141.999c24 20 52.333 35 85 45s70 15 112 15c75.333 0 132.166 -16 170.499 -48s57.5 -74 57.5 -126c0 -40.667 -12.333 -76.667 -37 -108s-73 -64.333 -145 -99c63.333 -10.667 110.833 -31.667 142.5 -63s47.5 -73.333 47.5 -126
c0 -80 -34.167 -149 -102.5 -207s-157.166 -87 -266.499 -87c-36 0 -72 4.5 -108 13.5s-72.333 22.167 -109 39.5z" />
    <glyph glyph-name="acute" unicode="&#xb4;" horiz-adv-x="682" 
d="M360 1061h-87.001l242 255c49.333 50.667 81.333 80.834 96 90.501s30.334 14.5 47.001 14.5c26 0 47.667 -8.16699 65 -24.5s26 -36.5 26 -60.5c0 -18 -5.33301 -33.833 -16 -47.5s-33 -29.834 -67 -48.501z" />
    <glyph glyph-name="mu1" unicode="&#xb5;" horiz-adv-x="1180" 
d="M1080 139l-9.99805 -56.002l-281 -98c-6.66699 -2.66699 -13 -4 -19 -4c-18 0 -32.333 8.33301 -43 25c-14.667 22.667 -22 52.667 -22 90c0 16 1 35.333 3 58c-57.333 -60.667 -116.5 -106 -177.5 -136s-116.833 -45 -167.5 -45c-36 0 -67.667 10 -95 30
s-55.666 57.333 -84.999 112c-7.33301 -63.333 -11 -109 -11 -137c0 -13.333 1.66699 -44 5 -92c4 -56.667 6 -92.667 6 -108c0 -50 -11.667 -87.5 -35 -112.5s-57.333 -37.5 -102 -37.5c-36 0 -63.5 8.66699 -82.5 26s-28.5 42 -28.5 74
c0 22.667 8.66699 56.334 26 101.001c50.667 136 91.167 261 121.5 375s59.166 251.333 86.499 412l53 310h233l-99 -576c-8 -47.333 -12 -85.666 -12 -114.999c0 -28.667 12.5 -53.167 37.5 -73.5s59.167 -30.5 102.5 -30.5c39.333 0 76.666 8 111.999 24s77 47 125 93
l120 678h229l-108 -628c-12 -71.333 -18 -113 -18 -125c0 -17.333 4.16699 -30 12.5 -38s20.166 -12 35.499 -12c11.333 0 28.333 2.66699 51 8z" />
    <glyph glyph-name="paragraph" unicode="&#xb6;" 
d="M753 1308l-0.00195312 -1786h-104v903c-135.333 6 -241.166 28.333 -317.499 67s-135.5 94.5 -177.5 167.5s-63 158.833 -63 257.5c0 105.333 22 189.333 66 252c58.667 85.333 128.334 144 209.001 176c69.333 28 208.666 42 417.999 42h456v-46h-45
c-41.333 0 -72.666 -6.5 -93.999 -19.5s-37 -31.833 -47 -56.5c-6.66699 -16.667 -10 -61.667 -10 -135v-1608h-102v1786h-189z" />
    <glyph glyph-name="middot" unicode="&#xb7;" horiz-adv-x="682" 
d="M737 855c33.333 0 62.002 -11.999 86.002 -35.999s36 -53 36 -87c0 -33.333 -11.833 -61.833 -35.5 -85.5s-51.834 -35.5 -84.501 -35.5c-33.333 0 -62 12.167 -86 36.5s-36 53.166 -36 86.499s11.667 61.833 35 85.5s51.666 35.5 84.999 35.5z" />
    <glyph glyph-name="cedilla" unicode="&#xb8;" horiz-adv-x="682" 
d="M242 8h83.001l-92 -139c25.333 2.66699 46.666 4 63.999 4c50.667 0 91.834 -13.833 123.501 -41.5s47.5 -62.5 47.5 -104.5c0 -46.667 -22.5 -87.334 -67.5 -122.001s-106.833 -52 -185.5 -52c-71.333 0 -143 16 -215 48l39 64c57.333 -22.667 106.666 -34 147.999 -34
c34.667 0 62 8.33301 82 25s30 37 30 61c0 22.667 -8.5 41.334 -25.5 56.001s-41.833 22 -74.5 22c-20 0 -42.667 -3.33301 -68 -10l-23 24z" />
    <glyph glyph-name="onesuperior" unicode="&#xb9;" horiz-adv-x="739" 
d="M111 560l2.99707 55.998h81c40.667 0 66.334 5.66699 77.001 17s19.334 42.333 26.001 93l67 393l23 147l-231 -97l-18 14l22 90c154.667 38.667 286.334 83 395.001 133l31 -21l-88 -504c-22.667 -131.333 -34 -206.666 -34 -225.999c0 -13.333 5 -22.666 15 -27.999
c14.667 -7.33301 44.334 -11 89.001 -11h75l-9 -56l-264 5c-78.667 0 -165.334 -1.66699 -260.001 -5z" />
    <glyph glyph-name="ordmasculine" unicode="&#xba;" horiz-adv-x="682" 
d="M103 958c0 95.333 18.002 181.999 54.002 259.999c22 47.333 66.5 92 133.5 134s134.167 63 201.5 63c72 0 126.167 -17.667 162.5 -53s54.5 -88.333 54.5 -159c0 -88 -20.333 -171 -61 -249c-24.667 -47.333 -71.334 -91.166 -140.001 -131.499
s-135.334 -60.5 -200.001 -60.5c-67.333 0 -118.333 17 -153 51s-52 82.333 -52 145zM257.002 971.999c0 -50.667 10.3311 -87.832 30.998 -111.499s49.667 -35.5 87 -35.5c31.333 0 57.333 9.33301 78 28c28 24.667 50.333 65 67 121c24 76 36 148 36 216
c0 56 -10.5 96.333 -31.5 121s-49.5 37 -85.5 37c-31.333 0 -59.166 -10.667 -83.499 -32s-45.166 -61.333 -62.499 -120c-24 -80.667 -36 -155.334 -36 -224.001z" />
    <glyph glyph-name="guillemotright" unicode="&#xbb;" horiz-adv-x="1024" 
d="M434 123l261 375l-182 385l52 30c128 -159.333 242.333 -293 343 -401v-45l-289 -257l-139 -127zM43 120l257 376.999l-185 383l52 31c144.667 -176.667 260.667 -309 348 -397v-47c-56.667 -47.333 -116 -99.666 -178 -156.999l-248 -229z" />
    <glyph glyph-name="onequarter" unicode="&#xbc;" horiz-adv-x="1821" 
d="M111 560l2.99707 55.998h81c40.667 0 66.334 5.66699 77.001 17s19.334 42.333 26.001 93l67 393l23 147l-231 -97l-18 14l22 90c154.667 38.667 286.334 83 395.001 133l31 -21l-88 -504c-22.667 -131.333 -34 -206.666 -34 -225.999c0 -13.333 5 -22.666 15 -27.999
c14.667 -7.33301 44.334 -11 89.001 -11h75l-9 -56l-264 5c-78.667 0 -165.334 -1.66699 -260.001 -5zM456.997 -2.00195c44 60.667 102.332 150.001 174.999 268.001l553 901c64.667 111.333 106.334 187.666 125.001 228.999c40 -5.33301 70.333 -8 91 -8l50 1
c-50 -68.667 -108 -157 -174 -265l-554 -905c-64.667 -108.667 -106 -183 -124 -223l-78 4zM1196 -6.00098l7.00293 57h48c58.667 0 92 2.83301 100 8.5s15.667 28.834 23 69.501l15 85l-221 -2l-54 -1l-47 1l5 53l200 289c34.667 48 69.667 92.333 105 133
c53.333 62.667 84.666 100.667 93.999 114c46 5.33301 100.667 19 164 41l23 -18c-8.66699 -35.333 -19.334 -94 -32.001 -176l-55 -329l94 3l41 2l11 -9l-25 -105c-63.333 2.66699 -110 4 -140 4l-11 -81c-3.33301 -28.667 -5 -46.334 -5 -53.001
c0 -10.667 3.16699 -18.167 9.5 -22.5s19.5 -6.5 39.5 -6.5h103l-10 -57c-88.667 4 -167.334 6 -236.001 6c-32.667 0 -114.667 -2 -246 -6zM1420 304.999c26.667 170.667 52 318.667 76 444c-95.333 -118 -167.333 -209.667 -216 -275c-60 -82.667 -97 -139 -111 -169h251z
" />
    <glyph glyph-name="onehalf" unicode="&#xbd;" horiz-adv-x="1821" 
d="M111 560l2.99707 55.998h81c40.667 0 66.334 5.66699 77.001 17s19.334 42.333 26.001 93l67 393l23 147l-231 -97l-18 14l22 90c154.667 38.667 286.334 83 395.001 133l31 -21l-88 -504c-22.667 -131.333 -34 -206.666 -34 -225.999c0 -13.333 5 -22.666 15 -27.999
c14.667 -7.33301 44.334 -11 89.001 -11h75l-9 -56l-264 5c-78.667 0 -165.334 -1.66699 -260.001 -5zM423.997 -2.00195c44 60.667 102.332 150.001 174.999 268.001l553 901c64.667 111.333 106.334 187.666 125.001 228.999c40 -5.33301 70.333 -8 91 -8l50 1
c-50 -68.667 -108 -157 -174 -265l-554 -905c-64.667 -108.667 -106 -183 -124 -223l-78 4zM1060 -4.00098l5 43.001c65.333 58 125.333 114 180 168c162 160.667 243 289.667 243 387c0 44 -11.667 77.5 -35 100.5s-56.333 34.5 -99 34.5
c-37.333 0 -66.833 -7.83301 -88.5 -23.5s-49.167 -55.5 -82.5 -119.5l-52 16l73 172c27.333 24.667 57 43.167 89 55.5s66.333 18.5 103 18.5c82 0 145.833 -20.333 191.5 -61s68.5 -94.334 68.5 -161.001c0 -46 -13.167 -92 -39.5 -138s-77.833 -103.333 -154.5 -172
l-203 -181h232c69.333 0 124.666 4 165.999 12l16 -14c-17.333 -36 -31.666 -82.667 -42.999 -140c-131.333 6 -221.333 9 -270 9z" />
    <glyph glyph-name="threequarters" unicode="&#xbe;" horiz-adv-x="1821" 
d="M105 604l35.998 207.002l58 -4c-2.66699 -23.333 -4 -40 -4 -50c0 -46.667 12.167 -81.334 36.5 -104.001s60.833 -34 109.5 -34c54 0 97.833 19.333 131.5 58s50.5 90.667 50.5 156c0 50.667 -12.5 88.334 -37.5 113.001s-63.167 37 -114.5 37
c-31.333 0 -64.666 -6 -99.999 -18l-13 12l24 73c16.667 -4 33.334 -6 50.001 -6c60 0 105.5 14.167 136.5 42.5s46.5 64.833 46.5 109.5c0 35.333 -10.333 62.666 -31 81.999s-50 29 -88 29c-37.333 0 -68.333 -8.33301 -93 -25s-47.667 -46 -69 -88l-50 19
c25.333 43.333 50 90.666 74 141.999c24 20 52.333 35 85 45s70 15 112 15c75.333 0 132.166 -16 170.499 -48s57.5 -74 57.5 -126c0 -40.667 -12.333 -76.667 -37 -108s-73 -64.333 -145 -99c63.333 -10.667 110.833 -31.667 142.5 -63s47.5 -73.333 47.5 -126
c0 -80 -34.167 -149 -102.5 -207s-157.166 -87 -266.499 -87c-36 0 -72 4.5 -108 13.5s-72.333 22.167 -109 39.5zM423.998 -1.99805c44 60.667 102.332 150.001 174.999 268.001l553 901c64.667 111.333 106.334 187.666 125.001 228.999c40 -5.33301 70.333 -8 91 -8l50 1
c-50 -68.667 -108 -157 -174 -265l-554 -905c-64.667 -108.667 -106 -183 -124 -223l-78 4zM1196 -5.99707l7.00293 57h48c58.667 0 92 2.83301 100 8.5s15.667 28.834 23 69.501l15 85l-221 -2l-54 -1l-47 1l5 53l200 289c34.667 48 69.667 92.333 105 133
c53.333 62.667 84.666 100.667 93.999 114c46 5.33301 100.667 19 164 41l23 -18c-8.66699 -35.333 -19.334 -94 -32.001 -176l-55 -329l94 3l41 2l11 -9l-25 -105c-63.333 2.66699 -110 4 -140 4l-11 -81c-3.33301 -28.667 -5 -46.334 -5 -53.001
c0 -10.667 3.16699 -18.167 9.5 -22.5s19.5 -6.5 39.5 -6.5h103l-10 -57c-88.667 4 -167.334 6 -236.001 6c-32.667 0 -114.667 -2 -246 -6zM1420 305.003c26.667 170.667 52 318.667 76 444c-95.333 -118 -167.333 -209.667 -216 -275c-60 -82.667 -97 -139 -111 -169h251z
" />
    <glyph glyph-name="questiondown" unicode="&#xbf;" horiz-adv-x="909" 
d="M649 855c0 -46.667 -12.334 -88.501 -37.001 -125.501s-61 -55.5 -109 -55.5c-38.667 0 -69.167 11.333 -91.5 34s-33.5 52 -33.5 88c0 52.667 14.333 95.334 43 128.001s65.334 49 110.001 49c36.667 0 65.5 -10.5 86.5 -31.5s31.5 -49.833 31.5 -86.5zM443.999 568.999
l11.0029 -9.99805c31.333 -30 52.333 -56.167 63 -78.5s16 -46.833 16 -73.5c0 -30.667 -9.83301 -64.167 -29.5 -100.5s-57.834 -82.833 -114.501 -139.5l-45 -46c-58.667 -58.667 -100.334 -111 -125.001 -157c-18.667 -35.333 -28 -71 -28 -107
c0 -50 17.167 -90.5 51.5 -121.5s80.5 -46.5 138.5 -46.5c30 0 59.667 5.5 89 16.5s50.666 23.833 63.999 38.5c21.333 24 39 53.333 53 88l23 54l67 -9c-35.333 -80 -64.333 -166 -87 -258c-54 -33.333 -101.833 -56.333 -143.5 -69s-86.834 -19 -135.501 -19
c-118 0 -209.5 28.667 -274.5 86s-97.5 131.666 -97.5 222.999c0 46.667 8.33301 89.5 25 128.5s39 72.5 67 100.5c42.667 41.333 75.667 70.333 99 87l138 97c74.667 52 122.834 91.5 144.501 118.5s32.5 52.5 32.5 76.5c0 31.333 -15.667 59.666 -47 84.999z" />
    <glyph glyph-name="Agrave" unicode="&#xc0;" horiz-adv-x="1479" 
d="M-97 -10l2.99805 69h39c26.667 0 49 3.33301 67 10s32.667 17.667 44 33l80 136l529 904c74.667 127.333 124.334 215 149.001 263h197c8.66699 -66 18.334 -134.667 29.001 -206l138 -880c14.667 -95.333 25.5 -156.833 32.5 -184.5s15.167 -45.5 24.5 -53.5
s28 -13.333 56 -16l45 -5c15.333 -0.666992 31.333 -1 48 -1l1 -69c-81.333 6.66699 -175.333 10 -282 10c-136.667 0 -249 -3.33301 -337 -10l1 69h39c46 0 79 4 99 12s30 24.333 30 49c0 41.333 -5.33301 98 -16 170l-34 252l-159 1l-297 -1l-84 -150
c-87.333 -158 -131 -252.667 -131 -284c0 -15.333 8 -26.333 24 -33c25.333 -10.667 78 -16 158 -16l-12 -69c-82 6.66699 -162.667 10 -242 10c-80 0 -159.667 -3.33301 -239 -10zM787.998 1172l-310 -531l197 -2l195 2zM1122 1489l-81.001 0.000976562l-247 175
c-40 28 -64.667 48.667 -74 62s-14 28.666 -14 45.999c0 22.667 7.83301 41.5 23.5 56.5s35.834 22.5 60.501 22.5c22 0 41.333 -5.5 58 -16.5s41.667 -38.5 75 -82.5z" />
    <glyph glyph-name="Aacute" unicode="&#xc1;" horiz-adv-x="1479" 
d="M-97 -10l2.99805 69h39c26.667 0 49 3.33301 67 10s32.667 17.667 44 33l80 136l529 904c74.667 127.333 124.334 215 149.001 263h197c8.66699 -66 18.334 -134.667 29.001 -206l138 -880c14.667 -95.333 25.5 -156.833 32.5 -184.5s15.167 -45.5 24.5 -53.5
s28 -13.333 56 -16l45 -5c15.333 -0.666992 31.333 -1 48 -1l1 -69c-81.333 6.66699 -175.333 10 -282 10c-136.667 0 -249 -3.33301 -337 -10l1 69h39c46 0 79 4 99 12s30 24.333 30 49c0 41.333 -5.33301 98 -16 170l-34 252l-159 1l-297 -1l-84 -150
c-87.333 -158 -131 -252.667 -131 -284c0 -15.333 8 -26.333 24 -33c25.333 -10.667 78 -16 158 -16l-12 -69c-82 6.66699 -162.667 10 -242 10c-80 0 -159.667 -3.33301 -239 -10zM787.998 1172l-310 -531l197 -2l195 2zM821.998 1489h-87.001l242 255
c49.333 50.667 81.333 80.834 96 90.501s30.334 14.5 47.001 14.5c26 0 47.667 -8.16699 65 -24.5s26 -36.5 26 -60.5c0 -18 -5.33301 -33.833 -16 -47.5s-33 -29.834 -67 -48.501z" />
    <glyph glyph-name="Acircumflex" unicode="&#xc2;" horiz-adv-x="1479" 
d="M-97 -10l2.99805 69h39c26.667 0 49 3.33301 67 10s32.667 17.667 44 33l80 136l529 904c74.667 127.333 124.334 215 149.001 263h197c8.66699 -66 18.334 -134.667 29.001 -206l138 -880c14.667 -95.333 25.5 -156.833 32.5 -184.5s15.167 -45.5 24.5 -53.5
s28 -13.333 56 -16l45 -5c15.333 -0.666992 31.333 -1 48 -1l1 -69c-81.333 6.66699 -175.333 10 -282 10c-136.667 0 -249 -3.33301 -337 -10l1 69h39c46 0 79 4 99 12s30 24.333 30 49c0 41.333 -5.33301 98 -16 170l-34 252l-159 1l-297 -1l-84 -150
c-87.333 -158 -131 -252.667 -131 -284c0 -15.333 8 -26.333 24 -33c25.333 -10.667 78 -16 158 -16l-12 -69c-82 6.66699 -162.667 10 -242 10c-80 0 -159.667 -3.33301 -239 -10zM787.998 1172l-310 -531l197 -2l195 2zM909.998 1839h142l180 -350h-90l-181 205l-271 -205
h-102z" />
    <glyph glyph-name="Atilde" unicode="&#xc3;" horiz-adv-x="1479" 
d="M-97 -10l2.99805 69h39c26.667 0 49 3.33301 67 10s32.667 17.667 44 33l80 136l529 904c74.667 127.333 124.334 215 149.001 263h197c8.66699 -66 18.334 -134.667 29.001 -206l138 -880c14.667 -95.333 25.5 -156.833 32.5 -184.5s15.167 -45.5 24.5 -53.5
s28 -13.333 56 -16l45 -5c15.333 -0.666992 31.333 -1 48 -1l1 -69c-81.333 6.66699 -175.333 10 -282 10c-136.667 0 -249 -3.33301 -337 -10l1 69h39c46 0 79 4 99 12s30 24.333 30 49c0 41.333 -5.33301 98 -16 170l-34 252l-159 1l-297 -1l-84 -150
c-87.333 -158 -131 -252.667 -131 -284c0 -15.333 8 -26.333 24 -33c25.333 -10.667 78 -16 158 -16l-12 -69c-82 6.66699 -162.667 10 -242 10c-80 0 -159.667 -3.33301 -239 -10zM787.998 1172l-310 -531l197 -2l195 2zM647.998 1554l-74.002 -0.000976562
c18.667 80 47.334 139 86.001 177s83 57 133 57c23.333 0 47.5 -3.66699 72.5 -11s65.5 -24 121.5 -50c60.667 -28 103.334 -42 128.001 -42c38 0 70 35.667 96 107h73c-14 -76 -41.167 -134.333 -81.5 -175s-86.5 -61 -138.5 -61c-32.667 0 -76 12.333 -130 37
c-73.333 32.667 -120 52.334 -140 59.001c-15.333 4.66699 -30 7 -44 7c-47.333 0 -81.333 -35 -102 -105z" />
    <glyph glyph-name="Adieresis" unicode="&#xc4;" horiz-adv-x="1479" 
d="M-97 -10l2.99805 69h39c26.667 0 49 3.33301 67 10s32.667 17.667 44 33l80 136l529 904c74.667 127.333 124.334 215 149.001 263h197c8.66699 -66 18.334 -134.667 29.001 -206l138 -880c14.667 -95.333 25.5 -156.833 32.5 -184.5s15.167 -45.5 24.5 -53.5
s28 -13.333 56 -16l45 -5c15.333 -0.666992 31.333 -1 48 -1l1 -69c-81.333 6.66699 -175.333 10 -282 10c-136.667 0 -249 -3.33301 -337 -10l1 69h39c46 0 79 4 99 12s30 24.333 30 49c0 41.333 -5.33301 98 -16 170l-34 252l-159 1l-297 -1l-84 -150
c-87.333 -158 -131 -252.667 -131 -284c0 -15.333 8 -26.333 24 -33c25.333 -10.667 78 -16 158 -16l-12 -69c-82 6.66699 -162.667 10 -242 10c-80 0 -159.667 -3.33301 -239 -10zM787.998 1172l-310 -531l197 -2l195 2zM717.998 1732
c33.333 0 62.002 -11.832 86.002 -35.499s36 -52.5 36 -86.5s-11.833 -62.667 -35.5 -86s-51.834 -35 -84.501 -35c-33.333 0 -62 12 -86 36s-36 53 -36 87c0 33.333 11.667 61.666 35 84.999s51.666 35 84.999 35zM1140 1732c33.333 0 62.002 -11.832 86.002 -35.499
s36 -52.5 36 -86.5s-11.833 -62.667 -35.5 -86s-51.834 -35 -84.501 -35c-33.333 0 -62 12 -86 36s-36 53 -36 87c0 33.333 11.667 61.666 35 84.999s51.666 35 84.999 35z" />
    <glyph glyph-name="Aring" unicode="&#xc5;" horiz-adv-x="1479" 
d="M-97 -10l2.99805 69h39c26.667 0 49 3.33301 67 10s32.667 17.667 44 33l80 136l529 904c74.667 127.333 124.334 215 149.001 263h197c8.66699 -66 18.334 -134.667 29.001 -206l138 -880c14.667 -95.333 25.5 -156.833 32.5 -184.5s15.167 -45.5 24.5 -53.5
s28 -13.333 56 -16l45 -5c15.333 -0.666992 31.333 -1 48 -1l1 -69c-81.333 6.66699 -175.333 10 -282 10c-136.667 0 -249 -3.33301 -337 -10l1 69h39c46 0 79 4 99 12s30 24.333 30 49c0 41.333 -5.33301 98 -16 170l-34 252l-159 1l-297 -1l-84 -150
c-87.333 -158 -131 -252.667 -131 -284c0 -15.333 8 -26.333 24 -33c25.333 -10.667 78 -16 158 -16l-12 -69c-82 6.66699 -162.667 10 -242 10c-80 0 -159.667 -3.33301 -239 -10zM787.998 1172l-310 -531l197 -2l195 2zM934.998 1888
c55.333 0 102.666 -19.667 141.999 -59s59 -87 59 -143c0 -54.667 -19.167 -101.167 -57.5 -139.5s-84.833 -57.5 -139.5 -57.5c-55.333 0 -102.833 19.667 -142.5 59s-59.5 86.666 -59.5 141.999c0 54.667 19.333 101.334 58 140.001s85.334 58 140.001 58zM935.998 1810
c-34 0 -62.668 -11.668 -86.001 -35.001s-35 -51.666 -35 -84.999c0 -34 12 -63.167 36 -87.5s53 -36.5 87 -36.5c33.333 0 61.833 11.833 85.5 35.5s35.5 52.167 35.5 85.5c0 34 -12.167 63 -36.5 87s-53.166 36 -86.499 36z" />
    <glyph glyph-name="AE" unicode="&#xc6;" horiz-adv-x="1933" 
d="M-66 -9l11 68.002l36 2c40 2 65.333 6.66699 76 14s37.334 42.333 80.001 105l644 1002c34 53.333 51 85 51 95c0 13.333 -7.83301 23.666 -23.5 30.999s-56.5 11 -122.5 11h-68l13 76h255l372 -1l595 9l42 -1l10 -9c-10.667 -42.667 -19.334 -83.334 -26.001 -122.001
l-28 -200h-72c5.33301 40 8 72 8 96c0 48.667 -4.33301 78.5 -13 89.5s-32 19.5 -70 25.5c-58 9.33301 -138 14 -240 14c-43.333 0 -91.333 -1.33301 -144 -4l-86 -528l171 -2c138 0 233.333 4 286 12l9 -10l-28 -97l-80 4c-72 4.66699 -174.333 7 -307 7h-67l-74 -419
c-10 -58.667 -17.333 -110 -22 -154c106 -6 176 -9 210 -9c104.667 0 190 6 256 18c36.667 6.66699 60.834 16.334 72.501 29.001s26.5 50.667 44.5 114l26 95h71l-37 -206c-10 -52.667 -16.333 -96.334 -19 -131.001l-18 -22c-134 3.33301 -247.667 5 -341 5h-174l-196 2
c-108 0 -209.667 -3 -305 -9l12 68c57.333 6 93.166 14 107.499 24s24.833 27.667 31.5 53c22 113.333 46 249 72 407c-53.333 1.33301 -100.333 2 -141 2l-305 -2c-93.333 -144 -162.666 -264.333 -207.999 -361c-18.667 -40.667 -28 -66 -28 -76
c0 -12.667 7.33301 -23 22 -31c20 -10.667 52 -16 96 -16h58l-12 -68c-92 6 -170.333 9 -235 9c-58.667 0 -141.334 -3 -248.001 -9zM951 635.002l79.001 478c12 92.667 18 148 18 166c0 20 -10.333 30 -31 30c-16 0 -31.833 -7.33301 -47.5 -22s-43.834 -54 -84.501 -118
l-343 -537l143 3h266z" />
    <glyph glyph-name="Ccedilla" unicode="&#xc7;" horiz-adv-x="1403" 
d="M1279 244l-24.0029 -78.998c-110 -64.667 -189.167 -107.334 -237.5 -128.001s-100 -36.5 -155 -47.5s-112.5 -16.5 -172.5 -16.5c-181.333 0 -320.666 47.167 -417.999 141.5s-146 228.833 -146 403.5s36.333 326.167 109 454.5s181.334 234.166 326.001 317.499
s295.667 125 453 125c76.667 0 149.334 -8.83301 218.001 -26.5s124.667 -39.834 168 -66.501c-40.667 -132 -65.334 -243.667 -74.001 -335h-71c3.33301 26 5 50.333 5 73c0 26.667 -2.66699 68.667 -8 126c-44.667 34.667 -92.834 60 -144.501 76s-113.167 24 -184.5 24
c-114 0 -204.833 -23.167 -272.5 -69.5s-122.167 -123.166 -163.5 -230.499c-52.667 -134.667 -79 -283.334 -79 -446.001c0 -147.333 34.333 -257.166 103 -329.499s167.334 -108.5 296.001 -108.5c70.667 0 139.834 11.333 207.501 34s148.5 64.667 242.5 126z
M672.997 8.00195h83.001l-92 -139c25.333 2.66699 46.666 4 63.999 4c50.667 0 91.834 -13.833 123.501 -41.5s47.5 -62.5 47.5 -104.5c0 -46.667 -22.5 -87.334 -67.5 -122.001s-106.833 -52 -185.5 -52c-71.333 0 -143 16 -215 48l39 64
c57.333 -22.667 106.666 -34 147.999 -34c34.667 0 62 8.33301 82 25s30 37 30 61c0 22.667 -8.5 41.334 -25.5 56.001s-41.833 22 -74.5 22c-20 0 -42.667 -3.33301 -68 -10l-23 24z" />
    <glyph glyph-name="Egrave" unicode="&#xc8;" horiz-adv-x="1251" 
d="M-7 -10l10.998 69.002c70 9.33301 111 19.666 123 30.999s26.333 57.666 43 138.999c6.66699 33.333 33.334 189.666 80.001 468.999l69 414c13.333 79.333 20 132.333 20 159c0 18 -6.66699 30.667 -20 38c-21.333 12 -55.666 18 -102.999 18h-74l11 68l118 -3l111 -4
l368 4l330 1c52 0 94 -2.66699 126 -8l10 -8c-21.333 -104.667 -38.666 -209.334 -51.999 -314.001h-70l3 66l1 80c0 30.667 -9.66699 49.334 -29 56.001c-56 20.667 -153.667 31 -293 31c-58.667 0 -114.667 -4 -168 -12l-85 -510l293 -8
c25.333 0 84.666 2.66699 177.999 8l6 -13l-24 -97c-132 6.66699 -261.667 10 -389 10c-28.667 0 -55.667 -0.666992 -81 -2l-94 -564c71.333 -9.33301 143 -14 215 -14c108 0 198.333 6.33301 271 19c38.667 6.66699 62.334 14 71.001 22
c12 12.667 28.667 55.334 50 128.001l26 83h72l-32 -182c-11.333 -60 -19.333 -111.333 -24 -154l-15 -17c-30.667 -2 -62.334 -3 -95.001 -3l-783 14c-56 0 -114.333 -4.66699 -175 -14zM965.998 1489l-81.001 0.000976562l-247 175c-40 28 -64.667 48.667 -74 62
s-14 28.666 -14 45.999c0 22.667 7.83301 41.5 23.5 56.5s35.834 22.5 60.501 22.5c22 0 41.333 -5.5 58 -16.5s41.667 -38.5 75 -82.5z" />
    <glyph glyph-name="Eacute" unicode="&#xc9;" horiz-adv-x="1251" 
d="M-7 -10l10.998 69.002c70 9.33301 111 19.666 123 30.999s26.333 57.666 43 138.999c6.66699 33.333 33.334 189.666 80.001 468.999l69 414c13.333 79.333 20 132.333 20 159c0 18 -6.66699 30.667 -20 38c-21.333 12 -55.666 18 -102.999 18h-74l11 68l118 -3l111 -4
l368 4l330 1c52 0 94 -2.66699 126 -8l10 -8c-21.333 -104.667 -38.666 -209.334 -51.999 -314.001h-70l3 66l1 80c0 30.667 -9.66699 49.334 -29 56.001c-56 20.667 -153.667 31 -293 31c-58.667 0 -114.667 -4 -168 -12l-85 -510l293 -8
c25.333 0 84.666 2.66699 177.999 8l6 -13l-24 -97c-132 6.66699 -261.667 10 -389 10c-28.667 0 -55.667 -0.666992 -81 -2l-94 -564c71.333 -9.33301 143 -14 215 -14c108 0 198.333 6.33301 271 19c38.667 6.66699 62.334 14 71.001 22
c12 12.667 28.667 55.334 50 128.001l26 83h72l-32 -182c-11.333 -60 -19.333 -111.333 -24 -154l-15 -17c-30.667 -2 -62.334 -3 -95.001 -3l-783 14c-56 0 -114.333 -4.66699 -175 -14zM643.998 1489h-87.001l242 255c49.333 50.667 81.333 80.834 96 90.501
s30.334 14.5 47.001 14.5c26 0 47.667 -8.16699 65 -24.5s26 -36.5 26 -60.5c0 -18 -5.33301 -33.833 -16 -47.5s-33 -29.834 -67 -48.501z" />
    <glyph glyph-name="Ecircumflex" unicode="&#xca;" horiz-adv-x="1251" 
d="M-7 -10l10.998 69.002c70 9.33301 111 19.666 123 30.999s26.333 57.666 43 138.999c6.66699 33.333 33.334 189.666 80.001 468.999l69 414c13.333 79.333 20 132.333 20 159c0 18 -6.66699 30.667 -20 38c-21.333 12 -55.666 18 -102.999 18h-74l11 68l118 -3l111 -4
l368 4l330 1c52 0 94 -2.66699 126 -8l10 -8c-21.333 -104.667 -38.666 -209.334 -51.999 -314.001h-70l3 66l1 80c0 30.667 -9.66699 49.334 -29 56.001c-56 20.667 -153.667 31 -293 31c-58.667 0 -114.667 -4 -168 -12l-85 -510l293 -8
c25.333 0 84.666 2.66699 177.999 8l6 -13l-24 -97c-132 6.66699 -261.667 10 -389 10c-28.667 0 -55.667 -0.666992 -81 -2l-94 -564c71.333 -9.33301 143 -14 215 -14c108 0 198.333 6.33301 271 19c38.667 6.66699 62.334 14 71.001 22
c12 12.667 28.667 55.334 50 128.001l26 83h72l-32 -182c-11.333 -60 -19.333 -111.333 -24 -154l-15 -17c-30.667 -2 -62.334 -3 -95.001 -3l-783 14c-56 0 -114.333 -4.66699 -175 -14zM724.998 1839h142l180 -350h-90l-181 205l-271 -205h-102z" />
    <glyph glyph-name="Edieresis" unicode="&#xcb;" horiz-adv-x="1251" 
d="M-7 -10l10.998 69.002c70 9.33301 111 19.666 123 30.999s26.333 57.666 43 138.999c6.66699 33.333 33.334 189.666 80.001 468.999l69 414c13.333 79.333 20 132.333 20 159c0 18 -6.66699 30.667 -20 38c-21.333 12 -55.666 18 -102.999 18h-74l11 68l118 -3l111 -4
l368 4l330 1c52 0 94 -2.66699 126 -8l10 -8c-21.333 -104.667 -38.666 -209.334 -51.999 -314.001h-70l3 66l1 80c0 30.667 -9.66699 49.334 -29 56.001c-56 20.667 -153.667 31 -293 31c-58.667 0 -114.667 -4 -168 -12l-85 -510l293 -8
c25.333 0 84.666 2.66699 177.999 8l6 -13l-24 -97c-132 6.66699 -261.667 10 -389 10c-28.667 0 -55.667 -0.666992 -81 -2l-94 -564c71.333 -9.33301 143 -14 215 -14c108 0 198.333 6.33301 271 19c38.667 6.66699 62.334 14 71.001 22
c12 12.667 28.667 55.334 50 128.001l26 83h72l-32 -182c-11.333 -60 -19.333 -111.333 -24 -154l-15 -17c-30.667 -2 -62.334 -3 -95.001 -3l-783 14c-56 0 -114.333 -4.66699 -175 -14zM543.998 1732c33.333 0 62.002 -11.832 86.002 -35.499s36 -52.5 36 -86.5
s-11.833 -62.667 -35.5 -86s-51.834 -35 -84.501 -35c-33.333 0 -62 12 -86 36s-36 53 -36 87c0 33.333 11.667 61.666 35 84.999s51.666 35 84.999 35zM966 1732c33.333 0 62.002 -11.832 86.002 -35.499s36 -52.5 36 -86.5s-11.833 -62.667 -35.5 -86
s-51.834 -35 -84.501 -35c-33.333 0 -62 12 -86 36s-36 53 -36 87c0 33.333 11.667 61.666 35 84.999s51.666 35 84.999 35z" />
    <glyph glyph-name="Igrave" unicode="&#xcc;" horiz-adv-x="797" 
d="M-21 -10l11 68.999h62c38 0 64 2.66699 78 8s24.333 11.833 31 19.5s13 22.167 19 43.5s19.333 92.333 40 213l86 501c38.667 232 58 372.667 58 422c0 21.333 -8.66699 36.833 -26 46.5s-56 14.5 -116 14.5h-53l11 68c184 -4.66699 293 -7 327 -7l331 7l-12 -68h-25
c-67.333 0 -108.333 -4.16699 -123 -12.5s-25.667 -23.166 -33 -44.499c-10.667 -30 -26 -105 -46 -225l-113 -680c-20.667 -122.667 -31 -202 -31 -238c0 -24 8.66699 -41.333 26 -52s54.333 -16 111 -16h60l-12 -69c-155.333 6.66699 -271.333 10 -348 10
c-92.667 0 -197 -3.33301 -313 -10zM739 1489l-81.001 0.000976562l-247 175c-40 28 -64.667 48.667 -74 62s-14 28.666 -14 45.999c0 22.667 7.83301 41.5 23.5 56.5s35.834 22.5 60.501 22.5c22 0 41.333 -5.5 58 -16.5s41.667 -38.5 75 -82.5z" />
    <glyph glyph-name="Iacute" unicode="&#xcd;" horiz-adv-x="797" 
d="M-21 -10l11 68.999h62c38 0 64 2.66699 78 8s24.333 11.833 31 19.5s13 22.167 19 43.5s19.333 92.333 40 213l86 501c38.667 232 58 372.667 58 422c0 21.333 -8.66699 36.833 -26 46.5s-56 14.5 -116 14.5h-53l11 68c184 -4.66699 293 -7 327 -7l331 7l-12 -68h-25
c-67.333 0 -108.333 -4.16699 -123 -12.5s-25.667 -23.166 -33 -44.499c-10.667 -30 -26 -105 -46 -225l-113 -680c-20.667 -122.667 -31 -202 -31 -238c0 -24 8.66699 -41.333 26 -52s54.333 -16 111 -16h60l-12 -69c-155.333 6.66699 -271.333 10 -348 10
c-92.667 0 -197 -3.33301 -313 -10zM439 1489h-87.001l242 255c49.333 50.667 81.333 80.834 96 90.501s30.334 14.5 47.001 14.5c26 0 47.667 -8.16699 65 -24.5s26 -36.5 26 -60.5c0 -18 -5.33301 -33.833 -16 -47.5s-33 -29.834 -67 -48.501z" />
    <glyph glyph-name="Icircumflex" unicode="&#xce;" horiz-adv-x="797" 
d="M-21 -10l11 68.999h62c38 0 64 2.66699 78 8s24.333 11.833 31 19.5s13 22.167 19 43.5s19.333 92.333 40 213l86 501c38.667 232 58 372.667 58 422c0 21.333 -8.66699 36.833 -26 46.5s-56 14.5 -116 14.5h-53l11 68c184 -4.66699 293 -7 327 -7l331 7l-12 -68h-25
c-67.333 0 -108.333 -4.16699 -123 -12.5s-25.667 -23.166 -33 -44.499c-10.667 -30 -26 -105 -46 -225l-113 -680c-20.667 -122.667 -31 -202 -31 -238c0 -24 8.66699 -41.333 26 -52s54.333 -16 111 -16h60l-12 -69c-155.333 6.66699 -271.333 10 -348 10
c-92.667 0 -197 -3.33301 -313 -10zM514 1839h142l180 -350h-90l-181 205l-271 -205h-102z" />
    <glyph glyph-name="Idieresis" unicode="&#xcf;" horiz-adv-x="797" 
d="M-21 -10l11 68.999h62c38 0 64 2.66699 78 8s24.333 11.833 31 19.5s13 22.167 19 43.5s19.333 92.333 40 213l86 501c38.667 232 58 372.667 58 422c0 21.333 -8.66699 36.833 -26 46.5s-56 14.5 -116 14.5h-53l11 68c184 -4.66699 293 -7 327 -7l331 7l-12 -68h-25
c-67.333 0 -108.333 -4.16699 -123 -12.5s-25.667 -23.166 -33 -44.499c-10.667 -30 -26 -105 -46 -225l-113 -680c-20.667 -122.667 -31 -202 -31 -238c0 -24 8.66699 -41.333 26 -52s54.333 -16 111 -16h60l-12 -69c-155.333 6.66699 -271.333 10 -348 10
c-92.667 0 -197 -3.33301 -313 -10zM328 1732c33.333 0 62.002 -11.832 86.002 -35.499s36 -52.5 36 -86.5s-11.833 -62.667 -35.5 -86s-51.834 -35 -84.501 -35c-33.333 0 -62 12 -86 36s-36 53 -36 87c0 33.333 11.667 61.666 35 84.999s51.666 35 84.999 35z
M750.002 1732c33.333 0 62.002 -11.832 86.002 -35.499s36 -52.5 36 -86.5s-11.833 -62.667 -35.5 -86s-51.834 -35 -84.501 -35c-33.333 0 -62 12 -86 36s-36 53 -36 87c0 33.333 11.667 61.666 35 84.999s51.666 35 84.999 35z" />
    <glyph glyph-name="Eth" unicode="&#xd0;" horiz-adv-x="1593" 
d="M246 676l-170.003 -0.000976562l17 98h170l34 205c24 143.333 36 237.333 36 282c0 24.667 -7.33301 40.334 -22 47.001c-25.333 12.667 -77 19 -155 19h-22l11 68c68 -4 165.667 -6 293 -6l464 6c154 0 273 -20.5 357 -61.5s149.5 -102.167 196.5 -183.5
s70.5 -180.333 70.5 -297c0 -157.333 -36.667 -302.833 -110 -436.5s-172.833 -237.834 -298.5 -312.501s-265.167 -112 -418.5 -112l-386 8c-103.333 0 -208.666 -3.33301 -315.999 -10l11 69c20.667 0 51.334 5.66699 92.001 17c17.333 4.66699 29.833 12.334 37.5 23.001
s16.834 43 27.501 97l27 151zM505.997 675.999l-28.998 -174.999l-63 -381l91 -15c95.333 -16.667 171 -25 227 -25c112 0 200 27.667 264 83c80 69.333 141.5 171.166 184.5 305.499s64.5 265.833 64.5 394.5c0 106 -17.333 192.333 -52 259
s-79.834 114.167 -135.501 142.5s-143.834 42.5 -264.501 42.5c-64.667 0 -126 -5.66699 -184 -17l-65 -387l-21 -129h376l-18 -98h-375z" />
    <glyph glyph-name="Ntilde" unicode="&#xd1;" horiz-adv-x="1593" 
d="M-35 -9l10.999 67.999h51c37.333 0 62.666 4 75.999 12s23.666 19.667 30.999 35c10.667 22 29 98.667 55 230l64 336l90 542c-28.667 48 -54 78.833 -76 92.5s-55.667 20.5 -101 20.5h-75l12 68c90 -4.66699 172 -7 246 -7c68 0 133 2.33301 195 7
c10.667 -17.333 37.334 -64 80.001 -140c26 -46 49 -85 69 -117l505 -849l62 370c59.333 356.667 89 560.334 89 611.001c0 19.333 -6.5 33.666 -19.5 42.999s-36.167 14 -69.5 14h-91l11 68c102 -4.66699 192.333 -7 271 -7c74.667 0 145.334 2.33301 212.001 7l-11 -68
h-70c-38.667 0 -64.5 -7.66699 -77.5 -23s-32.833 -86.666 -59.5 -213.999c-43.333 -206.667 -98 -509 -164 -907c-14.667 -86.667 -25 -153 -31 -199h-178l-166 290l-481 818l-64 -382c-55.333 -334.667 -83 -530.667 -83 -588c0 -22 6.16699 -38 18.5 -48
s34.833 -15 67.5 -15h90l-12 -68c-104 6 -188.667 9 -254 9c-69.333 0 -143.666 -3 -222.999 -9zM693.999 1547l-74.002 -0.000976562c18.667 80 47.334 139 86.001 177s83 57 133 57c23.333 0 47.5 -3.66699 72.5 -11s65.5 -24 121.5 -50
c60.667 -28 103.334 -42 128.001 -42c38 0 70 35.667 96 107h73c-14 -76 -41.167 -134.333 -81.5 -175s-86.5 -61 -138.5 -61c-32.667 0 -76 12.333 -130 37c-73.333 32.667 -120 52.334 -140 59.001c-15.333 4.66699 -30 7 -44 7c-47.333 0 -81.333 -35 -102 -105z" />
    <glyph glyph-name="Ograve" unicode="&#xd2;" horiz-adv-x="1706" 
d="M128 536c0 177.333 35.666 332.667 106.999 466s168.5 235.5 291.5 306.5s268.5 106.5 436.5 106.5c201.333 0 357.333 -51.667 468 -155s166 -244.333 166 -423c0 -156 -38.667 -302.5 -116 -439.5s-178.666 -242 -303.999 -315s-270 -109.5 -434 -109.5
c-196 0 -347.5 50.167 -454.5 150.5s-160.5 237.833 -160.5 412.5zM410.999 475.001c0 -93.333 14.666 -169.334 43.999 -228.001s73.833 -104.334 133.5 -137.001s129.167 -49 208.5 -49c98 0 181.5 26.667 250.5 80s130.667 151.833 185 295.5s81.5 299.834 81.5 468.501
c0 141.333 -32.833 247 -98.5 317s-159.167 105 -280.5 105c-105.333 0 -193.166 -26.5 -263.499 -79.5s-131.333 -149.167 -183 -288.5s-77.5 -300.666 -77.5 -483.999zM1172 1489l-81.001 0.000976562l-247 175c-40 28 -64.667 48.667 -74 62s-14 28.666 -14 45.999
c0 22.667 7.83301 41.5 23.5 56.5s35.834 22.5 60.501 22.5c22 0 41.333 -5.5 58 -16.5s41.667 -38.5 75 -82.5z" />
    <glyph glyph-name="Oacute" unicode="&#xd3;" horiz-adv-x="1706" 
d="M128 536c0 177.333 35.666 332.667 106.999 466s168.5 235.5 291.5 306.5s268.5 106.5 436.5 106.5c201.333 0 357.333 -51.667 468 -155s166 -244.333 166 -423c0 -156 -38.667 -302.5 -116 -439.5s-178.666 -242 -303.999 -315s-270 -109.5 -434 -109.5
c-196 0 -347.5 50.167 -454.5 150.5s-160.5 237.833 -160.5 412.5zM410.999 475.001c0 -93.333 14.666 -169.334 43.999 -228.001s73.833 -104.334 133.5 -137.001s129.167 -49 208.5 -49c98 0 181.5 26.667 250.5 80s130.667 151.833 185 295.5s81.5 299.834 81.5 468.501
c0 141.333 -32.833 247 -98.5 317s-159.167 105 -280.5 105c-105.333 0 -193.166 -26.5 -263.499 -79.5s-131.333 -149.167 -183 -288.5s-77.5 -300.666 -77.5 -483.999zM871.998 1489h-87.001l242 255c49.333 50.667 81.333 80.834 96 90.501s30.334 14.5 47.001 14.5
c26 0 47.667 -8.16699 65 -24.5s26 -36.5 26 -60.5c0 -18 -5.33301 -33.833 -16 -47.5s-33 -29.834 -67 -48.501z" />
    <glyph glyph-name="Ocircumflex" unicode="&#xd4;" horiz-adv-x="1706" 
d="M128 536c0 177.333 35.666 332.667 106.999 466s168.5 235.5 291.5 306.5s268.5 106.5 436.5 106.5c201.333 0 357.333 -51.667 468 -155s166 -244.333 166 -423c0 -156 -38.667 -302.5 -116 -439.5s-178.666 -242 -303.999 -315s-270 -109.5 -434 -109.5
c-196 0 -347.5 50.167 -454.5 150.5s-160.5 237.833 -160.5 412.5zM410.999 475.001c0 -93.333 14.666 -169.334 43.999 -228.001s73.833 -104.334 133.5 -137.001s129.167 -49 208.5 -49c98 0 181.5 26.667 250.5 80s130.667 151.833 185 295.5s81.5 299.834 81.5 468.501
c0 141.333 -32.833 247 -98.5 317s-159.167 105 -280.5 105c-105.333 0 -193.166 -26.5 -263.499 -79.5s-131.333 -149.167 -183 -288.5s-77.5 -300.666 -77.5 -483.999zM963.998 1839h142l180 -350h-90l-181 205l-271 -205h-102z" />
    <glyph glyph-name="Otilde" unicode="&#xd5;" horiz-adv-x="1706" 
d="M128 536c0 177.333 35.666 332.667 106.999 466s168.5 235.5 291.5 306.5s268.5 106.5 436.5 106.5c201.333 0 357.333 -51.667 468 -155s166 -244.333 166 -423c0 -156 -38.667 -302.5 -116 -439.5s-178.666 -242 -303.999 -315s-270 -109.5 -434 -109.5
c-196 0 -347.5 50.167 -454.5 150.5s-160.5 237.833 -160.5 412.5zM410.999 475.001c0 -93.333 14.666 -169.334 43.999 -228.001s73.833 -104.334 133.5 -137.001s129.167 -49 208.5 -49c98 0 181.5 26.667 250.5 80s130.667 151.833 185 295.5s81.5 299.834 81.5 468.501
c0 141.333 -32.833 247 -98.5 317s-159.167 105 -280.5 105c-105.333 0 -193.166 -26.5 -263.499 -79.5s-131.333 -149.167 -183 -288.5s-77.5 -300.666 -77.5 -483.999zM719.998 1547l-74.002 -0.000976562c18.667 80 47.334 139 86.001 177s83 57 133 57
c23.333 0 47.5 -3.66699 72.5 -11s65.5 -24 121.5 -50c60.667 -28 103.334 -42 128.001 -42c38 0 70 35.667 96 107h73c-14 -76 -41.167 -134.333 -81.5 -175s-86.5 -61 -138.5 -61c-32.667 0 -76 12.333 -130 37c-73.333 32.667 -120 52.334 -140 59.001
c-15.333 4.66699 -30 7 -44 7c-47.333 0 -81.333 -35 -102 -105z" />
    <glyph glyph-name="Odieresis" unicode="&#xd6;" horiz-adv-x="1706" 
d="M128 536c0 177.333 35.666 332.667 106.999 466s168.5 235.5 291.5 306.5s268.5 106.5 436.5 106.5c201.333 0 357.333 -51.667 468 -155s166 -244.333 166 -423c0 -156 -38.667 -302.5 -116 -439.5s-178.666 -242 -303.999 -315s-270 -109.5 -434 -109.5
c-196 0 -347.5 50.167 -454.5 150.5s-160.5 237.833 -160.5 412.5zM410.999 475.001c0 -93.333 14.666 -169.334 43.999 -228.001s73.833 -104.334 133.5 -137.001s129.167 -49 208.5 -49c98 0 181.5 26.667 250.5 80s130.667 151.833 185 295.5s81.5 299.834 81.5 468.501
c0 141.333 -32.833 247 -98.5 317s-159.167 105 -280.5 105c-105.333 0 -193.166 -26.5 -263.499 -79.5s-131.333 -149.167 -183 -288.5s-77.5 -300.666 -77.5 -483.999zM771.998 1732c33.333 0 62.002 -11.832 86.002 -35.499s36 -52.5 36 -86.5s-11.833 -62.667 -35.5 -86
s-51.834 -35 -84.501 -35c-33.333 0 -62 12 -86 36s-36 53 -36 87c0 33.333 11.667 61.666 35 84.999s51.666 35 84.999 35zM1194 1732c33.333 0 62.002 -11.832 86.002 -35.499s36 -52.5 36 -86.5s-11.833 -62.667 -35.5 -86s-51.834 -35 -84.501 -35
c-33.333 0 -62 12 -86 36s-36 53 -36 87c0 33.333 11.667 61.666 35 84.999s51.666 35 84.999 35z" />
    <glyph glyph-name="multiply" unicode="&#xd7;" horiz-adv-x="1241" 
d="M186 997l132 132l303 -303l303 303l132 -132l-303 -303l303 -303l-132 -132l-303 303l-303 -303l-132 132l303 303z" />
    <glyph glyph-name="Oslash" unicode="&#xd8;" horiz-adv-x="1706" 
d="M264 146c-91.333 92 -137 228 -137 408c0 164.667 36 314 108 448s169.667 236.333 293 307s266.333 106 429 106c166 0 299 -33 399 -99l176 189l74 -71l-168 -181c53.333 -52.667 93 -113.167 119 -181.5s39 -146.5 39 -234.5c0 -156 -38.5 -302.333 -115.5 -439
s-178.167 -241.667 -303.5 -315s-269 -110 -431 -110c-166 0 -300.333 35.667 -403 107l-181 -194l-76 69zM428 322l811.999 871c-37.333 43.333 -74.666 74 -111.999 92c-58.667 28 -123.667 42 -195 42c-104 0 -191 -26.333 -261 -79s-131.167 -148.667 -183.5 -288
s-78.5 -297 -78.5 -473c0 -60 6 -115 18 -165zM1287 1092l-816 -875c28 -46 71 -83.5 129 -112.5s123 -43.5 195 -43.5c98.667 0 182.5 26.667 251.5 80s130.833 151.833 185.5 295.5s82 300.167 82 469.5c0 68 -9 130 -27 186z" />
    <glyph glyph-name="Ugrave" unicode="&#xd9;" horiz-adv-x="1593" 
d="M1469 59l-11.001 -69.001c-73.333 6.66699 -170 10 -290 10c-50.667 0 -105.667 -2.33301 -165 -7l-14 12c2 12 7.66699 37 17 75c15.333 64.667 26.333 124.334 33 179.001c-102.667 -108 -199 -186.667 -289 -236c-60.667 -33.333 -130.667 -50 -210 -50
c-110 0 -198.333 31.333 -265 94s-100 141 -100 235c0 44 6 102.333 18 175l53 315c45.333 274.667 68 432.667 68 474c0 22 -6.5 37.667 -19.5 47s-39.5 14 -79.5 14h-83l12 68l312 -4c56.667 0 107 1.33301 151 4l11 -14c-32 -135.333 -59.667 -272.666 -83 -411.999
l-60 -362c-25.333 -152.667 -38 -244.667 -38 -276c0 -56 20 -101.667 60 -137s94.333 -53 163 -53c46 0 94.333 10.667 145 32s101.167 54.666 151.5 99.999s79 76 86 92s21.833 93 44.5 231l72 431c21.333 128.667 32 210.667 32 246c0 18 -7.66699 31.5 -23 40.5
s-46.666 13.5 -93.999 13.5h-76l12 68c114.667 -4.66699 206.667 -7 276 -7l369 7l-11 -68h-55c-58.667 0 -94 -10.667 -106 -32c-17.333 -30 -43.333 -148 -78 -354l-79 -477c-30.667 -181.333 -46 -292 -46 -332c0 -24.667 9.5 -43 28.5 -55s53.833 -18 104.5 -18h56z
M1037 1489l-81.001 0.000976562l-247 175c-40 28 -64.667 48.667 -74 62s-14 28.666 -14 45.999c0 22.667 7.83301 41.5 23.5 56.5s35.834 22.5 60.501 22.5c22 0 41.333 -5.5 58 -16.5s41.667 -38.5 75 -82.5z" />
    <glyph glyph-name="Uacute" unicode="&#xda;" horiz-adv-x="1593" 
d="M1469 59l-11.001 -69.001c-73.333 6.66699 -170 10 -290 10c-50.667 0 -105.667 -2.33301 -165 -7l-14 12c2 12 7.66699 37 17 75c15.333 64.667 26.333 124.334 33 179.001c-102.667 -108 -199 -186.667 -289 -236c-60.667 -33.333 -130.667 -50 -210 -50
c-110 0 -198.333 31.333 -265 94s-100 141 -100 235c0 44 6 102.333 18 175l53 315c45.333 274.667 68 432.667 68 474c0 22 -6.5 37.667 -19.5 47s-39.5 14 -79.5 14h-83l12 68l312 -4c56.667 0 107 1.33301 151 4l11 -14c-32 -135.333 -59.667 -272.666 -83 -411.999
l-60 -362c-25.333 -152.667 -38 -244.667 -38 -276c0 -56 20 -101.667 60 -137s94.333 -53 163 -53c46 0 94.333 10.667 145 32s101.167 54.666 151.5 99.999s79 76 86 92s21.833 93 44.5 231l72 431c21.333 128.667 32 210.667 32 246c0 18 -7.66699 31.5 -23 40.5
s-46.666 13.5 -93.999 13.5h-76l12 68c114.667 -4.66699 206.667 -7 276 -7l369 7l-11 -68h-55c-58.667 0 -94 -10.667 -106 -32c-17.333 -30 -43.333 -148 -78 -354l-79 -477c-30.667 -181.333 -46 -292 -46 -332c0 -24.667 9.5 -43 28.5 -55s53.833 -18 104.5 -18h56z
M815.999 1489h-87.001l242 255c49.333 50.667 81.333 80.834 96 90.501s30.334 14.5 47.001 14.5c26 0 47.667 -8.16699 65 -24.5s26 -36.5 26 -60.5c0 -18 -5.33301 -33.833 -16 -47.5s-33 -29.834 -67 -48.501z" />
    <glyph glyph-name="Ucircumflex" unicode="&#xdb;" horiz-adv-x="1593" 
d="M1469 59l-11.001 -69.001c-73.333 6.66699 -170 10 -290 10c-50.667 0 -105.667 -2.33301 -165 -7l-14 12c2 12 7.66699 37 17 75c15.333 64.667 26.333 124.334 33 179.001c-102.667 -108 -199 -186.667 -289 -236c-60.667 -33.333 -130.667 -50 -210 -50
c-110 0 -198.333 31.333 -265 94s-100 141 -100 235c0 44 6 102.333 18 175l53 315c45.333 274.667 68 432.667 68 474c0 22 -6.5 37.667 -19.5 47s-39.5 14 -79.5 14h-83l12 68l312 -4c56.667 0 107 1.33301 151 4l11 -14c-32 -135.333 -59.667 -272.666 -83 -411.999
l-60 -362c-25.333 -152.667 -38 -244.667 -38 -276c0 -56 20 -101.667 60 -137s94.333 -53 163 -53c46 0 94.333 10.667 145 32s101.167 54.666 151.5 99.999s79 76 86 92s21.833 93 44.5 231l72 431c21.333 128.667 32 210.667 32 246c0 18 -7.66699 31.5 -23 40.5
s-46.666 13.5 -93.999 13.5h-76l12 68c114.667 -4.66699 206.667 -7 276 -7l369 7l-11 -68h-55c-58.667 0 -94 -10.667 -106 -32c-17.333 -30 -43.333 -148 -78 -354l-79 -477c-30.667 -181.333 -46 -292 -46 -332c0 -24.667 9.5 -43 28.5 -55s53.833 -18 104.5 -18h56z
M896.999 1839h142l180 -350h-90l-181 205l-271 -205h-102z" />
    <glyph glyph-name="Udieresis" unicode="&#xdc;" horiz-adv-x="1593" 
d="M1469 59l-11.001 -69.001c-73.333 6.66699 -170 10 -290 10c-50.667 0 -105.667 -2.33301 -165 -7l-14 12c2 12 7.66699 37 17 75c15.333 64.667 26.333 124.334 33 179.001c-102.667 -108 -199 -186.667 -289 -236c-60.667 -33.333 -130.667 -50 -210 -50
c-110 0 -198.333 31.333 -265 94s-100 141 -100 235c0 44 6 102.333 18 175l53 315c45.333 274.667 68 432.667 68 474c0 22 -6.5 37.667 -19.5 47s-39.5 14 -79.5 14h-83l12 68l312 -4c56.667 0 107 1.33301 151 4l11 -14c-32 -135.333 -59.667 -272.666 -83 -411.999
l-60 -362c-25.333 -152.667 -38 -244.667 -38 -276c0 -56 20 -101.667 60 -137s94.333 -53 163 -53c46 0 94.333 10.667 145 32s101.167 54.666 151.5 99.999s79 76 86 92s21.833 93 44.5 231l72 431c21.333 128.667 32 210.667 32 246c0 18 -7.66699 31.5 -23 40.5
s-46.666 13.5 -93.999 13.5h-76l12 68c114.667 -4.66699 206.667 -7 276 -7l369 7l-11 -68h-55c-58.667 0 -94 -10.667 -106 -32c-17.333 -30 -43.333 -148 -78 -354l-79 -477c-30.667 -181.333 -46 -292 -46 -332c0 -24.667 9.5 -43 28.5 -55s53.833 -18 104.5 -18h56z
M714.999 1732c33.333 0 62.002 -11.832 86.002 -35.499s36 -52.5 36 -86.5s-11.833 -62.667 -35.5 -86s-51.834 -35 -84.501 -35c-33.333 0 -62 12 -86 36s-36 53 -36 87c0 33.333 11.667 61.666 35 84.999s51.666 35 84.999 35zM1137 1732
c33.333 0 62.002 -11.832 86.002 -35.499s36 -52.5 36 -86.5s-11.833 -62.667 -35.5 -86s-51.834 -35 -84.501 -35c-33.333 0 -62 12 -86 36s-36 53 -36 87c0 33.333 11.667 61.666 35 84.999s51.666 35 84.999 35z" />
    <glyph glyph-name="Yacute" unicode="&#xdd;" horiz-adv-x="1251" 
d="M226 -10l11.998 70.9961h80c40 0 68 4.5 84 13.5s27 22.833 33 41.5c11.333 56.667 20 103.334 26 140.001c23.333 141.333 35 224 35 248c0 54 -33.667 184.667 -101 392c-48.667 151.333 -95.667 251.333 -141 300c-25.333 27.333 -54.666 41 -87.999 41
c-25.333 0 -63.333 -11.333 -114 -34v67c36 24.667 66.667 47.667 92 69l90 75c18.667 3.33301 37 5 55 5c54 0 102.333 -15.667 145 -47s80.667 -87 114 -167c47.333 -113.333 89.333 -255.666 126 -426.999l36 -162c78 187.333 162.167 346.5 252.5 477.5
s167.5 218.167 231.5 261.5c43.333 30 87.666 45.333 132.999 46l-10 -186c-51.333 -9.33301 -100.666 -32.666 -147.999 -69.999c-70 -56 -139.5 -138.333 -208.5 -247s-122.5 -210.667 -160.5 -306c-25.333 -61.333 -48.666 -157 -69.999 -287l-15 -86
c-6.66699 -41.333 -10 -71.666 -10 -90.999c0 -24 8.33301 -41.167 25 -51.5s51.667 -15.5 105 -15.5h79l-12 -71c-94 7.33301 -180 11 -258 11c-106.667 0 -246 -3.66699 -418 -11zM743.998 1489h-87.001l242 255c49.333 50.667 81.333 80.834 96 90.501
s30.334 14.5 47.001 14.5c26 0 47.667 -8.16699 65 -24.5s26 -36.5 26 -60.5c0 -18 -5.33301 -33.833 -16 -47.5s-33 -29.834 -67 -48.501z" />
    <glyph glyph-name="Thorn" unicode="&#xde;" horiz-adv-x="1366" 
d="M486 371c-21.333 -122.667 -32 -204.666 -32 -245.999c0 -22.667 8.83301 -39.334 26.5 -50.001s54.5 -16 110.5 -16h60l-12 -69c-120 6.66699 -237 10 -351 10c-107.333 0 -210.666 -3.33301 -309.999 -10l11 69h62c51.333 0 84.5 6.16699 99.5 18.5
s28.167 46.833 39.5 103.5c16 81.333 40 217.666 72 408.999l43 254c38 231.333 57 372 57 422c0 22 -7 37 -21 45c-19.333 10.667 -59.333 16 -120 16h-53l11 68l289 -7l369 7l-12 -68h-25c-64 0 -103.333 -3.33301 -118 -10s-25.334 -16.667 -32.001 -30
c-8 -18 -21 -74 -39 -168l280 7c143.333 0 245 -31.667 305 -95s90 -145.666 90 -246.999c0 -132.667 -49.5 -246.5 -148.5 -341.5s-220.167 -142.5 -363.5 -142.5c-78.667 0 -174.667 23.667 -288 71zM497 438.001c79.333 -30 130.168 -47.668 152.501 -53.001
s46.5 -8 72.5 -8c49.333 0 96 15 140 45s80.333 76.167 109 138.5s43 131.833 43 208.5c0 88.667 -22.167 155.334 -66.5 200.001s-109.5 67 -195.5 67c-60.667 0 -113.334 -5 -158.001 -15z" />
    <glyph glyph-name="germandbls" unicode="&#xdf;" 
d="M73 828l7.99902 51.001c22.667 5.33301 75 22.333 157 51c28.667 10.667 47.667 18 57 22l18 72c12.667 50 24.334 84.667 35.001 104c26 46 75.667 99 149 159c95.333 78 175.166 132.167 239.499 162.5s125.833 45.5 184.5 45.5c64.667 0 118.5 -20.833 161.5 -62.5
s64.5 -94.167 64.5 -157.5c0 -50 -12 -99.167 -36 -147.5s-73.333 -108.5 -148 -180.5c-64 -62.667 -96 -114.667 -96 -156c0 -39.333 24.667 -90.666 74 -153.999c62 -80.667 100 -136.334 114 -167.001s21 -61.334 21 -92.001c0 -88 -48 -178.167 -144 -270.5
s-185.667 -138.5 -269 -138.5c-28.667 0 -59.5 3.5 -92.5 10.5s-67.833 17.167 -104.5 30.5c20.667 74 40.667 153.333 60 238h49v-102c22 -22.667 46.167 -39.834 72.5 -51.501s54.5 -17.5 84.5 -17.5c44.667 0 80.667 13.5 108 40.5s41 60.833 41 101.5
c0 21.333 -5.33301 44.666 -16 69.999s-40.667 76 -90 152c-47.333 72 -76.333 120.333 -87 145s-16 47 -16 67c0 24.667 5 47.667 15 69c13.333 28.667 36.333 62.667 69 102c72 85.333 116 141 132 167c21.333 34.667 37.5 70.834 48.5 108.501s16.5 74.167 16.5 109.5
c0 51.333 -14.667 92 -44 122s-68.333 45 -117 45c-56.667 0 -102.667 -18.333 -138 -55c-36 -37.333 -67.333 -114.666 -94 -231.999l-117 -505c-84 -364.667 -155.5 -612.667 -214.5 -744s-143.167 -240.333 -252.5 -327c-70 -55.333 -133 -83 -189 -83
c-18 0 -41 5.66699 -69 17c14 41.333 36.333 116.333 67 225h30c14.667 -26 32.167 -46.5 52.5 -61.5s39.833 -22.5 58.5 -22.5c30.667 0 55.834 15.333 75.501 46s43.5 114.667 71.5 252l193 942l-97 1z" />
    <glyph glyph-name="agrave" unicode="&#xe0;" 
d="M1032 239l20.9961 -64.999c-166 -134 -282.333 -201 -349 -201c-22 0 -38.333 7 -49 21c-15.333 19.333 -23 43.333 -23 72c0 40 23.333 152.667 70 338l18 71c-81.333 -128 -137.666 -211 -168.999 -249c-52 -64 -101.167 -114.667 -147.5 -152
s-92.5 -65.333 -138.5 -84c-27.333 -11.333 -50.666 -17 -69.999 -17c-36 0 -64.333 13.667 -85 41s-31 73 -31 137c0 76.667 14.5 168.667 43.5 276s59.833 190.333 92.5 249c17.333 30.667 54 68 110 112c106.667 84 181.834 135.667 225.501 155s91.167 29 142.5 29
c36.667 0 73 -4.16699 109 -12.5s71.333 -20.833 106 -37.5l93 51l33 -21c-5.33301 -12.667 -12.333 -33.334 -21 -62.001l-38 -134l-113 -481c-10 -42 -15 -74.333 -15 -97c0 -23.333 8 -35 24 -35c28.667 0 82.334 32 161.001 96zM769.996 820.001
c-30 14.667 -58.833 25.666 -86.5 32.999s-54.5 11 -80.5 11c-46 0 -85.167 -15.5 -117.5 -46.5s-67.5 -109.167 -105.5 -234.5c-50.667 -166 -76 -290 -76 -372c0 -23.333 4 -40.833 12 -52.5s17.333 -17.5 28 -17.5c10 0 23.667 5.66699 41 17
c44.667 30 96.667 82.833 156 158.5s108.333 154.334 147 236.001s63 154.167 73 217.5zM909.996 1061l-81.001 0.000976562l-247 175c-40 28 -64.667 48.667 -74 62s-14 28.666 -14 45.999c0 22.667 7.83301 41.5 23.5 56.5s35.834 22.5 60.501 22.5
c22 0 41.333 -5.5 58 -16.5s41.667 -38.5 75 -82.5z" />
    <glyph glyph-name="aacute" unicode="&#xe1;" 
d="M1032 239l20.9961 -64.999c-166 -134 -282.333 -201 -349 -201c-22 0 -38.333 7 -49 21c-15.333 19.333 -23 43.333 -23 72c0 40 23.333 152.667 70 338l18 71c-81.333 -128 -137.666 -211 -168.999 -249c-52 -64 -101.167 -114.667 -147.5 -152
s-92.5 -65.333 -138.5 -84c-27.333 -11.333 -50.666 -17 -69.999 -17c-36 0 -64.333 13.667 -85 41s-31 73 -31 137c0 76.667 14.5 168.667 43.5 276s59.833 190.333 92.5 249c17.333 30.667 54 68 110 112c106.667 84 181.834 135.667 225.501 155s91.167 29 142.5 29
c36.667 0 73 -4.16699 109 -12.5s71.333 -20.833 106 -37.5l93 51l33 -21c-5.33301 -12.667 -12.333 -33.334 -21 -62.001l-38 -134l-113 -481c-10 -42 -15 -74.333 -15 -97c0 -23.333 8 -35 24 -35c28.667 0 82.334 32 161.001 96zM769.996 820.001
c-30 14.667 -58.833 25.666 -86.5 32.999s-54.5 11 -80.5 11c-46 0 -85.167 -15.5 -117.5 -46.5s-67.5 -109.167 -105.5 -234.5c-50.667 -166 -76 -290 -76 -372c0 -23.333 4 -40.833 12 -52.5s17.333 -17.5 28 -17.5c10 0 23.667 5.66699 41 17
c44.667 30 96.667 82.833 156 158.5s108.333 154.334 147 236.001s63 154.167 73 217.5zM587.996 1061h-87.001l242 255c49.333 50.667 81.333 80.834 96 90.501s30.334 14.5 47.001 14.5c26 0 47.667 -8.16699 65 -24.5s26 -36.5 26 -60.5
c0 -18 -5.33301 -33.833 -16 -47.5s-33 -29.834 -67 -48.501z" />
    <glyph glyph-name="acircumflex" unicode="&#xe2;" 
d="M1032 239l20.9961 -64.999c-166 -134 -282.333 -201 -349 -201c-22 0 -38.333 7 -49 21c-15.333 19.333 -23 43.333 -23 72c0 40 23.333 152.667 70 338l18 71c-81.333 -128 -137.666 -211 -168.999 -249c-52 -64 -101.167 -114.667 -147.5 -152
s-92.5 -65.333 -138.5 -84c-27.333 -11.333 -50.666 -17 -69.999 -17c-36 0 -64.333 13.667 -85 41s-31 73 -31 137c0 76.667 14.5 168.667 43.5 276s59.833 190.333 92.5 249c17.333 30.667 54 68 110 112c106.667 84 181.834 135.667 225.501 155s91.167 29 142.5 29
c36.667 0 73 -4.16699 109 -12.5s71.333 -20.833 106 -37.5l93 51l33 -21c-5.33301 -12.667 -12.333 -33.334 -21 -62.001l-38 -134l-113 -481c-10 -42 -15 -74.333 -15 -97c0 -23.333 8 -35 24 -35c28.667 0 82.334 32 161.001 96zM769.996 820.001
c-30 14.667 -58.833 25.666 -86.5 32.999s-54.5 11 -80.5 11c-46 0 -85.167 -15.5 -117.5 -46.5s-67.5 -109.167 -105.5 -234.5c-50.667 -166 -76 -290 -76 -372c0 -23.333 4 -40.833 12 -52.5s17.333 -17.5 28 -17.5c10 0 23.667 5.66699 41 17
c44.667 30 96.667 82.833 156 158.5s108.333 154.334 147 236.001s63 154.167 73 217.5zM690.996 1411h142l180 -350h-90l-181 205l-271 -205h-102z" />
    <glyph glyph-name="atilde" unicode="&#xe3;" 
d="M1032 239l20.9961 -64.999c-166 -134 -282.333 -201 -349 -201c-22 0 -38.333 7 -49 21c-15.333 19.333 -23 43.333 -23 72c0 40 23.333 152.667 70 338l18 71c-81.333 -128 -137.666 -211 -168.999 -249c-52 -64 -101.167 -114.667 -147.5 -152
s-92.5 -65.333 -138.5 -84c-27.333 -11.333 -50.666 -17 -69.999 -17c-36 0 -64.333 13.667 -85 41s-31 73 -31 137c0 76.667 14.5 168.667 43.5 276s59.833 190.333 92.5 249c17.333 30.667 54 68 110 112c106.667 84 181.834 135.667 225.501 155s91.167 29 142.5 29
c36.667 0 73 -4.16699 109 -12.5s71.333 -20.833 106 -37.5l93 51l33 -21c-5.33301 -12.667 -12.333 -33.334 -21 -62.001l-38 -134l-113 -481c-10 -42 -15 -74.333 -15 -97c0 -23.333 8 -35 24 -35c28.667 0 82.334 32 161.001 96zM769.996 820.001
c-30 14.667 -58.833 25.666 -86.5 32.999s-54.5 11 -80.5 11c-46 0 -85.167 -15.5 -117.5 -46.5s-67.5 -109.167 -105.5 -234.5c-50.667 -166 -76 -290 -76 -372c0 -23.333 4 -40.833 12 -52.5s17.333 -17.5 28 -17.5c10 0 23.667 5.66699 41 17
c44.667 30 96.667 82.833 156 158.5s108.333 154.334 147 236.001s63 154.167 73 217.5zM464.996 1126l-74.002 -0.000976562c18.667 80 47.334 139 86.001 177s83 57 133 57c23.333 0 47.5 -3.66699 72.5 -11s65.5 -24 121.5 -50c60.667 -28 103.334 -42 128.001 -42
c38 0 70 35.667 96 107h73c-14 -76 -41.167 -134.333 -81.5 -175s-86.5 -61 -138.5 -61c-32.667 0 -76 12.333 -130 37c-73.333 32.667 -120 52.334 -140 59.001c-15.333 4.66699 -30 7 -44 7c-47.333 0 -81.333 -35 -102 -105z" />
    <glyph glyph-name="adieresis" unicode="&#xe4;" 
d="M1032 239l20.9961 -64.999c-166 -134 -282.333 -201 -349 -201c-22 0 -38.333 7 -49 21c-15.333 19.333 -23 43.333 -23 72c0 40 23.333 152.667 70 338l18 71c-81.333 -128 -137.666 -211 -168.999 -249c-52 -64 -101.167 -114.667 -147.5 -152
s-92.5 -65.333 -138.5 -84c-27.333 -11.333 -50.666 -17 -69.999 -17c-36 0 -64.333 13.667 -85 41s-31 73 -31 137c0 76.667 14.5 168.667 43.5 276s59.833 190.333 92.5 249c17.333 30.667 54 68 110 112c106.667 84 181.834 135.667 225.501 155s91.167 29 142.5 29
c36.667 0 73 -4.16699 109 -12.5s71.333 -20.833 106 -37.5l93 51l33 -21c-5.33301 -12.667 -12.333 -33.334 -21 -62.001l-38 -134l-113 -481c-10 -42 -15 -74.333 -15 -97c0 -23.333 8 -35 24 -35c28.667 0 82.334 32 161.001 96zM769.996 820.001
c-30 14.667 -58.833 25.666 -86.5 32.999s-54.5 11 -80.5 11c-46 0 -85.167 -15.5 -117.5 -46.5s-67.5 -109.167 -105.5 -234.5c-50.667 -166 -76 -290 -76 -372c0 -23.333 4 -40.833 12 -52.5s17.333 -17.5 28 -17.5c10 0 23.667 5.66699 41 17
c44.667 30 96.667 82.833 156 158.5s108.333 154.334 147 236.001s63 154.167 73 217.5zM547.996 1311c33.333 0 62.002 -11.832 86.002 -35.499s36 -52.5 36 -86.5s-11.833 -62.667 -35.5 -86s-51.834 -35 -84.501 -35c-33.333 0 -62 12 -86 36s-36 53 -36 87
c0 33.333 11.667 61.666 35 84.999s51.666 35 84.999 35zM969.998 1311c33.333 0 62.002 -11.832 86.002 -35.499s36 -52.5 36 -86.5s-11.833 -62.667 -35.5 -86s-51.834 -35 -84.501 -35c-33.333 0 -62 12 -86 36s-36 53 -36 87c0 33.333 11.667 61.666 35 84.999
s51.666 35 84.999 35z" />
    <glyph glyph-name="aring" unicode="&#xe5;" 
d="M1032 239l20.9961 -64.999c-166 -134 -282.333 -201 -349 -201c-22 0 -38.333 7 -49 21c-15.333 19.333 -23 43.333 -23 72c0 40 23.333 152.667 70 338l18 71c-81.333 -128 -137.666 -211 -168.999 -249c-52 -64 -101.167 -114.667 -147.5 -152
s-92.5 -65.333 -138.5 -84c-27.333 -11.333 -50.666 -17 -69.999 -17c-36 0 -64.333 13.667 -85 41s-31 73 -31 137c0 76.667 14.5 168.667 43.5 276s59.833 190.333 92.5 249c17.333 30.667 54 68 110 112c106.667 84 181.834 135.667 225.501 155s91.167 29 142.5 29
c36.667 0 73 -4.16699 109 -12.5s71.333 -20.833 106 -37.5l93 51l33 -21c-5.33301 -12.667 -12.333 -33.334 -21 -62.001l-38 -134l-113 -481c-10 -42 -15 -74.333 -15 -97c0 -23.333 8 -35 24 -35c28.667 0 82.334 32 161.001 96zM769.996 820.001
c-30 14.667 -58.833 25.666 -86.5 32.999s-54.5 11 -80.5 11c-46 0 -85.167 -15.5 -117.5 -46.5s-67.5 -109.167 -105.5 -234.5c-50.667 -166 -76 -290 -76 -372c0 -23.333 4 -40.833 12 -52.5s17.333 -17.5 28 -17.5c10 0 23.667 5.66699 41 17
c44.667 30 96.667 82.833 156 158.5s108.333 154.334 147 236.001s63 154.167 73 217.5zM720.996 1450c55.333 0 102.666 -19.667 141.999 -59s59 -87 59 -143c0 -54.667 -19.167 -101.167 -57.5 -139.5s-84.833 -57.5 -139.5 -57.5c-55.333 0 -102.833 19.667 -142.5 59
s-59.5 86.666 -59.5 141.999c0 54.667 19.333 101.334 58 140.001s85.334 58 140.001 58zM721.996 1372c-34 0 -62.668 -11.668 -86.001 -35.001s-35 -51.666 -35 -84.999c0 -34 12 -63.167 36 -87.5s53 -36.5 87 -36.5c33.333 0 61.833 11.833 85.5 35.5
s35.5 52.167 35.5 85.5c0 34 -12.167 63 -36.5 87s-53.166 36 -86.499 36z" />
    <glyph glyph-name="ae" unicode="&#xe6;" horiz-adv-x="1511" 
d="M1359 244l24 -57.001c-209.333 -142.667 -375.666 -214 -498.999 -214c-58.667 0 -107.667 15 -147 45s-69 74.667 -89 134c-80.667 -70 -148 -117.333 -202 -142s-107.333 -37 -160 -37c-65.333 0 -116.166 18.167 -152.499 54.5s-54.5 84.833 -54.5 145.5
c0 70 19.333 133.167 58 189.5s95 98 169 125s179.667 40.5 317 40.5h64c4 42.667 6 74.667 6 96c0 72.667 -20.333 129.167 -61 169.5s-100 60.5 -178 60.5c-19.333 0 -38.833 -1 -58.5 -3s-39.5 -5 -59.5 -9l-53 -137l-38 7l-13 155l71 53c68 34.667 147.667 52 239 52
c77.333 0 140.333 -16 189 -48s82.667 -80 102 -144c76 64 150.667 112 224 144s139 48 197 48c66 0 116 -14.833 150 -44.5s51 -70.167 51 -121.5c0 -62.667 -19.833 -118 -59.5 -166s-112.334 -88.167 -218.001 -120.5s-199.834 -51.5 -282.501 -57.5
c-12.667 -81.333 -19 -139.666 -19 -174.999c0 -65.333 13 -112.5 39 -141.5s63 -43.5 111 -43.5c41.333 0 94.833 13.667 160.5 41s123.167 61 172.5 101zM908 517.999c78.667 10.667 144.167 29.168 196.5 55.501s91.5 59.166 117.5 98.499s39 78 39 116
c0 26 -8.66699 47 -26 63s-42 24 -74 24c-45.333 0 -85.5 -17.5 -120.5 -52.5s-69.5 -106.5 -103.5 -214.5zM677 465l-50.002 1.00098c-111.333 0 -194.666 -21.5 -249.999 -64.5s-83 -96.5 -83 -160.5c0 -38.667 9.83301 -68.334 29.5 -89.001s48.834 -31 87.501 -31
c79.333 0 144 32.667 194 98c38.667 50.667 62.667 132.667 72 246z" />
    <glyph glyph-name="ccedilla" unicode="&#xe7;" horiz-adv-x="909" 
d="M817 255l22.998 -64.999c-135.333 -90.667 -237.166 -149.5 -305.499 -176.5s-130.166 -40.5 -185.499 -40.5c-84 0 -149.667 24.167 -197 72.5s-71 116.5 -71 204.5c0 79.333 12.5 163 37.5 251s53.333 154.667 85 200s80.5 88 146.5 128l176 105
c52.667 25.333 110.334 38 173.001 38c31.333 0 65.166 -4.16699 101.499 -12.5s75.166 -21.166 116.499 -38.499c-28 -69.333 -52.333 -165.333 -73 -288h-69c7.33301 50.667 11 85.667 11 105l-2 32c-28 24.667 -57.667 43.167 -89 55.5s-64.333 18.5 -99 18.5
c-51.333 0 -92 -13 -122 -39c-41.333 -36.667 -73.333 -94.334 -96 -173.001c-38 -132.667 -57 -244.667 -57 -336c0 -61.333 14.167 -109 42.5 -143s65.5 -51 111.5 -51c44.667 0 98.834 13.667 162.501 41s123.5 64.666 179.5 111.999zM330.998 8.00098h83.001l-92 -139
c25.333 2.66699 46.666 4 63.999 4c50.667 0 91.834 -13.833 123.501 -41.5s47.5 -62.5 47.5 -104.5c0 -46.667 -22.5 -87.334 -67.5 -122.001s-106.833 -52 -185.5 -52c-71.333 0 -143 16 -215 48l39 64c57.333 -22.667 106.666 -34 147.999 -34c34.667 0 62 8.33301 82 25
s30 37 30 61c0 22.667 -8.5 41.334 -25.5 56.001s-41.833 22 -74.5 22c-20 0 -42.667 -3.33301 -68 -10l-23 24z" />
    <glyph glyph-name="egrave" unicode="&#xe8;" horiz-adv-x="909" 
d="M795 242l21.9971 -55.001l-170 -108c-70.667 -39.333 -130.5 -66.833 -179.5 -82.5s-93.5 -23.5 -133.5 -23.5c-81.333 0 -144.166 21.333 -188.499 64s-66.5 104 -66.5 184c0 93.333 19.667 202 59 326c28 88 65.833 157.667 113.5 209s128.834 106.666 243.501 165.999
c64.667 33.333 130 50 196 50c60.667 0 108.334 -15.167 143.001 -45.5s52 -70.166 52 -119.499c0 -60 -17.167 -115.5 -51.5 -166.5s-95.5 -97.667 -183.5 -140s-196.667 -73.833 -326 -94.5c-14 -48 -21 -93.333 -21 -136c0 -53.333 13.5 -93.166 40.5 -119.499
s65.5 -39.5 115.5 -39.5c38 0 86.833 11 146.5 33s122.5 54.667 188.5 98zM332.997 460.999c103.333 28 175.333 55 216 81s74.5 62.833 101.5 110.5s40.5 90.167 40.5 127.5c0 28.667 -8.83301 51.667 -26.5 69s-41.5 26 -71.5 26c-32.667 0 -64 -10.667 -94 -32
s-57.667 -58.833 -83 -112.5s-53 -143.5 -83 -269.5zM794.997 1061l-81.001 0.000976562l-247 175c-40 28 -64.667 48.667 -74 62s-14 28.666 -14 45.999c0 22.667 7.83301 41.5 23.5 56.5s35.834 22.5 60.501 22.5c22 0 41.333 -5.5 58 -16.5s41.667 -38.5 75 -82.5z" />
    <glyph glyph-name="eacute" unicode="&#xe9;" horiz-adv-x="909" 
d="M795 242l21.9971 -55.001l-170 -108c-70.667 -39.333 -130.5 -66.833 -179.5 -82.5s-93.5 -23.5 -133.5 -23.5c-81.333 0 -144.166 21.333 -188.499 64s-66.5 104 -66.5 184c0 93.333 19.667 202 59 326c28 88 65.833 157.667 113.5 209s128.834 106.666 243.501 165.999
c64.667 33.333 130 50 196 50c60.667 0 108.334 -15.167 143.001 -45.5s52 -70.166 52 -119.499c0 -60 -17.167 -115.5 -51.5 -166.5s-95.5 -97.667 -183.5 -140s-196.667 -73.833 -326 -94.5c-14 -48 -21 -93.333 -21 -136c0 -53.333 13.5 -93.166 40.5 -119.499
s65.5 -39.5 115.5 -39.5c38 0 86.833 11 146.5 33s122.5 54.667 188.5 98zM332.997 460.999c103.333 28 175.333 55 216 81s74.5 62.833 101.5 110.5s40.5 90.167 40.5 127.5c0 28.667 -8.83301 51.667 -26.5 69s-41.5 26 -71.5 26c-32.667 0 -64 -10.667 -94 -32
s-57.667 -58.833 -83 -112.5s-53 -143.5 -83 -269.5zM473.997 1061h-87.001l242 255c49.333 50.667 81.333 80.834 96 90.501s30.334 14.5 47.001 14.5c26 0 47.667 -8.16699 65 -24.5s26 -36.5 26 -60.5c0 -18 -5.33301 -33.833 -16 -47.5s-33 -29.834 -67 -48.501z" />
    <glyph glyph-name="ecircumflex" unicode="&#xea;" horiz-adv-x="909" 
d="M795 242l21.9971 -55.001l-170 -108c-70.667 -39.333 -130.5 -66.833 -179.5 -82.5s-93.5 -23.5 -133.5 -23.5c-81.333 0 -144.166 21.333 -188.499 64s-66.5 104 -66.5 184c0 93.333 19.667 202 59 326c28 88 65.833 157.667 113.5 209s128.834 106.666 243.501 165.999
c64.667 33.333 130 50 196 50c60.667 0 108.334 -15.167 143.001 -45.5s52 -70.166 52 -119.499c0 -60 -17.167 -115.5 -51.5 -166.5s-95.5 -97.667 -183.5 -140s-196.667 -73.833 -326 -94.5c-14 -48 -21 -93.333 -21 -136c0 -53.333 13.5 -93.166 40.5 -119.499
s65.5 -39.5 115.5 -39.5c38 0 86.833 11 146.5 33s122.5 54.667 188.5 98zM332.997 460.999c103.333 28 175.333 55 216 81s74.5 62.833 101.5 110.5s40.5 90.167 40.5 127.5c0 28.667 -8.83301 51.667 -26.5 69s-41.5 26 -71.5 26c-32.667 0 -64 -10.667 -94 -32
s-57.667 -58.833 -83 -112.5s-53 -143.5 -83 -269.5zM603.997 1411h142l180 -350h-90l-181 205l-271 -205h-102z" />
    <glyph glyph-name="edieresis" unicode="&#xeb;" horiz-adv-x="909" 
d="M795 242l21.9971 -55.001l-170 -108c-70.667 -39.333 -130.5 -66.833 -179.5 -82.5s-93.5 -23.5 -133.5 -23.5c-81.333 0 -144.166 21.333 -188.499 64s-66.5 104 -66.5 184c0 93.333 19.667 202 59 326c28 88 65.833 157.667 113.5 209s128.834 106.666 243.501 165.999
c64.667 33.333 130 50 196 50c60.667 0 108.334 -15.167 143.001 -45.5s52 -70.166 52 -119.499c0 -60 -17.167 -115.5 -51.5 -166.5s-95.5 -97.667 -183.5 -140s-196.667 -73.833 -326 -94.5c-14 -48 -21 -93.333 -21 -136c0 -53.333 13.5 -93.166 40.5 -119.499
s65.5 -39.5 115.5 -39.5c38 0 86.833 11 146.5 33s122.5 54.667 188.5 98zM332.997 460.999c103.333 28 175.333 55 216 81s74.5 62.833 101.5 110.5s40.5 90.167 40.5 127.5c0 28.667 -8.83301 51.667 -26.5 69s-41.5 26 -71.5 26c-32.667 0 -64 -10.667 -94 -32
s-57.667 -58.833 -83 -112.5s-53 -143.5 -83 -269.5zM413.997 1311c33.333 0 62.002 -11.832 86.002 -35.499s36 -52.5 36 -86.5s-11.833 -62.667 -35.5 -86s-51.834 -35 -84.501 -35c-33.333 0 -62 12 -86 36s-36 53 -36 87c0 33.333 11.667 61.666 35 84.999
s51.666 35 84.999 35zM835.999 1311c33.333 0 62.002 -11.832 86.002 -35.499s36 -52.5 36 -86.5s-11.833 -62.667 -35.5 -86s-51.834 -35 -84.501 -35c-33.333 0 -62 12 -86 36s-36 53 -36 87c0 33.333 11.667 61.666 35 84.999s51.666 35 84.999 35z" />
    <glyph glyph-name="igrave" unicode="&#xec;" horiz-adv-x="682" 
d="M86 668l-23.999 54.001c161.333 117.333 263.666 187 306.999 209c56 28 98 42 126 42c18 0 33 -6.83301 45 -20.5s18 -32.834 18 -57.501c0 -47.333 -21.667 -144.666 -65 -291.999l-32 -108c-50 -166.667 -75 -272 -75 -316c0 -22.667 9.33301 -34 28 -34
c17.333 0 74.333 32 171 96l27 -53l-207 -138c-55.333 -34.667 -97 -56.667 -125 -66c-19.333 -7.33301 -37.333 -11 -54 -11c-25.333 0 -44.833 8.5 -58.5 25.5s-20.5 44.5 -20.5 82.5c0 50 10.667 114 32 192l67 238c33.333 119.333 50 197 50 233
c0 17.333 -7.66699 26 -23 26c-10.667 0 -26.667 -5.33301 -48 -16c-52 -26.667 -98.333 -55.334 -139 -86.001zM682.001 1061l-81.001 0.000976562l-247 175c-40 28 -64.667 48.667 -74 62s-14 28.666 -14 45.999c0 22.667 7.83301 41.5 23.5 56.5s35.834 22.5 60.501 22.5
c22 0 41.333 -5.5 58 -16.5s41.667 -38.5 75 -82.5z" />
    <glyph glyph-name="iacute" unicode="&#xed;" horiz-adv-x="682" 
d="M86 668l-23.999 54.001c161.333 117.333 263.666 187 306.999 209c56 28 98 42 126 42c18 0 33 -6.83301 45 -20.5s18 -32.834 18 -57.501c0 -47.333 -21.667 -144.666 -65 -291.999l-32 -108c-50 -166.667 -75 -272 -75 -316c0 -22.667 9.33301 -34 28 -34
c17.333 0 74.333 32 171 96l27 -53l-207 -138c-55.333 -34.667 -97 -56.667 -125 -66c-19.333 -7.33301 -37.333 -11 -54 -11c-25.333 0 -44.833 8.5 -58.5 25.5s-20.5 44.5 -20.5 82.5c0 50 10.667 114 32 192l67 238c33.333 119.333 50 197 50 233
c0 17.333 -7.66699 26 -23 26c-10.667 0 -26.667 -5.33301 -48 -16c-52 -26.667 -98.333 -55.334 -139 -86.001zM360.001 1061h-87.001l242 255c49.333 50.667 81.333 80.834 96 90.501s30.334 14.5 47.001 14.5c26 0 47.667 -8.16699 65 -24.5s26 -36.5 26 -60.5
c0 -18 -5.33301 -33.833 -16 -47.5s-33 -29.834 -67 -48.501z" />
    <glyph glyph-name="icircumflex" unicode="&#xee;" horiz-adv-x="682" 
d="M86 668l-23.999 54.001c161.333 117.333 263.666 187 306.999 209c56 28 98 42 126 42c18 0 33 -6.83301 45 -20.5s18 -32.834 18 -57.501c0 -47.333 -21.667 -144.666 -65 -291.999l-32 -108c-50 -166.667 -75 -272 -75 -316c0 -22.667 9.33301 -34 28 -34
c17.333 0 74.333 32 171 96l27 -53l-207 -138c-55.333 -34.667 -97 -56.667 -125 -66c-19.333 -7.33301 -37.333 -11 -54 -11c-25.333 0 -44.833 8.5 -58.5 25.5s-20.5 44.5 -20.5 82.5c0 50 10.667 114 32 192l67 238c33.333 119.333 50 197 50 233
c0 17.333 -7.66699 26 -23 26c-10.667 0 -26.667 -5.33301 -48 -16c-52 -26.667 -98.333 -55.334 -139 -86.001zM460.001 1411h142l180 -350h-90l-181 205l-271 -205h-102z" />
    <glyph glyph-name="idieresis" unicode="&#xef;" horiz-adv-x="682" 
d="M86 668l-23.999 54.001c161.333 117.333 263.666 187 306.999 209c56 28 98 42 126 42c18 0 33 -6.83301 45 -20.5s18 -32.834 18 -57.501c0 -47.333 -21.667 -144.666 -65 -291.999l-32 -108c-50 -166.667 -75 -272 -75 -316c0 -22.667 9.33301 -34 28 -34
c17.333 0 74.333 32 171 96l27 -53l-207 -138c-55.333 -34.667 -97 -56.667 -125 -66c-19.333 -7.33301 -37.333 -11 -54 -11c-25.333 0 -44.833 8.5 -58.5 25.5s-20.5 44.5 -20.5 82.5c0 50 10.667 114 32 192l67 238c33.333 119.333 50 197 50 233
c0 17.333 -7.66699 26 -23 26c-10.667 0 -26.667 -5.33301 -48 -16c-52 -26.667 -98.333 -55.334 -139 -86.001zM260.001 1311c33.333 0 62.002 -11.832 86.002 -35.499s36 -52.5 36 -86.5s-11.833 -62.667 -35.5 -86s-51.834 -35 -84.501 -35c-33.333 0 -62 12 -86 36
s-36 53 -36 87c0 33.333 11.667 61.666 35 84.999s51.666 35 84.999 35zM682.003 1311c33.333 0 62.002 -11.832 86.002 -35.499s36 -52.5 36 -86.5s-11.833 -62.667 -35.5 -86s-51.834 -35 -84.501 -35c-33.333 0 -62 12 -86 36s-36 53 -36 87
c0 33.333 11.667 61.666 35 84.999s51.666 35 84.999 35z" />
    <glyph glyph-name="eth" unicode="&#xf0;" 
d="M816 914c-19.333 131.333 -85.332 248.001 -197.999 350.001l-239 -154l-50 79l214 137c-80 49.333 -163.667 87.333 -251 114l38 61c100 -16 202.667 -49 308 -99l246 159l46 -77l-202 -133c99.333 -66 176.833 -152.5 232.5 -259.5s83.5 -228.5 83.5 -364.5
c0 -206 -49.333 -383.167 -148 -531.5s-241.667 -222.5 -429 -222.5c-112 0 -201.167 33.833 -267.5 101.5s-99.5 159.5 -99.5 275.5c0 110 26 214.167 78 312.5s119.333 174.666 202 228.999s167.334 81.5 254.001 81.5c37.333 0 71.166 -4.83301 101.499 -14.5
s57.166 -24.5 80.499 -44.5zM337.001 301.001c0 -81.333 15 -140.167 45 -176.5s71.667 -54.5 125 -54.5c46 0 90.5 18.833 133.5 56.5s77.833 99.167 104.5 184.5c38 121.333 57 237 57 347c0 78.667 -15.5 136 -46.5 172s-74.167 54 -129.5 54
c-47.333 0 -91 -17.5 -131 -52.5s-74 -97.5 -102 -187.5c-37.333 -120 -56 -234.333 -56 -343z" />
    <glyph glyph-name="ntilde" unicode="&#xf1;" 
d="M91 -27l-25.0068 26.001c14 36 25.667 69 35 99l67 229c22.667 80.667 41.5 164.167 56.5 250.5s22.5 142.5 22.5 168.5c0 20 -7.66699 30 -23 30c-8.66699 0 -23 -5.33301 -43 -16c-40.667 -21.333 -76.667 -44.666 -108 -69.999l-26 54l151 114
c66.667 47.333 121.334 80.333 164.001 99c24 10 46.667 15 68 15c18.667 0 32.834 -4.83301 42.501 -14.5s14.5 -25.167 14.5 -46.5c0 -18.667 -2.66699 -42.334 -8 -71.001c-14.667 -76 -30.667 -146 -48 -210l-41 -150c52.667 86 88 140 106 162
c54.667 67.333 113.834 128.166 177.501 182.499s123.834 94.5 180.501 120.5c39.333 18 74 27 104 27c28 0 49.333 -8 64 -24s22 -39 22 -69c0 -44 -20.333 -138 -61 -282l-51 -183c-27.333 -98.667 -41 -175.667 -41 -231c0 -25.333 7.66699 -38 23 -38
c11.333 0 28 6.33301 50 19c42.667 24.667 75.667 48.334 99 71.001l25 -59c-118 -84.667 -197.667 -137.667 -239 -159c-55.333 -29.333 -100.666 -44 -135.999 -44c-24.667 0 -43 8 -55 24s-18 44 -18 84c0 43.333 13.333 111 40 203l32 111
c28.667 98.667 46.334 164 53.001 196c18 77.333 27 127 27 149c0 12 -3.5 21.333 -10.5 28s-16.5 10 -28.5 10c-33.333 0 -78.666 -28.667 -135.999 -86c-79.333 -79.333 -144.833 -175.333 -196.5 -288s-88.5 -243.334 -110.5 -392.001
c-84.667 -6.66699 -157.667 -19.667 -219 -39zM414.993 1126l-74.002 -0.000976562c18.667 80 47.334 139 86.001 177s83 57 133 57c23.333 0 47.5 -3.66699 72.5 -11s65.5 -24 121.5 -50c60.667 -28 103.334 -42 128.001 -42c38 0 70 35.667 96 107h73
c-14 -76 -41.167 -134.333 -81.5 -175s-86.5 -61 -138.5 -61c-32.667 0 -76 12.333 -130 37c-73.333 32.667 -120 52.334 -140 59.001c-15.333 4.66699 -30 7 -44 7c-47.333 0 -81.333 -35 -102 -105z" />
    <glyph glyph-name="ograve" unicode="&#xf2;" 
d="M97 279c0 133.333 29.667 262.334 89 387.001c34.667 73.333 104.5 142.666 209.5 207.999s207.5 98 307.5 98c76 0 139.333 -12.167 190 -36.5s88 -58.666 112 -102.999s36 -102.833 36 -175.5c0 -91.333 -16.833 -182.833 -50.5 -274.5s-72.5 -159.834 -116.5 -204.501
c-57.333 -57.333 -136.333 -109.333 -237 -156c-70.667 -32.667 -145 -49 -223 -49c-108 0 -187.833 25.5 -239.5 76.5s-77.5 127.5 -77.5 229.5zM337 301.001c0 -83.333 15.334 -142.668 46.001 -178.001s77 -53 139 -53c43.333 0 81.666 15 114.999 45
c44 40 82.5 113.5 115.5 220.5s49.5 215.5 49.5 325.5c0 76 -16 132.333 -48 169s-75 55 -129 55c-47.333 0 -90 -16.667 -128 -50s-71.333 -96.666 -100 -189.999c-40 -132 -60 -246.667 -60 -344zM909.001 1061l-81.001 0.000976562l-247 175
c-40 28 -64.667 48.667 -74 62s-14 28.666 -14 45.999c0 22.667 7.83301 41.5 23.5 56.5s35.834 22.5 60.501 22.5c22 0 41.333 -5.5 58 -16.5s41.667 -38.5 75 -82.5z" />
    <glyph glyph-name="oacute" unicode="&#xf3;" 
d="M97 279c0 133.333 29.667 262.334 89 387.001c34.667 73.333 104.5 142.666 209.5 207.999s207.5 98 307.5 98c76 0 139.333 -12.167 190 -36.5s88 -58.666 112 -102.999s36 -102.833 36 -175.5c0 -91.333 -16.833 -182.833 -50.5 -274.5s-72.5 -159.834 -116.5 -204.501
c-57.333 -57.333 -136.333 -109.333 -237 -156c-70.667 -32.667 -145 -49 -223 -49c-108 0 -187.833 25.5 -239.5 76.5s-77.5 127.5 -77.5 229.5zM337 301.001c0 -83.333 15.334 -142.668 46.001 -178.001s77 -53 139 -53c43.333 0 81.666 15 114.999 45
c44 40 82.5 113.5 115.5 220.5s49.5 215.5 49.5 325.5c0 76 -16 132.333 -48 169s-75 55 -129 55c-47.333 0 -90 -16.667 -128 -50s-71.333 -96.666 -100 -189.999c-40 -132 -60 -246.667 -60 -344zM588.001 1061h-87.001l242 255c49.333 50.667 81.333 80.834 96 90.501
s30.334 14.5 47.001 14.5c26 0 47.667 -8.16699 65 -24.5s26 -36.5 26 -60.5c0 -18 -5.33301 -33.833 -16 -47.5s-33 -29.834 -67 -48.501z" />
    <glyph glyph-name="ocircumflex" unicode="&#xf4;" 
d="M97 279c0 133.333 29.667 262.334 89 387.001c34.667 73.333 104.5 142.666 209.5 207.999s207.5 98 307.5 98c76 0 139.333 -12.167 190 -36.5s88 -58.666 112 -102.999s36 -102.833 36 -175.5c0 -91.333 -16.833 -182.833 -50.5 -274.5s-72.5 -159.834 -116.5 -204.501
c-57.333 -57.333 -136.333 -109.333 -237 -156c-70.667 -32.667 -145 -49 -223 -49c-108 0 -187.833 25.5 -239.5 76.5s-77.5 127.5 -77.5 229.5zM337 301.001c0 -83.333 15.334 -142.668 46.001 -178.001s77 -53 139 -53c43.333 0 81.666 15 114.999 45
c44 40 82.5 113.5 115.5 220.5s49.5 215.5 49.5 325.5c0 76 -16 132.333 -48 169s-75 55 -129 55c-47.333 0 -90 -16.667 -128 -50s-71.333 -96.666 -100 -189.999c-40 -132 -60 -246.667 -60 -344zM659.001 1411h142l180 -350h-90l-181 205l-271 -205h-102z" />
    <glyph glyph-name="otilde" unicode="&#xf5;" 
d="M97 279c0 133.333 29.667 262.334 89 387.001c34.667 73.333 104.5 142.666 209.5 207.999s207.5 98 307.5 98c76 0 139.333 -12.167 190 -36.5s88 -58.666 112 -102.999s36 -102.833 36 -175.5c0 -91.333 -16.833 -182.833 -50.5 -274.5s-72.5 -159.834 -116.5 -204.501
c-57.333 -57.333 -136.333 -109.333 -237 -156c-70.667 -32.667 -145 -49 -223 -49c-108 0 -187.833 25.5 -239.5 76.5s-77.5 127.5 -77.5 229.5zM337 301.001c0 -83.333 15.334 -142.668 46.001 -178.001s77 -53 139 -53c43.333 0 81.666 15 114.999 45
c44 40 82.5 113.5 115.5 220.5s49.5 215.5 49.5 325.5c0 76 -16 132.333 -48 169s-75 55 -129 55c-47.333 0 -90 -16.667 -128 -50s-71.333 -96.666 -100 -189.999c-40 -132 -60 -246.667 -60 -344zM415.001 1126l-74.002 -0.000976562c18.667 80 47.334 139 86.001 177
s83 57 133 57c23.333 0 47.5 -3.66699 72.5 -11s65.5 -24 121.5 -50c60.667 -28 103.334 -42 128.001 -42c38 0 70 35.667 96 107h73c-14 -76 -41.167 -134.333 -81.5 -175s-86.5 -61 -138.5 -61c-32.667 0 -76 12.333 -130 37c-73.333 32.667 -120 52.334 -140 59.001
c-15.333 4.66699 -30 7 -44 7c-47.333 0 -81.333 -35 -102 -105z" />
    <glyph glyph-name="odieresis" unicode="&#xf6;" 
d="M97 279c0 133.333 29.667 262.334 89 387.001c34.667 73.333 104.5 142.666 209.5 207.999s207.5 98 307.5 98c76 0 139.333 -12.167 190 -36.5s88 -58.666 112 -102.999s36 -102.833 36 -175.5c0 -91.333 -16.833 -182.833 -50.5 -274.5s-72.5 -159.834 -116.5 -204.501
c-57.333 -57.333 -136.333 -109.333 -237 -156c-70.667 -32.667 -145 -49 -223 -49c-108 0 -187.833 25.5 -239.5 76.5s-77.5 127.5 -77.5 229.5zM337 301.001c0 -83.333 15.334 -142.668 46.001 -178.001s77 -53 139 -53c43.333 0 81.666 15 114.999 45
c44 40 82.5 113.5 115.5 220.5s49.5 215.5 49.5 325.5c0 76 -16 132.333 -48 169s-75 55 -129 55c-47.333 0 -90 -16.667 -128 -50s-71.333 -96.666 -100 -189.999c-40 -132 -60 -246.667 -60 -344zM488.001 1311c33.333 0 62.002 -11.832 86.002 -35.499s36 -52.5 36 -86.5
s-11.833 -62.667 -35.5 -86s-51.834 -35 -84.501 -35c-33.333 0 -62 12 -86 36s-36 53 -36 87c0 33.333 11.667 61.666 35 84.999s51.666 35 84.999 35zM910.003 1311c33.333 0 62.002 -11.832 86.002 -35.499s36 -52.5 36 -86.5s-11.833 -62.667 -35.5 -86
s-51.834 -35 -84.501 -35c-33.333 0 -62 12 -86 36s-36 53 -36 87c0 33.333 11.667 61.666 35 84.999s51.666 35 84.999 35z" />
    <glyph glyph-name="divide" unicode="&#xf7;" horiz-adv-x="1124" 
d="M562 1169c38 0 70.5 -13.333 97.5 -40s40.5 -59 40.5 -97s-13.5 -70.333 -40.5 -97s-59.5 -40 -97.5 -40s-70.667 13.333 -98 40s-41 59 -41 97s13.5 70.333 40.5 97s59.833 40 98.5 40zM52 601v187h1019v-187h-1019zM562 494c38 0 70.5 -13.5 97.5 -40.5
s40.5 -59.5 40.5 -97.5c0 -37.333 -13.5 -69.5 -40.5 -96.5s-59.5 -40.5 -97.5 -40.5c-38.667 0 -71.5 13.333 -98.5 40s-40.5 59 -40.5 97s13.5 70.5 40.5 97.5s59.833 40.5 98.5 40.5z" />
    <glyph glyph-name="oslash" unicode="&#xf8;" 
d="M148 81c-34 52 -51 122.999 -51 212.999c0 88.667 16 178.834 48 270.501s67.333 156.167 106 193.5c74 72.667 149.5 126.5 226.5 161.5s152.167 52.5 225.5 52.5c78 0 146 -14.667 204 -44l118 132l61 -57l-111 -125c44 -51.333 66 -126.333 66 -225
c0 -88.667 -16.833 -179 -50.5 -271s-72.5 -160.333 -116.5 -205c-57.333 -57.333 -136.333 -109 -237 -155c-70.667 -32.667 -144.667 -49 -222 -49c-84 0 -152.667 16.667 -206 50l-117 -132l-66 54zM337 291.999l444 496c-30 64.667 -82 97 -156 97
c-47.333 0 -90 -16.833 -128 -50.5s-71.667 -98.167 -101 -193.5c-39.333 -130.667 -59 -247 -59 -349zM801 684.999l-449.999 -503.999c10.667 -34.667 30.5 -61.834 59.5 -81.501s64.167 -29.5 105.5 -29.5c47.333 0 87.333 14.333 120 43
c43.333 39.333 79.666 105.333 108.999 198c38 121.333 57 234.333 57 339z" />
    <glyph glyph-name="ugrave" unicode="&#xf9;" 
d="M84 710l-23.999 57.001c90 64.667 168.667 115 236 151s118.666 54 153.999 54c22.667 0 39.667 -6 51 -18s17 -32.333 17 -61c0 -34.667 -12 -95.667 -36 -183l-59 -218c-22 -82 -40.333 -160.333 -55 -235c-6.66699 -32.667 -10 -56.667 -10 -72
c0 -14.667 3.16699 -25.667 9.5 -33s14.833 -11 25.5 -11c14 0 32 7 54 21c34.667 22.667 78.667 67.167 132 133.5s99.5 140.333 138.5 222s67.667 160.334 86 236.001s29.166 135.167 32.499 178.5c68.667 2.66699 142.334 16.334 221.001 41.001l17 -20
c-34 -103.333 -73 -236 -117 -398c-52.667 -196 -79 -319.667 -79 -371c0 -23.333 10 -35 30 -35c8 0 20.667 4.66699 38 14c40.667 22.667 77.667 47.667 111 75l20 -57l-182 -131c-50 -32.667 -87.833 -53.667 -113.5 -63s-47.5 -14 -65.5 -14
c-20 0 -35.833 7.16699 -47.5 21.5s-17.5 35.166 -17.5 62.499c0 33.333 11.667 93.666 35 180.999l58 219c-81.333 -146.667 -184.666 -271.334 -309.999 -374.001c-90 -73.333 -163.667 -110 -221 -110c-29.333 0 -52.333 9.83301 -69 29.5s-25 51.167 -25 94.5
c0 23.333 2.33301 46.333 7 69c5.33301 30 19.666 86.667 42.999 170l29 107c44.667 163.333 67 265 67 305c0 13.333 -2.66699 23.5 -8 30.5s-12.333 10.5 -21 10.5c-20 0 -70.667 -26.333 -152 -79zM879.001 1061l-81.001 0.000976562l-247 175
c-40 28 -64.667 48.667 -74 62s-14 28.666 -14 45.999c0 22.667 7.83301 41.5 23.5 56.5s35.834 22.5 60.501 22.5c22 0 41.333 -5.5 58 -16.5s41.667 -38.5 75 -82.5z" />
    <glyph glyph-name="uacute" unicode="&#xfa;" 
d="M84 710l-23.999 57.001c90 64.667 168.667 115 236 151s118.666 54 153.999 54c22.667 0 39.667 -6 51 -18s17 -32.333 17 -61c0 -34.667 -12 -95.667 -36 -183l-59 -218c-22 -82 -40.333 -160.333 -55 -235c-6.66699 -32.667 -10 -56.667 -10 -72
c0 -14.667 3.16699 -25.667 9.5 -33s14.833 -11 25.5 -11c14 0 32 7 54 21c34.667 22.667 78.667 67.167 132 133.5s99.5 140.333 138.5 222s67.667 160.334 86 236.001s29.166 135.167 32.499 178.5c68.667 2.66699 142.334 16.334 221.001 41.001l17 -20
c-34 -103.333 -73 -236 -117 -398c-52.667 -196 -79 -319.667 -79 -371c0 -23.333 10 -35 30 -35c8 0 20.667 4.66699 38 14c40.667 22.667 77.667 47.667 111 75l20 -57l-182 -131c-50 -32.667 -87.833 -53.667 -113.5 -63s-47.5 -14 -65.5 -14
c-20 0 -35.833 7.16699 -47.5 21.5s-17.5 35.166 -17.5 62.499c0 33.333 11.667 93.666 35 180.999l58 219c-81.333 -146.667 -184.666 -271.334 -309.999 -374.001c-90 -73.333 -163.667 -110 -221 -110c-29.333 0 -52.333 9.83301 -69 29.5s-25 51.167 -25 94.5
c0 23.333 2.33301 46.333 7 69c5.33301 30 19.666 86.667 42.999 170l29 107c44.667 163.333 67 265 67 305c0 13.333 -2.66699 23.5 -8 30.5s-12.333 10.5 -21 10.5c-20 0 -70.667 -26.333 -152 -79zM608.001 1061h-87.001l242 255c49.333 50.667 81.333 80.834 96 90.501
s30.334 14.5 47.001 14.5c26 0 47.667 -8.16699 65 -24.5s26 -36.5 26 -60.5c0 -18 -5.33301 -33.833 -16 -47.5s-33 -29.834 -67 -48.501z" />
    <glyph glyph-name="ucircumflex" unicode="&#xfb;" 
d="M84 710l-23.999 57.001c90 64.667 168.667 115 236 151s118.666 54 153.999 54c22.667 0 39.667 -6 51 -18s17 -32.333 17 -61c0 -34.667 -12 -95.667 -36 -183l-59 -218c-22 -82 -40.333 -160.333 -55 -235c-6.66699 -32.667 -10 -56.667 -10 -72
c0 -14.667 3.16699 -25.667 9.5 -33s14.833 -11 25.5 -11c14 0 32 7 54 21c34.667 22.667 78.667 67.167 132 133.5s99.5 140.333 138.5 222s67.667 160.334 86 236.001s29.166 135.167 32.499 178.5c68.667 2.66699 142.334 16.334 221.001 41.001l17 -20
c-34 -103.333 -73 -236 -117 -398c-52.667 -196 -79 -319.667 -79 -371c0 -23.333 10 -35 30 -35c8 0 20.667 4.66699 38 14c40.667 22.667 77.667 47.667 111 75l20 -57l-182 -131c-50 -32.667 -87.833 -53.667 -113.5 -63s-47.5 -14 -65.5 -14
c-20 0 -35.833 7.16699 -47.5 21.5s-17.5 35.166 -17.5 62.499c0 33.333 11.667 93.666 35 180.999l58 219c-81.333 -146.667 -184.666 -271.334 -309.999 -374.001c-90 -73.333 -163.667 -110 -221 -110c-29.333 0 -52.333 9.83301 -69 29.5s-25 51.167 -25 94.5
c0 23.333 2.33301 46.333 7 69c5.33301 30 19.666 86.667 42.999 170l29 107c44.667 163.333 67 265 67 305c0 13.333 -2.66699 23.5 -8 30.5s-12.333 10.5 -21 10.5c-20 0 -70.667 -26.333 -152 -79zM658.001 1411h142l180 -350h-90l-181 205l-271 -205h-102z" />
    <glyph glyph-name="udieresis" unicode="&#xfc;" 
d="M84 710l-23.999 57.001c90 64.667 168.667 115 236 151s118.666 54 153.999 54c22.667 0 39.667 -6 51 -18s17 -32.333 17 -61c0 -34.667 -12 -95.667 -36 -183l-59 -218c-22 -82 -40.333 -160.333 -55 -235c-6.66699 -32.667 -10 -56.667 -10 -72
c0 -14.667 3.16699 -25.667 9.5 -33s14.833 -11 25.5 -11c14 0 32 7 54 21c34.667 22.667 78.667 67.167 132 133.5s99.5 140.333 138.5 222s67.667 160.334 86 236.001s29.166 135.167 32.499 178.5c68.667 2.66699 142.334 16.334 221.001 41.001l17 -20
c-34 -103.333 -73 -236 -117 -398c-52.667 -196 -79 -319.667 -79 -371c0 -23.333 10 -35 30 -35c8 0 20.667 4.66699 38 14c40.667 22.667 77.667 47.667 111 75l20 -57l-182 -131c-50 -32.667 -87.833 -53.667 -113.5 -63s-47.5 -14 -65.5 -14
c-20 0 -35.833 7.16699 -47.5 21.5s-17.5 35.166 -17.5 62.499c0 33.333 11.667 93.666 35 180.999l58 219c-81.333 -146.667 -184.666 -271.334 -309.999 -374.001c-90 -73.333 -163.667 -110 -221 -110c-29.333 0 -52.333 9.83301 -69 29.5s-25 51.167 -25 94.5
c0 23.333 2.33301 46.333 7 69c5.33301 30 19.666 86.667 42.999 170l29 107c44.667 163.333 67 265 67 305c0 13.333 -2.66699 23.5 -8 30.5s-12.333 10.5 -21 10.5c-20 0 -70.667 -26.333 -152 -79zM488.001 1311c33.333 0 62.002 -11.832 86.002 -35.499
s36 -52.5 36 -86.5s-11.833 -62.667 -35.5 -86s-51.834 -35 -84.501 -35c-33.333 0 -62 12 -86 36s-36 53 -36 87c0 33.333 11.667 61.666 35 84.999s51.666 35 84.999 35zM910.003 1311c33.333 0 62.002 -11.832 86.002 -35.499s36 -52.5 36 -86.5
s-11.833 -62.667 -35.5 -86s-51.834 -35 -84.501 -35c-33.333 0 -62 12 -86 36s-36 53 -36 87c0 33.333 11.667 61.666 35 84.999s51.666 35 84.999 35z" />
    <glyph glyph-name="yacute" unicode="&#xfd;" 
d="M33 -364l127.001 80.0078l30 -13c-2 -13.333 -3 -24.333 -3 -33c0 -43.333 12.333 -78.333 37 -105s56.667 -40 96 -40c34 0 67.333 10.667 100 32s62.667 57.166 90 107.499s58 128.833 92 235.5l117 437c-72.667 -100.667 -136.5 -178 -191.5 -232
s-105.5 -92.667 -151.5 -116c-34 -17.333 -60.667 -26 -80 -26c-26.667 0 -49.834 14.833 -69.501 44.5s-29.5 76.167 -29.5 139.5c0 38 3.66699 87.333 11 148l20 158c18.667 152.667 28 241 28 265c0 36.667 -3.16699 60.5 -9.5 71.5s-15.5 16.5 -27.5 16.5
c-11.333 0 -27.666 -7.33301 -48.999 -22c-52.667 -34 -92.334 -65.333 -119.001 -94l-26 57c8 5.33301 46.5 34.666 115.5 87.999s127.167 91 174.5 113c34.667 16 63.334 24 86.001 24c25.333 0 45.166 -9.83301 59.499 -29.5s21.5 -52.167 21.5 -97.5
c0 -22.667 -1.66699 -48.334 -5 -77.001l-43 -357c-8 -64.667 -12 -127.334 -12 -188.001c0 -32 3.33301 -53.5 10 -64.5s15.334 -16.5 26.001 -16.5c28 0 68 31.333 120 94c88 105.333 155.333 230.666 202 375.999s71.334 247.666 74.001 306.999
c39.333 5.33301 116.666 21.666 231.999 48.999l23 -18c-26.667 -68.667 -53 -150.334 -79 -245.001l-96 -340c-60 -214.667 -111.667 -369 -155 -463c-72 -154 -158.333 -270 -259 -348s-194.334 -117 -281.001 -117c-44 0 -82 7.83301 -114 23.5s-55.333 35.5 -70 59.5
s-22 56.667 -22 98v18zM588.001 1061.01h-87.001l242 255c49.333 50.667 81.333 80.834 96 90.501s30.334 14.5 47.001 14.5c26 0 47.667 -8.16699 65 -24.5s26 -36.5 26 -60.5c0 -18 -5.33301 -33.833 -16 -47.5s-33 -29.834 -67 -48.501z" />
    <glyph glyph-name="thorn" unicode="&#xfe;" 
d="M422 548c92 137.333 182.334 238.997 271.001 304.997c108 79.333 199 119 273 119c33.333 0 58 -14 74 -42c28.667 -49.333 43 -113.666 43 -192.999c0 -96.667 -25.333 -210.667 -76 -342c-35.333 -92 -78.833 -162.167 -130.5 -210.5s-130.5 -101.5 -236.5 -159.5
c-64 -34.667 -131.333 -52 -202 -52c-39.333 0 -78 4.66699 -116 14c-37.333 -129.333 -65.333 -239.666 -84 -330.999c-12 -57.333 -18.667 -114.666 -20 -171.999c-88.667 -6 -167.334 -20.333 -236.001 -43l-21 16c35.333 122 75.333 269.667 120 443l217 956
c56 248.667 84 396 84 442c0 14 -7.16699 24.667 -21.5 32s-44.5 11 -90.5 11h-58l10 60c142 16 279.667 46.667 413 92l24 -22l-71 -290zM343.001 127.997c77.333 -37.333 141.666 -56.001 192.999 -56.001c54.667 0 101.5 23 140.5 69s80.5 146.333 124.5 301
c28 97.333 42 186 42 266c0 42 -4.16699 70 -12.5 84s-20.833 21 -37.5 21c-33.333 0 -73.666 -18 -120.999 -54c-72 -54 -135 -128.667 -189 -224s-95.667 -207.666 -125 -336.999z" />
    <glyph glyph-name="ydieresis" unicode="&#xff;" 
d="M33 -364l127.001 80.0078l30 -13c-2 -13.333 -3 -24.333 -3 -33c0 -43.333 12.333 -78.333 37 -105s56.667 -40 96 -40c34 0 67.333 10.667 100 32s62.667 57.166 90 107.499s58 128.833 92 235.5l117 437c-72.667 -100.667 -136.5 -178 -191.5 -232
s-105.5 -92.667 -151.5 -116c-34 -17.333 -60.667 -26 -80 -26c-26.667 0 -49.834 14.833 -69.501 44.5s-29.5 76.167 -29.5 139.5c0 38 3.66699 87.333 11 148l20 158c18.667 152.667 28 241 28 265c0 36.667 -3.16699 60.5 -9.5 71.5s-15.5 16.5 -27.5 16.5
c-11.333 0 -27.666 -7.33301 -48.999 -22c-52.667 -34 -92.334 -65.333 -119.001 -94l-26 57c8 5.33301 46.5 34.666 115.5 87.999s127.167 91 174.5 113c34.667 16 63.334 24 86.001 24c25.333 0 45.166 -9.83301 59.499 -29.5s21.5 -52.167 21.5 -97.5
c0 -22.667 -1.66699 -48.334 -5 -77.001l-43 -357c-8 -64.667 -12 -127.334 -12 -188.001c0 -32 3.33301 -53.5 10 -64.5s15.334 -16.5 26.001 -16.5c28 0 68 31.333 120 94c88 105.333 155.333 230.666 202 375.999s71.334 247.666 74.001 306.999
c39.333 5.33301 116.666 21.666 231.999 48.999l23 -18c-26.667 -68.667 -53 -150.334 -79 -245.001l-96 -340c-60 -214.667 -111.667 -369 -155 -463c-72 -154 -158.333 -270 -259 -348s-194.334 -117 -281.001 -117c-44 0 -82 7.83301 -114 23.5s-55.333 35.5 -70 59.5
s-22 56.667 -22 98v18zM488.001 1311.01c33.333 0 62.002 -11.832 86.002 -35.499s36 -52.5 36 -86.5s-11.833 -62.667 -35.5 -86s-51.834 -35 -84.501 -35c-33.333 0 -62 12 -86 36s-36 53 -36 87c0 33.333 11.667 61.666 35 84.999s51.666 35 84.999 35zM910.003 1311.01
c33.333 0 62.002 -11.832 86.002 -35.499s36 -52.5 36 -86.5s-11.833 -62.667 -35.5 -86s-51.834 -35 -84.501 -35c-33.333 0 -62 12 -86 36s-36 53 -36 87c0 33.333 11.667 61.666 35 84.999s51.666 35 84.999 35z" />
    <glyph glyph-name="Amacron" unicode="&#x100;" horiz-adv-x="1479" 
d="M-97 -10l2.99805 69h39c26.667 0 49 3.33301 67 10s32.667 17.667 44 33l80 136l529 904c74.667 127.333 124.334 215 149.001 263h197c8.66699 -66 18.334 -134.667 29.001 -206l138 -880c14.667 -95.333 25.5 -156.833 32.5 -184.5s15.167 -45.5 24.5 -53.5
s28 -13.333 56 -16l45 -5c15.333 -0.666992 31.333 -1 48 -1l1 -69c-81.333 6.66699 -175.333 10 -282 10c-136.667 0 -249 -3.33301 -337 -10l1 69h39c46 0 79 4 99 12s30 24.333 30 49c0 41.333 -5.33301 98 -16 170l-34 252l-159 1l-297 -1l-84 -150
c-87.333 -158 -131 -252.667 -131 -284c0 -15.333 8 -26.333 24 -33c25.333 -10.667 78 -16 158 -16l-12 -69c-82 6.66699 -162.667 10 -242 10c-80 0 -159.667 -3.33301 -239 -10zM787.998 1172l-310 -531l197 -2l195 2zM627.998 1720h650l-30 -127h-651z" />
    <glyph glyph-name="amacron" unicode="&#x101;" 
d="M1032 239l20.9961 -64.999c-166 -134 -282.333 -201 -349 -201c-22 0 -38.333 7 -49 21c-15.333 19.333 -23 43.333 -23 72c0 40 23.333 152.667 70 338l18 71c-81.333 -128 -137.666 -211 -168.999 -249c-52 -64 -101.167 -114.667 -147.5 -152
s-92.5 -65.333 -138.5 -84c-27.333 -11.333 -50.666 -17 -69.999 -17c-36 0 -64.333 13.667 -85 41s-31 73 -31 137c0 76.667 14.5 168.667 43.5 276s59.833 190.333 92.5 249c17.333 30.667 54 68 110 112c106.667 84 181.834 135.667 225.501 155s91.167 29 142.5 29
c36.667 0 73 -4.16699 109 -12.5s71.333 -20.833 106 -37.5l93 51l33 -21c-5.33301 -12.667 -12.333 -33.334 -21 -62.001l-38 -134l-113 -481c-10 -42 -15 -74.333 -15 -97c0 -23.333 8 -35 24 -35c28.667 0 82.334 32 161.001 96zM769.996 820.001
c-30 14.667 -58.833 25.666 -86.5 32.999s-54.5 11 -80.5 11c-46 0 -85.167 -15.5 -117.5 -46.5s-67.5 -109.167 -105.5 -234.5c-50.667 -166 -76 -290 -76 -372c0 -23.333 4 -40.833 12 -52.5s17.333 -17.5 28 -17.5c10 0 23.667 5.66699 41 17
c44.667 30 96.667 82.833 156 158.5s108.333 154.334 147 236.001s63 154.167 73 217.5zM403.996 1290h650l-30 -127h-651z" />
    <glyph glyph-name="Abreve" unicode="&#x102;" horiz-adv-x="1479" 
d="M-97 -10l2.99805 69h39c26.667 0 49 3.33301 67 10s32.667 17.667 44 33l80 136l529 904c74.667 127.333 124.334 215 149.001 263h197c8.66699 -66 18.334 -134.667 29.001 -206l138 -880c14.667 -95.333 25.5 -156.833 32.5 -184.5s15.167 -45.5 24.5 -53.5
s28 -13.333 56 -16l45 -5c15.333 -0.666992 31.333 -1 48 -1l1 -69c-81.333 6.66699 -175.333 10 -282 10c-136.667 0 -249 -3.33301 -337 -10l1 69h39c46 0 79 4 99 12s30 24.333 30 49c0 41.333 -5.33301 98 -16 170l-34 252l-159 1l-297 -1l-84 -150
c-87.333 -158 -131 -252.667 -131 -284c0 -15.333 8 -26.333 24 -33c25.333 -10.667 78 -16 158 -16l-12 -69c-82 6.66699 -162.667 10 -242 10c-80 0 -159.667 -3.33301 -239 -10zM787.998 1172l-310 -531l197 -2l195 2zM634.998 1822h73.999
c6.66699 -67.333 28.5 -118 65.5 -152s89.5 -51 157.5 -51c62 0 116 17.833 162 53.5s79.667 85.5 101 149.5h74c-26 -114.667 -69.5 -198.667 -130.5 -252s-136.5 -80 -226.5 -80c-87.333 0 -155.666 24.5 -204.999 73.5s-74 119.5 -74 211.5z" />
    <glyph glyph-name="abreve" unicode="&#x103;" 
d="M1032 239l20.9961 -64.999c-166 -134 -282.333 -201 -349 -201c-22 0 -38.333 7 -49 21c-15.333 19.333 -23 43.333 -23 72c0 40 23.333 152.667 70 338l18 71c-81.333 -128 -137.666 -211 -168.999 -249c-52 -64 -101.167 -114.667 -147.5 -152
s-92.5 -65.333 -138.5 -84c-27.333 -11.333 -50.666 -17 -69.999 -17c-36 0 -64.333 13.667 -85 41s-31 73 -31 137c0 76.667 14.5 168.667 43.5 276s59.833 190.333 92.5 249c17.333 30.667 54 68 110 112c106.667 84 181.834 135.667 225.501 155s91.167 29 142.5 29
c36.667 0 73 -4.16699 109 -12.5s71.333 -20.833 106 -37.5l93 51l33 -21c-5.33301 -12.667 -12.333 -33.334 -21 -62.001l-38 -134l-113 -481c-10 -42 -15 -74.333 -15 -97c0 -23.333 8 -35 24 -35c28.667 0 82.334 32 161.001 96zM769.996 820.001
c-30 14.667 -58.833 25.666 -86.5 32.999s-54.5 11 -80.5 11c-46 0 -85.167 -15.5 -117.5 -46.5s-67.5 -109.167 -105.5 -234.5c-50.667 -166 -76 -290 -76 -372c0 -23.333 4 -40.833 12 -52.5s17.333 -17.5 28 -17.5c10 0 23.667 5.66699 41 17
c44.667 30 96.667 82.833 156 158.5s108.333 154.334 147 236.001s63 154.167 73 217.5zM448.996 1393h73.999c6.66699 -67.333 28.5 -118 65.5 -152s89.5 -51 157.5 -51c62 0 116 17.833 162 53.5s79.667 85.5 101 149.5h74c-26 -114.667 -69.5 -198.667 -130.5 -252
s-136.5 -80 -226.5 -80c-87.333 0 -155.666 24.5 -204.999 73.5s-74 119.5 -74 211.5z" />
    <glyph glyph-name="Aogonek" unicode="&#x104;" horiz-adv-x="1479" 
d="M-97 -10l2.99805 69h39c26.667 0 49 3.33301 67 10s32.667 17.667 44 33l80 136l529 904c74.667 127.333 124.334 215 149.001 263h197c8.66699 -66 18.334 -134.667 29.001 -206l138 -880c14.667 -95.333 25.5 -156.833 32.5 -184.5s15.167 -45.5 24.5 -53.5
s28 -13.333 56 -16l45 -5c15.333 -0.666992 31.333 -1 48 -1l1 -69c-81.333 6.66699 -175.333 10 -282 10c-136.667 0 -249 -3.33301 -337 -10l1 69h39c46 0 79 4 99 12s30 24.333 30 49c0 41.333 -5.33301 98 -16 170l-34 252l-159 1l-297 -1l-84 -150
c-87.333 -158 -131 -252.667 -131 -284c0 -15.333 8 -26.333 24 -33c25.333 -10.667 78 -16 158 -16l-12 -69c-82 6.66699 -162.667 10 -242 10c-80 0 -159.667 -3.33301 -239 -10zM787.998 1172l-310 -531l197 -2l195 2zM1079 5
c-48 -54.667 -79.668 -97.168 -95.001 -127.501s-23 -57.833 -23 -82.5c0 -31.333 10 -57.333 30 -78s44.667 -31 74 -31c17.333 0 33 3.33301 47 10s33 21.667 57 45l36 -23c-72 -80.667 -141 -121 -207 -121c-44 0 -81.667 15.5 -113 46.5s-47 68.5 -47 112.5
c0 22.667 4 43.334 12 62.001c10.667 24.667 26.334 47.667 47.001 69l137 118h45z" />
    <glyph glyph-name="aogonek" unicode="&#x105;" 
d="M1032 239l20.9961 -64.999c-166 -134 -282.333 -201 -349 -201c-22 0 -38.333 7 -49 21c-15.333 19.333 -23 43.333 -23 72c0 40 23.333 152.667 70 338l18 71c-81.333 -128 -137.666 -211 -168.999 -249c-52 -64 -101.167 -114.667 -147.5 -152
s-92.5 -65.333 -138.5 -84c-27.333 -11.333 -50.666 -17 -69.999 -17c-36 0 -64.333 13.667 -85 41s-31 73 -31 137c0 76.667 14.5 168.667 43.5 276s59.833 190.333 92.5 249c17.333 30.667 54 68 110 112c106.667 84 181.834 135.667 225.501 155s91.167 29 142.5 29
c36.667 0 73 -4.16699 109 -12.5s71.333 -20.833 106 -37.5l93 51l33 -21c-5.33301 -12.667 -12.333 -33.334 -21 -62.001l-38 -134l-113 -481c-10 -42 -15 -74.333 -15 -97c0 -23.333 8 -35 24 -35c28.667 0 82.334 32 161.001 96zM769.996 820.001
c-30 14.667 -58.833 25.666 -86.5 32.999s-54.5 11 -80.5 11c-46 0 -85.167 -15.5 -117.5 -46.5s-67.5 -109.167 -105.5 -234.5c-50.667 -166 -76 -290 -76 -372c0 -23.333 4 -40.833 12 -52.5s17.333 -17.5 28 -17.5c10 0 23.667 5.66699 41 17
c44.667 30 96.667 82.833 156 158.5s108.333 154.334 147 236.001s63 154.167 73 217.5zM749.996 0c-48 -54.667 -79.668 -97.168 -95.001 -127.501s-23 -57.833 -23 -82.5c0 -31.333 10 -57.333 30 -78s44.667 -31 74 -31c17.333 0 33 3.33301 47 10s33 21.667 57 45
l36 -23c-72 -80.667 -141 -121 -207 -121c-44 0 -81.667 15.5 -113 46.5s-47 68.5 -47 112.5c0 22.667 4 43.334 12 62.001c10.667 24.667 26.334 47.667 47.001 69l137 118h45z" />
    <glyph glyph-name="Cacute" unicode="&#x106;" horiz-adv-x="1403" 
d="M1279 244l-24.0029 -78.998c-110 -64.667 -189.167 -107.334 -237.5 -128.001s-100 -36.5 -155 -47.5s-112.5 -16.5 -172.5 -16.5c-181.333 0 -320.666 47.167 -417.999 141.5s-146 228.833 -146 403.5s36.333 326.167 109 454.5s181.334 234.166 326.001 317.499
s295.667 125 453 125c76.667 0 149.334 -8.83301 218.001 -26.5s124.667 -39.834 168 -66.501c-40.667 -132 -65.334 -243.667 -74.001 -335h-71c3.33301 26 5 50.333 5 73c0 26.667 -2.66699 68.667 -8 126c-44.667 34.667 -92.834 60 -144.501 76s-113.167 24 -184.5 24
c-114 0 -204.833 -23.167 -272.5 -69.5s-122.167 -123.166 -163.5 -230.499c-52.667 -134.667 -79 -283.334 -79 -446.001c0 -147.333 34.333 -257.166 103 -329.499s167.334 -108.5 296.001 -108.5c70.667 0 139.834 11.333 207.501 34s148.5 64.667 242.5 126z
M840.997 1489h-87.001l242 255c49.333 50.667 81.333 80.834 96 90.501s30.334 14.5 47.001 14.5c26 0 47.667 -8.16699 65 -24.5s26 -36.5 26 -60.5c0 -18 -5.33301 -33.833 -16 -47.5s-33 -29.834 -67 -48.501z" />
    <glyph glyph-name="cacute" unicode="&#x107;" horiz-adv-x="909" 
d="M817 255l22.998 -64.999c-135.333 -90.667 -237.166 -149.5 -305.499 -176.5s-130.166 -40.5 -185.499 -40.5c-84 0 -149.667 24.167 -197 72.5s-71 116.5 -71 204.5c0 79.333 12.5 163 37.5 251s53.333 154.667 85 200s80.5 88 146.5 128l176 105
c52.667 25.333 110.334 38 173.001 38c31.333 0 65.166 -4.16699 101.499 -12.5s75.166 -21.166 116.499 -38.499c-28 -69.333 -52.333 -165.333 -73 -288h-69c7.33301 50.667 11 85.667 11 105l-2 32c-28 24.667 -57.667 43.167 -89 55.5s-64.333 18.5 -99 18.5
c-51.333 0 -92 -13 -122 -39c-41.333 -36.667 -73.333 -94.334 -96 -173.001c-38 -132.667 -57 -244.667 -57 -336c0 -61.333 14.167 -109 42.5 -143s65.5 -51 111.5 -51c44.667 0 98.834 13.667 162.501 41s123.5 64.666 179.5 111.999zM537.998 1061h-87.001l242 255
c49.333 50.667 81.333 80.834 96 90.501s30.334 14.5 47.001 14.5c26 0 47.667 -8.16699 65 -24.5s26 -36.5 26 -60.5c0 -18 -5.33301 -33.833 -16 -47.5s-33 -29.834 -67 -48.501z" />
    <glyph glyph-name="Ccircumflex" unicode="&#x108;" horiz-adv-x="1403" 
d="M1279 244l-24.0029 -78.998c-110 -64.667 -189.167 -107.334 -237.5 -128.001s-100 -36.5 -155 -47.5s-112.5 -16.5 -172.5 -16.5c-181.333 0 -320.666 47.167 -417.999 141.5s-146 228.833 -146 403.5s36.333 326.167 109 454.5s181.334 234.166 326.001 317.499
s295.667 125 453 125c76.667 0 149.334 -8.83301 218.001 -26.5s124.667 -39.834 168 -66.501c-40.667 -132 -65.334 -243.667 -74.001 -335h-71c3.33301 26 5 50.333 5 73c0 26.667 -2.66699 68.667 -8 126c-44.667 34.667 -92.834 60 -144.501 76s-113.167 24 -184.5 24
c-114 0 -204.833 -23.167 -272.5 -69.5s-122.167 -123.166 -163.5 -230.499c-52.667 -134.667 -79 -283.334 -79 -446.001c0 -147.333 34.333 -257.166 103 -329.499s167.334 -108.5 296.001 -108.5c70.667 0 139.834 11.333 207.501 34s148.5 64.667 242.5 126z
M927.997 1844h142l180 -350h-90l-181 205l-271 -205h-102z" />
    <glyph glyph-name="ccircumflex" unicode="&#x109;" horiz-adv-x="909" 
d="M817 255l22.998 -64.999c-135.333 -90.667 -237.166 -149.5 -305.499 -176.5s-130.166 -40.5 -185.499 -40.5c-84 0 -149.667 24.167 -197 72.5s-71 116.5 -71 204.5c0 79.333 12.5 163 37.5 251s53.333 154.667 85 200s80.5 88 146.5 128l176 105
c52.667 25.333 110.334 38 173.001 38c31.333 0 65.166 -4.16699 101.499 -12.5s75.166 -21.166 116.499 -38.499c-28 -69.333 -52.333 -165.333 -73 -288h-69c7.33301 50.667 11 85.667 11 105l-2 32c-28 24.667 -57.667 43.167 -89 55.5s-64.333 18.5 -99 18.5
c-51.333 0 -92 -13 -122 -39c-41.333 -36.667 -73.333 -94.334 -96 -173.001c-38 -132.667 -57 -244.667 -57 -336c0 -61.333 14.167 -109 42.5 -143s65.5 -51 111.5 -51c44.667 0 98.834 13.667 162.501 41s123.5 64.666 179.5 111.999zM587.998 1411h142l180 -350h-90
l-181 205l-271 -205h-102z" />
    <glyph glyph-name="Cdot" unicode="&#x10a;" horiz-adv-x="1403" 
d="M1279 244l-24.0029 -78.998c-110 -64.667 -189.167 -107.334 -237.5 -128.001s-100 -36.5 -155 -47.5s-112.5 -16.5 -172.5 -16.5c-181.333 0 -320.666 47.167 -417.999 141.5s-146 228.833 -146 403.5s36.333 326.167 109 454.5s181.334 234.166 326.001 317.499
s295.667 125 453 125c76.667 0 149.334 -8.83301 218.001 -26.5s124.667 -39.834 168 -66.501c-40.667 -132 -65.334 -243.667 -74.001 -335h-71c3.33301 26 5 50.333 5 73c0 26.667 -2.66699 68.667 -8 126c-44.667 34.667 -92.834 60 -144.501 76s-113.167 24 -184.5 24
c-114 0 -204.833 -23.167 -272.5 -69.5s-122.167 -123.166 -163.5 -230.499c-52.667 -134.667 -79 -283.334 -79 -446.001c0 -147.333 34.333 -257.166 103 -329.499s167.334 -108.5 296.001 -108.5c70.667 0 139.834 11.333 207.501 34s148.5 64.667 242.5 126z
M978.997 1783c33.333 0 62.002 -12 86.002 -36s36 -53 36 -87c0 -33.333 -11.833 -61.833 -35.5 -85.5s-51.834 -35.5 -84.501 -35.5c-33.333 0 -62 12 -86 36s-36 53 -36 87c0 33.333 11.667 61.833 35 85.5s51.666 35.5 84.999 35.5z" />
    <glyph glyph-name="cdot" unicode="&#x10b;" horiz-adv-x="909" 
d="M817 255l22.998 -64.999c-135.333 -90.667 -237.166 -149.5 -305.499 -176.5s-130.166 -40.5 -185.499 -40.5c-84 0 -149.667 24.167 -197 72.5s-71 116.5 -71 204.5c0 79.333 12.5 163 37.5 251s53.333 154.667 85 200s80.5 88 146.5 128l176 105
c52.667 25.333 110.334 38 173.001 38c31.333 0 65.166 -4.16699 101.499 -12.5s75.166 -21.166 116.499 -38.499c-28 -69.333 -52.333 -165.333 -73 -288h-69c7.33301 50.667 11 85.667 11 105l-2 32c-28 24.667 -57.667 43.167 -89 55.5s-64.333 18.5 -99 18.5
c-51.333 0 -92 -13 -122 -39c-41.333 -36.667 -73.333 -94.334 -96 -173.001c-38 -132.667 -57 -244.667 -57 -336c0 -61.333 14.167 -109 42.5 -143s65.5 -51 111.5 -51c44.667 0 98.834 13.667 162.501 41s123.5 64.666 179.5 111.999zM677.998 1354
c33.333 0 62.002 -12 86.002 -36s36 -53 36 -87c0 -33.333 -11.833 -61.833 -35.5 -85.5s-51.834 -35.5 -84.501 -35.5c-33.333 0 -62 12 -86 36s-36 53 -36 87c0 33.333 11.667 61.833 35 85.5s51.666 35.5 84.999 35.5z" />
    <glyph glyph-name="Ccaron" unicode="&#x10c;" horiz-adv-x="1403" 
d="M1279 244l-24.0029 -78.998c-110 -64.667 -189.167 -107.334 -237.5 -128.001s-100 -36.5 -155 -47.5s-112.5 -16.5 -172.5 -16.5c-181.333 0 -320.666 47.167 -417.999 141.5s-146 228.833 -146 403.5s36.333 326.167 109 454.5s181.334 234.166 326.001 317.499
s295.667 125 453 125c76.667 0 149.334 -8.83301 218.001 -26.5s124.667 -39.834 168 -66.501c-40.667 -132 -65.334 -243.667 -74.001 -335h-71c3.33301 26 5 50.333 5 73c0 26.667 -2.66699 68.667 -8 126c-44.667 34.667 -92.834 60 -144.501 76s-113.167 24 -184.5 24
c-114 0 -204.833 -23.167 -272.5 -69.5s-122.167 -123.166 -163.5 -230.499c-52.667 -134.667 -79 -283.334 -79 -446.001c0 -147.333 34.333 -257.166 103 -329.499s167.334 -108.5 296.001 -108.5c70.667 0 139.834 11.333 207.501 34s148.5 64.667 242.5 126z
M687.997 1855h90l193 -205l281 205h98l-328 -352h-142z" />
    <glyph glyph-name="ccaron" unicode="&#x10d;" horiz-adv-x="909" 
d="M817 255l22.998 -64.999c-135.333 -90.667 -237.166 -149.5 -305.499 -176.5s-130.166 -40.5 -185.499 -40.5c-84 0 -149.667 24.167 -197 72.5s-71 116.5 -71 204.5c0 79.333 12.5 163 37.5 251s53.333 154.667 85 200s80.5 88 146.5 128l176 105
c52.667 25.333 110.334 38 173.001 38c31.333 0 65.166 -4.16699 101.499 -12.5s75.166 -21.166 116.499 -38.499c-28 -69.333 -52.333 -165.333 -73 -288h-69c7.33301 50.667 11 85.667 11 105l-2 32c-28 24.667 -57.667 43.167 -89 55.5s-64.333 18.5 -99 18.5
c-51.333 0 -92 -13 -122 -39c-41.333 -36.667 -73.333 -94.334 -96 -173.001c-38 -132.667 -57 -244.667 -57 -336c0 -61.333 14.167 -109 42.5 -143s65.5 -51 111.5 -51c44.667 0 98.834 13.667 162.501 41s123.5 64.666 179.5 111.999zM392.998 1413h90l193 -205l281 205
h98l-328 -352h-142z" />
    <glyph glyph-name="Dcaron" unicode="&#x10e;" horiz-adv-x="1593" 
d="M-3 -10l10.9971 68.999c20.667 0 51.334 5.66699 92.001 17c17.333 4.66699 29.833 12.334 37.5 23.001s16.834 43 27.501 97c18 100.667 62 361.667 132 783c24 143.333 36 237.333 36 282c0 24.667 -7.33301 40.334 -22 47.001c-25.333 12.667 -84.333 19 -177 19
l11 68c68 -4 165.667 -6 293 -6l464 6c154 0 273 -20.5 357 -61.5s149.5 -102.167 196.5 -183.5s70.5 -180.333 70.5 -297c0 -157.333 -36.667 -302.833 -110 -436.5s-172.833 -237.834 -298.5 -312.501s-265.167 -112 -418.5 -112l-386 8
c-103.333 0 -208.666 -3.33301 -315.999 -10zM413.997 119.999l91.002 -14.999c95.333 -16.667 171 -25 227 -25c112 0 200 27.667 264 83c80 69.333 141.5 171.166 184.5 305.499s64.5 265.833 64.5 394.5c0 106 -17.333 192.333 -52 259s-79.834 114.167 -135.501 142.5
s-143.834 42.5 -264.501 42.5c-64.667 0 -126 -5.66699 -184 -17l-65 -387l-67 -402zM608.999 1843h90l193 -205l281 205h98l-328 -352h-142z" />
    <glyph glyph-name="dcaron" unicode="&#x10f;" horiz-adv-x="1360" 
d="M1082 237l18 -60.0049l-183 -134c-44 -28.667 -81.333 -48.334 -112 -59.001c-20 -7.33301 -38.333 -11 -55 -11c-23.333 0 -42.666 9 -57.999 27s-23 42.333 -23 73c0 18 1.66699 36 5 54c15.333 76.667 30.333 142.334 45 197.001l44 161
c-84.667 -160.667 -188 -292 -310 -394c-93.333 -78.667 -169 -118 -227 -118c-36.667 0 -66.834 16.667 -90.501 50s-35.5 87.333 -35.5 162c0 76.667 12.667 163.334 38 260.001s58 180.334 98 251.001c22.667 40.667 51 73.334 85 98.001
c102 74.667 184 125.334 246 152.001c44 19.333 92 29 144 29c34 0 77.333 -7.33301 130 -22l34 218c11.333 72 17 113 17 123c0 16 -6.33301 28 -19 36s-38 12 -76 12c-22 0 -48.333 -0.333008 -79 -1l12 60c122.667 2.66699 262.667 33.334 420 92.001l27 -19
c-22.667 -84 -47 -187 -73 -309l-172 -820c-16 -76 -24 -132 -24 -168c0 -22.667 7.33301 -34 22 -34c18 0 68.667 31.333 152 94zM815 832.995c-50 29.333 -107.333 44 -172 44c-58 0 -98.667 -11.333 -122 -34c-33.333 -32 -72 -119.5 -116 -262.5s-66 -268.5 -66 -376.5
c0 -22 3.83301 -38 11.5 -48s17.5 -15 29.5 -15c14 0 32.667 7.33301 56 22c40 24 83.333 65.333 130 124c62 77.333 112 155 150 233s64.667 153 80 225zM1150 922.995l-34 27.002c38.667 55.333 77.5 133.666 116.5 234.999s59.833 184.666 62.5 249.999
c11.333 2 52.5 12.333 123.5 31s107.833 29.334 110.5 32.001l30 -27c-98.667 -200.667 -203 -362.334 -313 -485.001z" />
    <glyph glyph-name="Dslash" unicode="&#x110;" horiz-adv-x="1593" 
d="M246 676l-170.003 -0.000976562l17 98h170l34 205c24 143.333 36 237.333 36 282c0 24.667 -7.33301 40.334 -22 47.001c-25.333 12.667 -77 19 -155 19h-22l11 68c68 -4 165.667 -6 293 -6l464 6c154 0 273 -20.5 357 -61.5s149.5 -102.167 196.5 -183.5
s70.5 -180.333 70.5 -297c0 -157.333 -36.667 -302.833 -110 -436.5s-172.833 -237.834 -298.5 -312.501s-265.167 -112 -418.5 -112l-386 8c-103.333 0 -208.666 -3.33301 -315.999 -10l11 69c20.667 0 51.334 5.66699 92.001 17c17.333 4.66699 29.833 12.334 37.5 23.001
s16.834 43 27.501 97l27 151zM505.997 675.999l-28.998 -174.999l-63 -381l91 -15c95.333 -16.667 171 -25 227 -25c112 0 200 27.667 264 83c80 69.333 141.5 171.166 184.5 305.499s64.5 265.833 64.5 394.5c0 106 -17.333 192.333 -52 259
s-79.834 114.167 -135.501 142.5s-143.834 42.5 -264.501 42.5c-64.667 0 -126 -5.66699 -184 -17l-65 -387l-21 -129h376l-18 -98h-375z" />
    <glyph glyph-name="dmacron" unicode="&#x111;" 
d="M1073 1116l-161.999 -771.006c-16 -76 -24 -132 -24 -168c0 -22.667 7.33301 -34 22 -34c18 0 68.667 31.333 152 94l18 -60l-183 -134c-44 -28.667 -81.333 -48.334 -112 -59.001c-20 -7.33301 -38.333 -11 -55 -11c-23.333 0 -42.666 9 -57.999 27s-23 42.333 -23 73
c0 18 1.66699 36 5 54c15.333 76.667 30.333 142.334 45 197.001l44 161c-84.667 -160.667 -188 -292 -310 -394c-93.333 -78.667 -169 -118 -227 -118c-36.667 0 -66.834 16.667 -90.501 50s-35.5 87.333 -35.5 162c0 76.667 12.667 163.334 38 260.001
s58 180.334 98 251.001c22.667 40.667 51 73.334 85 98.001c102 74.667 184 125.334 246 152.001c44 19.333 92 29 144 29c34 0 77.333 -7.33301 130 -22l25 163h-396l18 84h392c8 48.667 12 79.667 12 93c0 16.667 -6.16699 29 -18.5 37s-37.833 12 -76.5 12
c-22.667 0 -49 -0.333008 -79 -1l12 60c122.667 2.66699 262.667 33.334 420 92.001l27 -19c-8.66699 -31.333 -30.334 -122.666 -65.001 -273.999h214l-19 -84h-213zM794.001 832.994c-50 29.333 -107.333 44 -172 44c-58 0 -98.667 -11.333 -122 -34
c-33.333 -32 -72 -119.5 -116 -262.5s-66 -268.5 -66 -376.5c0 -22 3.83301 -38 11.5 -48s17.5 -15 29.5 -15c14 0 32.667 7.33301 56 22c40 24 83.333 65.333 130 124c62 77.333 112 155 150 233s64.667 153 80 225z" />
    <glyph glyph-name="Emacron" unicode="&#x112;" horiz-adv-x="1251" 
d="M-7 -10l10.998 69.002c70 9.33301 111 19.666 123 30.999s26.333 57.666 43 138.999c6.66699 33.333 33.334 189.666 80.001 468.999l69 414c13.333 79.333 20 132.333 20 159c0 18 -6.66699 30.667 -20 38c-21.333 12 -55.666 18 -102.999 18h-74l11 68l118 -3l111 -4
l368 4l330 1c52 0 94 -2.66699 126 -8l10 -8c-21.333 -104.667 -38.666 -209.334 -51.999 -314.001h-70l3 66l1 80c0 30.667 -9.66699 49.334 -29 56.001c-56 20.667 -153.667 31 -293 31c-58.667 0 -114.667 -4 -168 -12l-85 -510l293 -8
c25.333 0 84.666 2.66699 177.999 8l6 -13l-24 -97c-132 6.66699 -261.667 10 -389 10c-28.667 0 -55.667 -0.666992 -81 -2l-94 -564c71.333 -9.33301 143 -14 215 -14c108 0 198.333 6.33301 271 19c38.667 6.66699 62.334 14 71.001 22
c12 12.667 28.667 55.334 50 128.001l26 83h72l-32 -182c-11.333 -60 -19.333 -111.333 -24 -154l-15 -17c-30.667 -2 -62.334 -3 -95.001 -3l-783 14c-56 0 -114.333 -4.66699 -175 -14zM442.998 1720h650l-30 -127h-651z" />
    <glyph glyph-name="emacron" unicode="&#x113;" horiz-adv-x="909" 
d="M795 242l21.9971 -55.001l-170 -108c-70.667 -39.333 -130.5 -66.833 -179.5 -82.5s-93.5 -23.5 -133.5 -23.5c-81.333 0 -144.166 21.333 -188.499 64s-66.5 104 -66.5 184c0 93.333 19.667 202 59 326c28 88 65.833 157.667 113.5 209s128.834 106.666 243.501 165.999
c64.667 33.333 130 50 196 50c60.667 0 108.334 -15.167 143.001 -45.5s52 -70.166 52 -119.499c0 -60 -17.167 -115.5 -51.5 -166.5s-95.5 -97.667 -183.5 -140s-196.667 -73.833 -326 -94.5c-14 -48 -21 -93.333 -21 -136c0 -53.333 13.5 -93.166 40.5 -119.499
s65.5 -39.5 115.5 -39.5c38 0 86.833 11 146.5 33s122.5 54.667 188.5 98zM332.997 460.999c103.333 28 175.333 55 216 81s74.5 62.833 101.5 110.5s40.5 90.167 40.5 127.5c0 28.667 -8.83301 51.667 -26.5 69s-41.5 26 -71.5 26c-32.667 0 -64 -10.667 -94 -32
s-57.667 -58.833 -83 -112.5s-53 -143.5 -83 -269.5zM320.997 1290h650l-30 -127h-651z" />
    <glyph glyph-name="Ebreve" unicode="&#x114;" horiz-adv-x="1251" 
d="M-7 -10l10.998 69.002c70 9.33301 111 19.666 123 30.999s26.333 57.666 43 138.999c6.66699 33.333 33.334 189.666 80.001 468.999l69 414c13.333 79.333 20 132.333 20 159c0 18 -6.66699 30.667 -20 38c-21.333 12 -55.666 18 -102.999 18h-74l11 68l118 -3l111 -4
l368 4l330 1c52 0 94 -2.66699 126 -8l10 -8c-21.333 -104.667 -38.666 -209.334 -51.999 -314.001h-70l3 66l1 80c0 30.667 -9.66699 49.334 -29 56.001c-56 20.667 -153.667 31 -293 31c-58.667 0 -114.667 -4 -168 -12l-85 -510l293 -8
c25.333 0 84.666 2.66699 177.999 8l6 -13l-24 -97c-132 6.66699 -261.667 10 -389 10c-28.667 0 -55.667 -0.666992 -81 -2l-94 -564c71.333 -9.33301 143 -14 215 -14c108 0 198.333 6.33301 271 19c38.667 6.66699 62.334 14 71.001 22
c12 12.667 28.667 55.334 50 128.001l26 83h72l-32 -182c-11.333 -60 -19.333 -111.333 -24 -154l-15 -17c-30.667 -2 -62.334 -3 -95.001 -3l-783 14c-56 0 -114.333 -4.66699 -175 -14zM464.998 1826h73.999c6.66699 -67.333 28.5 -118 65.5 -152s89.5 -51 157.5 -51
c62 0 116 17.833 162 53.5s79.667 85.5 101 149.5h74c-26 -114.667 -69.5 -198.667 -130.5 -252s-136.5 -80 -226.5 -80c-87.333 0 -155.666 24.5 -204.999 73.5s-74 119.5 -74 211.5z" />
    <glyph glyph-name="ebreve" unicode="&#x115;" horiz-adv-x="909" 
d="M795 242l21.9971 -55.001l-170 -108c-70.667 -39.333 -130.5 -66.833 -179.5 -82.5s-93.5 -23.5 -133.5 -23.5c-81.333 0 -144.166 21.333 -188.499 64s-66.5 104 -66.5 184c0 93.333 19.667 202 59 326c28 88 65.833 157.667 113.5 209s128.834 106.666 243.501 165.999
c64.667 33.333 130 50 196 50c60.667 0 108.334 -15.167 143.001 -45.5s52 -70.166 52 -119.499c0 -60 -17.167 -115.5 -51.5 -166.5s-95.5 -97.667 -183.5 -140s-196.667 -73.833 -326 -94.5c-14 -48 -21 -93.333 -21 -136c0 -53.333 13.5 -93.166 40.5 -119.499
s65.5 -39.5 115.5 -39.5c38 0 86.833 11 146.5 33s122.5 54.667 188.5 98zM332.997 460.999c103.333 28 175.333 55 216 81s74.5 62.833 101.5 110.5s40.5 90.167 40.5 127.5c0 28.667 -8.83301 51.667 -26.5 69s-41.5 26 -71.5 26c-32.667 0 -64 -10.667 -94 -32
s-57.667 -58.833 -83 -112.5s-53 -143.5 -83 -269.5zM342.997 1393h73.999c6.66699 -67.333 28.5 -118 65.5 -152s89.5 -51 157.5 -51c62 0 116 17.833 162 53.5s79.667 85.5 101 149.5h74c-26 -114.667 -69.5 -198.667 -130.5 -252s-136.5 -80 -226.5 -80
c-87.333 0 -155.666 24.5 -204.999 73.5s-74 119.5 -74 211.5z" />
    <glyph glyph-name="Edot" unicode="&#x116;" horiz-adv-x="1251" 
d="M-7 -10l10.998 69.002c70 9.33301 111 19.666 123 30.999s26.333 57.666 43 138.999c6.66699 33.333 33.334 189.666 80.001 468.999l69 414c13.333 79.333 20 132.333 20 159c0 18 -6.66699 30.667 -20 38c-21.333 12 -55.666 18 -102.999 18h-74l11 68l118 -3l111 -4
l368 4l330 1c52 0 94 -2.66699 126 -8l10 -8c-21.333 -104.667 -38.666 -209.334 -51.999 -314.001h-70l3 66l1 80c0 30.667 -9.66699 49.334 -29 56.001c-56 20.667 -153.667 31 -293 31c-58.667 0 -114.667 -4 -168 -12l-85 -510l293 -8
c25.333 0 84.666 2.66699 177.999 8l6 -13l-24 -97c-132 6.66699 -261.667 10 -389 10c-28.667 0 -55.667 -0.666992 -81 -2l-94 -564c71.333 -9.33301 143 -14 215 -14c108 0 198.333 6.33301 271 19c38.667 6.66699 62.334 14 71.001 22
c12 12.667 28.667 55.334 50 128.001l26 83h72l-32 -182c-11.333 -60 -19.333 -111.333 -24 -154l-15 -17c-30.667 -2 -62.334 -3 -95.001 -3l-783 14c-56 0 -114.333 -4.66699 -175 -14zM745.998 1783c33.333 0 62.002 -12 86.002 -36s36 -53 36 -87
c0 -33.333 -11.833 -61.833 -35.5 -85.5s-51.834 -35.5 -84.501 -35.5c-33.333 0 -62 12 -86 36s-36 53 -36 87c0 33.333 11.667 61.833 35 85.5s51.666 35.5 84.999 35.5z" />
    <glyph glyph-name="edot" unicode="&#x117;" horiz-adv-x="909" 
d="M795 242l21.9971 -55.001l-170 -108c-70.667 -39.333 -130.5 -66.833 -179.5 -82.5s-93.5 -23.5 -133.5 -23.5c-81.333 0 -144.166 21.333 -188.499 64s-66.5 104 -66.5 184c0 93.333 19.667 202 59 326c28 88 65.833 157.667 113.5 209s128.834 106.666 243.501 165.999
c64.667 33.333 130 50 196 50c60.667 0 108.334 -15.167 143.001 -45.5s52 -70.166 52 -119.499c0 -60 -17.167 -115.5 -51.5 -166.5s-95.5 -97.667 -183.5 -140s-196.667 -73.833 -326 -94.5c-14 -48 -21 -93.333 -21 -136c0 -53.333 13.5 -93.166 40.5 -119.499
s65.5 -39.5 115.5 -39.5c38 0 86.833 11 146.5 33s122.5 54.667 188.5 98zM332.997 460.999c103.333 28 175.333 55 216 81s74.5 62.833 101.5 110.5s40.5 90.167 40.5 127.5c0 28.667 -8.83301 51.667 -26.5 69s-41.5 26 -71.5 26c-32.667 0 -64 -10.667 -94 -32
s-57.667 -58.833 -83 -112.5s-53 -143.5 -83 -269.5zM635.997 1354c33.333 0 62.002 -12 86.002 -36s36 -53 36 -87c0 -33.333 -11.833 -61.833 -35.5 -85.5s-51.834 -35.5 -84.501 -35.5c-33.333 0 -62 12 -86 36s-36 53 -36 87c0 33.333 11.667 61.833 35 85.5
s51.666 35.5 84.999 35.5z" />
    <glyph glyph-name="Eogonek" unicode="&#x118;" horiz-adv-x="1251" 
d="M-7 -10l10.998 69.002c70 9.33301 111 19.666 123 30.999s26.333 57.666 43 138.999c6.66699 33.333 33.334 189.666 80.001 468.999l69 414c13.333 79.333 20 132.333 20 159c0 18 -6.66699 30.667 -20 38c-21.333 12 -55.666 18 -102.999 18h-74l11 68l118 -3l111 -4
l368 4l330 1c52 0 94 -2.66699 126 -8l10 -8c-21.333 -104.667 -38.666 -209.334 -51.999 -314.001h-70l3 66l1 80c0 30.667 -9.66699 49.334 -29 56.001c-56 20.667 -153.667 31 -293 31c-58.667 0 -114.667 -4 -168 -12l-85 -510l293 -8
c25.333 0 84.666 2.66699 177.999 8l6 -13l-24 -97c-132 6.66699 -261.667 10 -389 10c-28.667 0 -55.667 -0.666992 -81 -2l-94 -564c71.333 -9.33301 143 -14 215 -14c108 0 198.333 6.33301 271 19c38.667 6.66699 62.334 14 71.001 22
c12 12.667 28.667 55.334 50 128.001l26 83h72l-32 -182c-11.333 -60 -19.333 -111.333 -24 -154l-15 -17c-30.667 -2 -62.334 -3 -95.001 -3l-783 14c-56 0 -114.333 -4.66699 -175 -14zM961.998 0.00195312c-48 -54.667 -79.668 -97.168 -95.001 -127.501
s-23 -57.833 -23 -82.5c0 -31.333 10 -57.333 30 -78s44.667 -31 74 -31c17.333 0 33 3.33301 47 10s33 21.667 57 45l36 -23c-72 -80.667 -141 -121 -207 -121c-44 0 -81.667 15.5 -113 46.5s-47 68.5 -47 112.5c0 22.667 4 43.334 12 62.001
c10.667 24.667 26.334 47.667 47.001 69l137 118h45z" />
    <glyph glyph-name="eogonek" unicode="&#x119;" horiz-adv-x="909" 
d="M795 242l21.9971 -55.001l-170 -108c-70.667 -39.333 -130.5 -66.833 -179.5 -82.5s-93.5 -23.5 -133.5 -23.5c-81.333 0 -144.166 21.333 -188.499 64s-66.5 104 -66.5 184c0 93.333 19.667 202 59 326c28 88 65.833 157.667 113.5 209s128.834 106.666 243.501 165.999
c64.667 33.333 130 50 196 50c60.667 0 108.334 -15.167 143.001 -45.5s52 -70.166 52 -119.499c0 -60 -17.167 -115.5 -51.5 -166.5s-95.5 -97.667 -183.5 -140s-196.667 -73.833 -326 -94.5c-14 -48 -21 -93.333 -21 -136c0 -53.333 13.5 -93.166 40.5 -119.499
s65.5 -39.5 115.5 -39.5c38 0 86.833 11 146.5 33s122.5 54.667 188.5 98zM332.997 460.999c103.333 28 175.333 55 216 81s74.5 62.833 101.5 110.5s40.5 90.167 40.5 127.5c0 28.667 -8.83301 51.667 -26.5 69s-41.5 26 -71.5 26c-32.667 0 -64 -10.667 -94 -32
s-57.667 -58.833 -83 -112.5s-53 -143.5 -83 -269.5zM389.997 -0.000976562c-48 -54.667 -79.668 -97.168 -95.001 -127.501s-23 -57.833 -23 -82.5c0 -31.333 10 -57.333 30 -78s44.667 -31 74 -31c17.333 0 33 3.33301 47 10s33 21.667 57 45l36 -23
c-72 -80.667 -141 -121 -207 -121c-44 0 -81.667 15.5 -113 46.5s-47 68.5 -47 112.5c0 22.667 4 43.334 12 62.001c10.667 24.667 26.334 47.667 47.001 69l137 118h45z" />
    <glyph glyph-name="Ecaron" unicode="&#x11a;" horiz-adv-x="1251" 
d="M-7 -10l10.998 69.002c70 9.33301 111 19.666 123 30.999s26.333 57.666 43 138.999c6.66699 33.333 33.334 189.666 80.001 468.999l69 414c13.333 79.333 20 132.333 20 159c0 18 -6.66699 30.667 -20 38c-21.333 12 -55.666 18 -102.999 18h-74l11 68l118 -3l111 -4
l368 4l330 1c52 0 94 -2.66699 126 -8l10 -8c-21.333 -104.667 -38.666 -209.334 -51.999 -314.001h-70l3 66l1 80c0 30.667 -9.66699 49.334 -29 56.001c-56 20.667 -153.667 31 -293 31c-58.667 0 -114.667 -4 -168 -12l-85 -510l293 -8
c25.333 0 84.666 2.66699 177.999 8l6 -13l-24 -97c-132 6.66699 -261.667 10 -389 10c-28.667 0 -55.667 -0.666992 -81 -2l-94 -564c71.333 -9.33301 143 -14 215 -14c108 0 198.333 6.33301 271 19c38.667 6.66699 62.334 14 71.001 22
c12 12.667 28.667 55.334 50 128.001l26 83h72l-32 -182c-11.333 -60 -19.333 -111.333 -24 -154l-15 -17c-30.667 -2 -62.334 -3 -95.001 -3l-783 14c-56 0 -114.333 -4.66699 -175 -14zM499.998 1843h90l193 -205l281 205h98l-328 -352h-142z" />
    <glyph glyph-name="ecaron" unicode="&#x11b;" horiz-adv-x="909" 
d="M795 242l21.9971 -55.001l-170 -108c-70.667 -39.333 -130.5 -66.833 -179.5 -82.5s-93.5 -23.5 -133.5 -23.5c-81.333 0 -144.166 21.333 -188.499 64s-66.5 104 -66.5 184c0 93.333 19.667 202 59 326c28 88 65.833 157.667 113.5 209s128.834 106.666 243.501 165.999
c64.667 33.333 130 50 196 50c60.667 0 108.334 -15.167 143.001 -45.5s52 -70.166 52 -119.499c0 -60 -17.167 -115.5 -51.5 -166.5s-95.5 -97.667 -183.5 -140s-196.667 -73.833 -326 -94.5c-14 -48 -21 -93.333 -21 -136c0 -53.333 13.5 -93.166 40.5 -119.499
s65.5 -39.5 115.5 -39.5c38 0 86.833 11 146.5 33s122.5 54.667 188.5 98zM332.997 460.999c103.333 28 175.333 55 216 81s74.5 62.833 101.5 110.5s40.5 90.167 40.5 127.5c0 28.667 -8.83301 51.667 -26.5 69s-41.5 26 -71.5 26c-32.667 0 -64 -10.667 -94 -32
s-57.667 -58.833 -83 -112.5s-53 -143.5 -83 -269.5zM368.997 1413h90l193 -205l281 205h98l-328 -352h-142z" />
    <glyph glyph-name="Gcircumflex" unicode="&#x11c;" horiz-adv-x="1593" 
d="M1316 94l-1 -6.99902c-25.333 -4.66699 -92 -22.667 -200 -54c-78 -22.667 -145.667 -38.334 -203 -47.001s-115 -13 -173 -13c-196.667 0 -346.667 48.667 -450 146s-155 234.333 -155 411c0 166 35.833 310.667 107.5 434s184.334 229.333 338.001 318
s306.167 133 457.5 133c86.667 0 168.334 -7.5 245.001 -22.5s136.667 -33.5 180 -55.5l8 -14l-24 -90c-26 -95.333 -43.333 -176 -52 -242h-71c1.33301 38 3 80.333 5 127l-1 71c-46.667 32.667 -99.334 57 -158.001 73s-123.334 24 -194.001 24
c-122 0 -222 -24.667 -300 -74s-139 -126.333 -183 -231c-56.667 -135.333 -85 -282.333 -85 -441c0 -157.333 35.5 -274.666 106.5 -351.999s171.833 -116 302.5 -116c86 0 164.667 15 236 45l39 165c19.333 84.667 29 144 29 178c0 18 -7.83301 31.5 -23.5 40.5
s-49.5 13.5 -101.5 13.5h-90l11 70c48 -2 166 -4 354 -6l257 6l-12 -70h-32c-31.333 0 -56.5 -6.83301 -75.5 -20.5s-31.833 -40.834 -38.5 -81.501l-17 -102l-33 -167zM994 1844h142l180 -350h-90l-181 205l-271 -205h-102z" />
    <glyph glyph-name="gcircumflex" unicode="&#x11d;" horiz-adv-x="1024" 
d="M289 27c-35.333 32 -53.0029 64.6641 -53.0029 97.9971c0 26.667 10.333 46.667 31 60l79 46c35.333 20.667 63.333 39.334 84 56.001l-43 -2c-52.667 0 -104 12.333 -154 37c-37.333 18 -66.333 44.667 -87 80s-31 80 -31 134c0 67.333 15.167 130 45.5 188
s65.333 100.667 105 128s110.167 59.333 211.5 96c46 16 89 24 129 24c56 0 103.333 -8.33301 142 -25c23.333 -10 44.333 -16.5 63 -19.5s43.334 -4.5 74.001 -4.5l198 7l10 -16l-24 -105c-39.333 7.33301 -90 11 -152 11l-26 -2c14 -36 21 -73 21 -111
c0 -54.667 -12.167 -109.667 -36.5 -165s-53.666 -97.666 -87.999 -126.999s-94.166 -60.666 -179.499 -93.999c-60 -22.667 -99.5 -42.5 -118.5 -59.5s-28.5 -32.5 -28.5 -46.5c0 -12.667 5 -24.667 15 -36c14 -16.667 40.667 -39 80 -67l133 -96
c58 -41.333 98 -79.5 120 -114.5s33 -74.167 33 -117.5c0 -93.333 -41.667 -171 -125 -233c-103.333 -76 -237 -114 -401 -114c-144.667 0 -251.834 24.667 -321.501 74s-104.5 110 -104.5 182c0 46 16.833 92.167 50.5 138.5s82.167 85.5 145.5 117.5
c30.667 15.333 98.334 41.333 203.001 78zM319.997 541.997c0 -64 13.5 -110.997 40.5 -140.997s65.5 -45 115.5 -45c39.333 0 74.666 12.167 105.999 36.5s58.333 65.666 81 123.999s34 121.166 34 188.499c0 61.333 -13.667 106.666 -41 135.999s-65.666 44 -114.999 44
c-70 0 -124.333 -35.667 -163 -107s-58 -150 -58 -236zM332.997 -11l-101.002 -45.9961c-39.333 -21.333 -70.666 -42.333 -93.999 -63s-41.166 -44.5 -53.499 -71.5s-18.5 -55.833 -18.5 -86.5c0 -58.667 25.5 -107.834 76.5 -147.501s120.833 -59.5 209.5 -59.5
c86.667 0 154.167 19.167 202.5 57.5s72.5 84.166 72.5 137.499c0 29.333 -10.5 57.166 -31.5 83.499s-78.167 71.166 -171.5 134.499zM580.995 1411h142l180 -350h-90l-181 205l-271 -205h-102z" />
    </font>
</defs>
</svg>
